<svg width="40" height="40" viewBox="0 0 40 40" fill="none" xmlns="http://www.w3.org/2000/svg">
<path d="M34.8263 3.3335H5.17139C4.15592 3.33412 3.33285 4.15766 3.33301 5.1735V34.8284C3.33363 35.8439 4.15717 36.667 5.17301 36.6668H21.139V23.7762H16.8096V18.7306H21.139V15.0175C21.139 10.7114 23.7678 8.36766 27.6089 8.36766C29.4487 8.36766 31.0298 8.5048 31.4906 8.56605V13.0666H28.8419C26.752 13.0666 26.3473 14.0596 26.3473 15.5171V18.7306H31.3441L30.6931 23.7762H26.3473V36.6668H34.8263C35.8424 36.667 36.6661 35.8437 36.6663 34.8276V5.17193C36.6659 4.15641 35.8422 3.33334 34.8263 3.3335Z" fill="#F0F1F5"/>
</svg>
