<svg width="408" height="100" viewBox="0 0 408 100" fill="none" xmlns="http://www.w3.org/2000/svg">
<g clip-path="url(#clip0_39_562)">
<path d="M71.1833 0C60.2258 0 51.3438 8.88384 51.3438 19.8434V37.3232V72.3636V89.8434C51.3438 95.3232 55.7823 99.7626 61.261 99.7626C66.7397 99.7626 71.1782 95.3232 71.1782 89.8434V72.3636V37.3182L71.1833 0Z" fill="#1179A2"/>
<path d="M26.2472 33.2777C25.6968 34.5151 25.3787 35.8787 25.3787 37.3181V39.0757V89.8384V91.596H25.5453C26.3785 96.2324 30.4231 99.7576 35.3009 99.7576C40.1788 99.7576 44.2234 96.2324 45.0566 91.596H45.2182V89.8384V37.3181V19.2373C36.2805 19.2373 28.7265 25.1514 26.2472 33.2777Z" fill="#293965"/>
<path d="M0 60.0807V73.505V89.8433V91.6009H0.166635C0.999802 96.2373 5.04446 99.7625 9.92228 99.7625C14.8001 99.7625 18.8448 96.2373 19.6779 91.6009H19.8446V89.8433V73.505V40.2422C8.88208 40.2371 0 49.121 0 60.0807Z" fill="#00B7E1"/>
<path d="M102.389 41.4946H93.9104V65.7772H87.1946V41.4946H78.7568V36.04H102.394V41.4946H102.389Z" fill="#293965"/>
<path d="M132.12 65.7822H125.404V53.6711H113.088V65.7822H106.393V36.0449H113.088V47.9086H125.404V36.0449H132.12V65.7822Z" fill="#293965"/>
<path d="M156.752 65.7822H138.922V36.0449H156.07V41.4995H145.623V48.1156H155.348V53.5499H145.623V60.353H156.757V65.7822H156.752Z" fill="#293965"/>
<path d="M207.11 65.7823H200.496V47.9895C200.496 46.0703 200.576 43.9441 200.743 41.6208H200.576C200.233 43.4441 199.92 44.7572 199.642 45.5602L192.674 65.7823H187.2L180.116 45.7673C179.924 45.2269 179.611 43.8481 179.182 41.6208H178.995C179.177 44.5501 179.262 47.1259 179.262 49.333V65.7772H173.228V36.04H183.034L189.109 53.6661C189.594 55.0752 189.947 56.4944 190.164 57.9186H190.291C190.664 56.2722 191.058 54.8429 191.472 53.6257L197.547 36.04H207.105V65.7823H207.11Z" fill="#293965"/>
<path d="M231.702 65.7822H213.872V36.0449H231.02V41.4995H220.573V48.1156H230.298V53.5499H220.573V60.353H231.707V65.7822H231.702Z" fill="#293965"/>
<path d="M261.413 65.7822H253.723L249.098 58.1307C248.749 57.5499 248.421 57.0297 248.103 56.5752C247.785 56.1206 247.462 55.7267 247.138 55.4035C246.815 55.0802 246.477 54.8277 246.123 54.656C245.77 54.4843 245.386 54.3984 244.972 54.3984H243.169V65.7822H236.469V36.0449H247.083C254.299 36.0449 257.904 38.7419 257.904 44.1308C257.904 45.1661 257.742 46.1258 257.429 47.0046C257.111 47.8834 256.662 48.6712 256.081 49.3783C255.5 50.0853 254.798 50.6913 253.975 51.2014C253.152 51.7115 252.238 52.1156 251.228 52.4035V52.4843C251.673 52.6257 252.097 52.8479 252.516 53.161C252.93 53.4691 253.334 53.8328 253.718 54.2519C254.107 54.6661 254.475 55.1105 254.829 55.5903C255.182 56.0701 255.5 56.5348 255.793 56.9893L261.413 65.7822ZM243.169 41.0601V49.3328H246.073C247.512 49.3328 248.663 48.9187 249.537 48.0904C250.421 47.2469 250.865 46.2015 250.865 44.9591C250.865 42.3581 249.31 41.0601 246.199 41.0601H243.169Z" fill="#293965"/>
<path d="M285.504 64.7218C283.333 65.7723 280.5 66.2976 277.006 66.2976C272.446 66.2976 268.856 64.9592 266.246 62.2723C263.635 59.5905 262.327 56.0198 262.327 51.5501C262.327 46.7926 263.797 42.939 266.73 39.9794C269.669 37.0198 273.482 35.54 278.167 35.54C281.071 35.54 283.515 35.9087 285.509 36.641V43.0906C283.52 41.9037 281.253 41.3078 278.708 41.3078C275.915 41.3078 273.663 42.1865 271.946 43.939C270.23 45.6966 269.376 48.0754 269.376 51.0703C269.376 53.9491 270.184 56.237 271.8 57.944C273.416 59.6511 275.597 60.5046 278.334 60.5046C280.945 60.5046 283.338 59.8683 285.509 58.5955V64.7218H285.504Z" fill="#293965"/>
<path d="M316.417 65.7822H309.701V53.6711H297.385V65.7822H290.689V36.0449H297.385V47.9086H309.701V36.0449H316.417V65.7822Z" fill="#293965"/>
<path d="M349.365 65.7822H342.068L339.953 59.1661H329.379L327.283 65.7822H320.027L330.848 36.0449H338.791L349.365 65.7822ZM338.418 54.0196L335.226 44.0247C334.989 43.2772 334.827 42.3884 334.726 41.348H334.56C334.489 42.2166 334.317 43.0853 334.04 43.9389L330.803 54.0196H338.418Z" fill="#293965"/>
<path d="M379.823 65.7822H373.062L360.807 47.0954C360.09 46.0045 359.59 45.1813 359.312 44.6257H359.231C359.342 45.6762 359.398 47.2823 359.398 49.4389V65.7822H353.076V36.0449H360.292L372.087 54.1459C372.628 54.9641 373.122 55.7721 373.582 56.5752H373.663C373.552 55.8833 373.496 54.5196 373.496 52.4893V36.0449H379.818V65.7822H379.823Z" fill="#293965"/>
<path d="M407.505 41.4946H399.027V65.7772H392.311V41.4946H383.873V36.04H407.51V41.4946H407.505Z" fill="#293965"/>
<path d="M94.294 75.4592H89.1283V79.9087H93.9052V81.2622H89.1283V86.9592H87.5781V74.1006H94.294V75.4592Z" fill="#1179A2"/>
<path d="M102.136 87.1713C100.258 87.1713 98.7581 86.5703 97.632 85.3683C96.5009 84.1663 95.9404 82.6057 95.9404 80.6764C95.9404 78.6107 96.5161 76.9592 97.6674 75.7269C98.8187 74.4946 100.384 73.8784 102.363 73.8784C104.191 73.8784 105.661 74.4744 106.777 75.6713C107.893 76.8683 108.453 78.4289 108.453 80.3633C108.453 82.4592 107.883 84.1208 106.736 85.338C105.585 86.5602 104.055 87.1713 102.136 87.1713ZM102.247 75.2421C100.859 75.2421 99.7276 75.732 98.8591 76.7016C97.9905 77.6764 97.5563 78.9542 97.5563 80.54C97.5563 82.1259 97.9804 83.3986 98.8237 84.3633C99.667 85.3279 100.773 85.8128 102.131 85.8128C103.58 85.8128 104.727 85.3532 105.565 84.434C106.403 83.5148 106.817 82.2269 106.817 80.5703C106.817 78.8734 106.413 77.5602 105.6 76.636C104.792 75.7067 103.671 75.2421 102.247 75.2421Z" fill="#1179A2"/>
<path d="M119.036 86.954H117.193L114.977 83.3479C114.775 83.0146 114.578 82.7267 114.386 82.4893C114.194 82.2519 114.002 82.06 113.8 81.9085C113.598 81.757 113.386 81.6509 113.154 81.5802C112.921 81.5095 112.664 81.4792 112.376 81.4792H111.104V86.9489H109.553V74.0903H113.502C114.083 74.0903 114.613 74.161 115.103 74.3025C115.593 74.4439 116.017 74.656 116.375 74.9439C116.734 75.2317 117.017 75.5903 117.219 76.0146C117.421 76.4439 117.522 76.9439 117.522 77.5146C117.522 77.9641 117.451 78.3732 117.315 78.7469C117.178 79.1206 116.981 79.454 116.724 79.7469C116.471 80.0398 116.163 80.2873 115.8 80.4944C115.441 80.7014 115.037 80.8631 114.588 80.9742V81.0095C114.81 81.1055 115.002 81.2166 115.163 81.3378C115.325 81.459 115.482 81.6055 115.628 81.7721C115.774 81.9388 115.921 82.1307 116.067 82.3429C116.214 82.555 116.375 82.8024 116.552 83.0802L119.036 86.954ZM111.104 75.459V80.1206H113.209C113.598 80.1206 113.957 80.0651 114.285 79.9489C114.613 79.8378 114.901 79.6711 115.138 79.459C115.376 79.2469 115.567 78.9893 115.704 78.6812C115.84 78.3732 115.906 78.0297 115.906 77.6459C115.906 76.959 115.679 76.4237 115.219 76.0348C114.76 75.6509 114.098 75.454 113.23 75.454H111.104V75.459Z" fill="#1179A2"/>
<path d="M127.863 86.9538H120.85V74.0952H127.565V75.4588H122.4V79.7366H127.177V81.0902H122.4V85.5902H127.863V86.9538Z" fill="#1179A2"/>
<path d="M139.543 86.954H137.65L134.605 82.0298C134.514 81.8783 134.413 81.6662 134.302 81.3934H134.266C134.206 81.5298 134.1 81.7419 133.953 82.0298L130.818 86.954H128.919L133.347 80.4894L129.272 74.0955H131.171L133.873 78.6157C134.049 78.9136 134.206 79.2116 134.342 79.5146H134.377C134.574 79.1207 134.746 78.8076 134.893 78.5803L137.705 74.0955H139.488L135.327 80.4692L139.543 86.954Z" fill="#1179A2"/>
<path d="M161.877 87.1611C161.528 87.1611 161.215 87.1156 160.947 87.0197C160.68 86.9288 160.432 86.7974 160.205 86.6257C159.978 86.454 159.756 86.2469 159.544 86.0045C159.332 85.7621 159.109 85.4793 158.877 85.1712C158.63 85.4288 158.347 85.6762 158.024 85.9136C157.701 86.151 157.342 86.3631 156.948 86.55C156.554 86.7368 156.125 86.8833 155.656 86.9944C155.186 87.1055 154.681 87.1611 154.136 87.1611C153.469 87.1611 152.863 87.0803 152.308 86.9187C151.752 86.757 151.283 86.5197 150.889 86.2065C150.495 85.8934 150.187 85.5045 149.97 85.0449C149.753 84.5853 149.642 84.055 149.642 83.4591C149.642 82.5449 149.909 81.7621 150.444 81.1156C150.98 80.4692 151.737 79.9389 152.712 79.5247C152.525 79.3934 152.343 79.2419 152.156 79.0651C151.969 78.8883 151.808 78.6863 151.661 78.4641C151.515 78.2419 151.399 77.9944 151.313 77.7217C151.222 77.449 151.177 77.151 151.177 76.8277C151.177 76.358 151.262 75.9389 151.439 75.5702C151.616 75.2065 151.853 74.8984 152.161 74.6459C152.469 74.3934 152.833 74.2065 153.252 74.0752C153.671 73.949 154.121 73.8833 154.61 73.8833C155.09 73.8833 155.529 73.949 155.923 74.0752C156.322 74.2065 156.66 74.3884 156.948 74.6257C157.236 74.8631 157.458 75.151 157.62 75.4843C157.781 75.8176 157.857 76.1914 157.857 76.6055C157.857 77.3227 157.645 77.9187 157.226 78.3934C156.807 78.8681 156.171 79.2722 155.332 79.6106C155.757 79.7722 156.14 79.9692 156.484 80.2015C156.827 80.4338 157.145 80.6964 157.438 80.9793C157.731 81.2671 158.004 81.5752 158.256 81.9035C158.509 82.2318 158.756 82.5752 159.003 82.9237C159.503 82.2469 159.877 81.5045 160.129 80.6914C160.382 79.8782 160.508 79.0247 160.508 78.1358C160.508 77.9086 160.493 77.6964 160.468 77.4944C160.437 77.2924 160.402 77.0954 160.352 76.8985H161.821C161.872 77.0954 161.902 77.2823 161.907 77.4591C161.917 77.6358 161.927 77.8479 161.937 78.0904C161.937 78.6358 161.877 79.1813 161.76 79.7318C161.644 80.2823 161.488 80.8176 161.291 81.3328C161.094 81.8479 160.867 82.3429 160.604 82.8075C160.341 83.2722 160.069 83.7015 159.776 84.0904C159.993 84.3782 160.19 84.6257 160.367 84.8378C160.543 85.05 160.725 85.2267 160.907 85.3732C161.089 85.5197 161.276 85.6207 161.468 85.6914C161.659 85.7621 161.882 85.7924 162.129 85.7924C162.316 85.7924 162.503 85.7671 162.695 85.7217C162.886 85.6762 163.083 85.6156 163.285 85.5399V86.9035C163.063 86.9894 162.831 87.05 162.589 87.0904C162.346 87.1409 162.109 87.1611 161.877 87.1611ZM154.136 85.8884C154.605 85.8884 155.034 85.8378 155.428 85.7419C155.822 85.6409 156.186 85.5146 156.519 85.3479C156.852 85.1813 157.155 84.9944 157.423 84.7722C157.691 84.555 157.938 84.3277 158.16 84.0853C157.786 83.5197 157.438 83.0298 157.12 82.6257C156.802 82.2217 156.484 81.8732 156.161 81.5803C155.837 81.2873 155.494 81.0348 155.125 80.8277C154.757 80.6207 154.338 80.4237 153.858 80.2469C153.469 80.3985 153.116 80.5601 152.787 80.7469C152.459 80.9288 152.182 81.1459 151.944 81.3934C151.707 81.6409 151.52 81.9288 151.384 82.257C151.247 82.5853 151.182 82.9692 151.182 83.4136C151.182 83.8227 151.257 84.1813 151.414 84.4894C151.565 84.8025 151.778 85.0601 152.045 85.2671C152.313 85.4742 152.626 85.6308 152.979 85.7318C153.338 85.8378 153.722 85.8884 154.136 85.8884ZM156.443 76.7318C156.443 76.4338 156.388 76.1813 156.272 75.9692C156.155 75.7621 156.014 75.5853 155.837 75.449C155.661 75.3126 155.469 75.2116 155.252 75.151C155.034 75.0904 154.822 75.055 154.615 75.055C154.014 75.055 153.53 75.2116 153.171 75.5298C152.813 75.8479 152.631 76.2772 152.621 76.8227C152.621 77.0702 152.661 77.2974 152.737 77.5146C152.813 77.7318 152.924 77.9288 153.06 78.1156C153.196 78.3025 153.358 78.4641 153.545 78.6106C153.732 78.757 153.924 78.8782 154.136 78.9793C154.908 78.7166 155.489 78.4086 155.868 78.0601C156.251 77.7065 156.443 77.2671 156.443 76.7318Z" fill="#293965"/>
<path d="M183.252 86.4186C182.272 86.9186 181.055 87.1712 179.601 87.1712C177.717 87.1712 176.212 86.5803 175.081 85.4035C173.95 84.2267 173.385 82.6813 173.385 80.7671C173.385 78.7116 174.021 77.05 175.293 75.7823C176.566 74.5146 178.182 73.8833 180.136 73.8833C181.388 73.8833 182.428 74.0601 183.252 74.4136V76.0197C182.302 75.5045 181.257 75.2469 180.116 75.2469C178.596 75.2469 177.364 75.7419 176.42 76.7267C175.475 77.7116 175.006 79.0298 175.006 80.6813C175.006 82.2469 175.445 83.4944 176.329 84.4237C177.212 85.353 178.369 85.8176 179.803 85.8176C181.131 85.8176 182.282 85.5298 183.252 84.9591V86.4186Z" fill="#293965"/>
<path d="M191.275 87.1711C189.396 87.1711 187.897 86.5701 186.771 85.3681C185.64 84.1661 185.079 82.6054 185.079 80.6761C185.079 78.6105 185.655 76.959 186.806 75.7267C187.957 74.4943 189.523 73.8782 191.502 73.8782C193.33 73.8782 194.799 74.4741 195.915 75.6711C197.031 76.8681 197.592 78.4287 197.592 80.363C197.592 82.459 197.021 84.1206 195.875 85.3378C194.729 86.56 193.194 87.1711 191.275 87.1711ZM191.386 75.2418C189.997 75.2418 188.866 75.7317 187.998 76.7014C187.129 77.6762 186.695 78.9539 186.695 80.5398C186.695 82.1256 187.119 83.3984 187.962 84.363C188.806 85.3277 189.911 85.8125 191.27 85.8125C192.719 85.8125 193.865 85.3529 194.703 84.4337C195.542 83.5145 195.956 82.2267 195.956 80.5701C195.956 78.8731 195.552 77.56 194.739 76.6357C193.936 75.7065 192.815 75.2418 191.386 75.2418Z" fill="#293965"/>
<path d="M213.674 86.9541H212.134V78.3279C212.134 77.646 212.18 76.8127 212.265 75.8279H212.23C212.084 76.4087 211.952 76.8228 211.831 77.0753L207.312 86.9592H206.555L202.045 77.146C201.914 76.8582 201.783 76.4188 201.646 75.8279H201.611C201.662 76.343 201.687 77.1814 201.687 78.3481V86.9592H200.192V74.1006H202.242L206.302 83.0703C206.615 83.7572 206.817 84.2723 206.913 84.6107H206.969C207.231 83.9036 207.448 83.3784 207.605 83.0299L211.745 74.1006H213.684V86.9541H213.674Z" fill="#293965"/>
<path d="M230.64 86.9541H229.1V78.3279C229.1 77.646 229.146 76.8127 229.232 75.8279H229.196C229.05 76.4087 228.919 76.8228 228.797 77.0753L224.278 86.9592H223.521L219.011 77.146C218.88 76.8582 218.749 76.4188 218.612 75.8279H218.577C218.628 76.343 218.653 77.1814 218.653 78.3481V86.9592H217.158V74.1006H219.208L223.268 83.0703C223.581 83.7572 223.783 84.2723 223.879 84.6107H223.935C224.197 83.9036 224.414 83.3784 224.571 83.0299L228.711 74.1006H230.65V86.9541H230.64Z" fill="#293965"/>
<path d="M239.453 87.1711C237.574 87.1711 236.074 86.5701 234.948 85.3681C233.822 84.1661 233.257 82.6054 233.257 80.6761C233.257 78.6105 233.832 76.959 234.984 75.7267C236.135 74.4943 237.7 73.8782 239.68 73.8782C241.508 73.8782 242.977 74.4741 244.093 75.6711C245.209 76.8681 245.77 78.4287 245.77 80.363C245.77 82.459 245.199 84.1206 244.053 85.3378C242.901 86.56 241.371 87.1711 239.453 87.1711ZM239.564 75.2418C238.175 75.2418 237.044 75.7317 236.175 76.7014C235.307 77.6762 234.873 78.9539 234.873 80.5398C234.873 82.1256 235.297 83.3984 236.14 84.363C236.988 85.3277 238.089 85.8125 239.448 85.8125C240.897 85.8125 242.043 85.3529 242.881 84.4337C243.719 83.5145 244.139 82.2267 244.139 80.5701C244.139 78.8731 243.735 77.56 242.922 76.6357C242.109 75.7065 240.993 75.2418 239.564 75.2418Z" fill="#293965"/>
<path d="M248.365 86.954V74.0955H252.02C256.681 74.0955 259.014 76.1864 259.014 80.3631C259.014 82.348 258.368 83.9439 257.07 85.146C255.777 86.353 254.045 86.954 251.874 86.954H248.365ZM249.915 75.4591V85.5904H251.889C253.626 85.5904 254.974 85.1409 255.939 84.2369C256.903 83.3328 257.388 82.0551 257.388 80.3985C257.388 77.1056 255.585 75.4591 251.985 75.4591H249.915Z" fill="#293965"/>
<path d="M264.453 74.0955V75.3884H263.16V85.6662H264.453V86.9591H260.317V85.6662H261.61V75.3884H260.317V74.0955H264.453Z" fill="#293965"/>
<path d="M274.46 75.4591H270.643V86.954H269.093V75.4591H265.285V74.0955H274.465V75.4591H274.46Z" fill="#293965"/>
<path d="M279.379 74.0955V75.3884H278.086V85.6662H279.379V86.9591H275.243V85.6662H276.536V75.3884H275.243V74.0955H279.379Z" fill="#293965"/>
<path d="M288.579 86.9538H281.565V74.0952H288.281V75.4588H283.116V79.7366H287.892V81.0902H283.116V85.5902H288.579V86.9538Z" fill="#293965"/>
<path d="M290.508 86.4344V84.6566C290.715 84.8384 290.967 84.995 291.26 85.1415C291.553 85.2829 291.861 85.4041 292.184 85.5051C292.507 85.6061 292.83 85.6819 293.159 85.7324C293.487 85.7829 293.785 85.8132 294.062 85.8132C295.017 85.8132 295.729 85.6415 296.198 85.298C296.668 84.9546 296.905 84.4596 296.905 83.8132C296.905 83.4647 296.825 83.1667 296.668 82.9091C296.511 82.6516 296.294 82.4192 296.017 82.2071C295.739 81.995 295.411 81.793 295.032 81.596C294.653 81.4041 294.244 81.197 293.81 80.9798C293.35 80.7526 292.916 80.5202 292.517 80.2879C292.118 80.0556 291.77 79.798 291.477 79.5152C291.184 79.2324 290.947 78.9142 290.78 78.5606C290.609 78.2071 290.528 77.7879 290.528 77.3081C290.528 76.7223 290.659 76.2122 290.927 75.7778C291.189 75.3435 291.538 74.9899 291.967 74.7071C292.396 74.4243 292.886 74.2172 293.436 74.0808C293.987 73.9445 294.547 73.8738 295.123 73.8738C296.426 73.8738 297.375 74.0253 297.971 74.3334V76.0303C297.188 75.5051 296.188 75.2425 294.966 75.2425C294.628 75.2425 294.29 75.2778 293.951 75.3435C293.613 75.4142 293.31 75.5253 293.047 75.6819C292.785 75.8384 292.568 76.0354 292.401 76.2829C292.234 76.5303 292.154 76.8283 292.154 77.1819C292.154 77.5101 292.214 77.793 292.346 78.0354C292.472 78.2728 292.659 78.495 292.906 78.692C293.154 78.8889 293.451 79.0808 293.805 79.2677C294.158 79.4546 294.567 79.6566 295.027 79.8788C295.502 80.1061 295.951 80.3435 296.375 80.596C296.799 80.8485 297.173 81.1263 297.491 81.4293C297.809 81.7324 298.067 82.0707 298.254 82.4445C298.44 82.8132 298.536 83.2374 298.536 83.7172C298.536 84.3536 298.41 84.8889 298.153 85.3283C297.9 85.7677 297.552 86.1263 297.117 86.399C296.683 86.6718 296.183 86.8738 295.618 86.995C295.052 87.1162 294.456 87.1768 293.83 87.1768C293.618 87.1768 293.361 87.1617 293.053 87.1263C292.745 87.0909 292.431 87.0455 292.113 86.9849C291.795 86.9243 291.492 86.8435 291.204 86.7526C290.906 86.6516 290.679 86.5505 290.508 86.4344Z" fill="#293965"/>
<path d="M320.876 87.1611C320.527 87.1611 320.214 87.1156 319.947 87.0197C319.679 86.9237 319.432 86.7974 319.204 86.6257C318.977 86.454 318.755 86.2469 318.543 86.0045C318.331 85.7621 318.109 85.4793 317.871 85.1712C317.624 85.4288 317.341 85.6762 317.018 85.9136C316.695 86.151 316.336 86.3631 315.942 86.55C315.549 86.7368 315.119 86.8833 314.65 86.9944C314.18 87.1055 313.675 87.1611 313.13 87.1611C312.463 87.1611 311.857 87.0803 311.302 86.9187C310.746 86.757 310.277 86.5197 309.883 86.2065C309.489 85.8934 309.181 85.5045 308.964 85.0449C308.747 84.5853 308.636 84.055 308.636 83.4591C308.636 82.5449 308.903 81.7621 309.439 81.1156C309.974 80.4692 310.731 79.9389 311.706 79.5247C311.524 79.3934 311.337 79.2419 311.155 79.0651C310.969 78.8883 310.807 78.6863 310.661 78.4641C310.514 78.2419 310.398 77.9944 310.312 77.7217C310.221 77.449 310.181 77.151 310.181 76.8277C310.181 76.358 310.267 75.9389 310.443 75.5702C310.62 75.2065 310.858 74.8984 311.166 74.6459C311.474 74.3934 311.837 74.2065 312.256 74.0752C312.675 73.949 313.125 73.8833 313.615 73.8833C314.094 73.8833 314.534 73.949 314.927 74.0752C315.326 74.2065 315.665 74.3884 315.953 74.6257C316.24 74.8631 316.462 75.151 316.624 75.4843C316.786 75.8176 316.861 76.1914 316.861 76.6055C316.861 77.3227 316.649 77.9187 316.23 78.3934C315.811 78.8681 315.175 79.2722 314.332 79.6106C314.756 79.7722 315.14 79.9692 315.483 80.2015C315.826 80.4338 316.144 80.6964 316.437 80.9793C316.73 81.2621 317.003 81.5752 317.255 81.9035C317.508 82.2318 317.755 82.5752 318.003 82.9237C318.502 82.2469 318.876 81.5045 319.129 80.6914C319.381 79.8782 319.507 79.0247 319.507 78.1358C319.507 77.9086 319.492 77.6964 319.467 77.4944C319.437 77.2924 319.401 77.0954 319.351 76.8985H320.82C320.871 77.0954 320.901 77.2823 320.906 77.4591C320.916 77.6358 320.926 77.8479 320.936 78.0904C320.936 78.6358 320.876 79.1813 320.76 79.7318C320.643 80.2823 320.487 80.8176 320.29 81.3328C320.093 81.8479 319.866 82.3429 319.603 82.8075C319.341 83.2722 319.068 83.7015 318.775 84.0904C318.992 84.3782 319.184 84.6257 319.366 84.8378C319.543 85.05 319.724 85.2267 319.906 85.3732C320.088 85.5197 320.275 85.6207 320.467 85.6914C320.659 85.7621 320.881 85.7924 321.128 85.7924C321.315 85.7924 321.502 85.7671 321.689 85.7217C321.881 85.6762 322.078 85.6156 322.28 85.5399V86.9035C322.057 86.9894 321.825 87.05 321.583 87.0904C321.35 87.1409 321.113 87.1611 320.876 87.1611ZM313.135 85.8884C313.604 85.8884 314.034 85.8378 314.428 85.7419C314.821 85.6409 315.185 85.5146 315.518 85.3479C315.851 85.1813 316.149 84.9944 316.422 84.7722C316.69 84.555 316.937 84.3277 317.159 84.0853C316.786 83.5197 316.437 83.0298 316.119 82.6257C315.801 82.2217 315.483 81.8732 315.16 81.5803C314.837 81.2873 314.493 81.0348 314.125 80.8277C313.756 80.6207 313.337 80.4237 312.857 80.2469C312.468 80.3985 312.115 80.5601 311.787 80.7469C311.458 80.9288 311.181 81.1459 310.943 81.3934C310.706 81.6409 310.519 81.9288 310.383 82.257C310.247 82.5853 310.181 82.9692 310.181 83.4136C310.181 83.8227 310.257 84.1813 310.413 84.4894C310.565 84.8025 310.777 85.0601 311.044 85.2671C311.312 85.4742 311.625 85.6308 311.979 85.7318C312.342 85.8378 312.726 85.8884 313.135 85.8884ZM315.442 76.7318C315.442 76.4338 315.387 76.1813 315.271 75.9692C315.155 75.7621 315.013 75.5853 314.837 75.449C314.66 75.3126 314.468 75.2116 314.251 75.151C314.034 75.0904 313.822 75.055 313.615 75.055C313.014 75.055 312.529 75.2116 312.17 75.5298C311.812 75.8479 311.63 76.2772 311.62 76.8227C311.62 77.0702 311.66 77.2974 311.736 77.5146C311.812 77.7318 311.923 77.9288 312.059 78.1156C312.201 78.3025 312.357 78.4641 312.544 78.6106C312.731 78.752 312.923 78.8782 313.135 78.9793C313.912 78.7166 314.488 78.4086 314.872 78.0601C315.251 77.7065 315.442 77.2671 315.442 76.7318Z" fill="#293965"/>
<path d="M342.251 86.4186C341.271 86.9186 340.054 87.1712 338.595 87.1712C336.711 87.1712 335.207 86.5803 334.076 85.4035C332.944 84.2267 332.379 82.6813 332.379 80.7671C332.379 78.7116 333.015 77.05 334.288 75.7823C335.56 74.5146 337.176 73.8833 339.13 73.8833C340.382 73.8833 341.423 74.0601 342.246 74.4136V76.0197C341.296 75.5045 340.251 75.2469 339.11 75.2469C337.59 75.2469 336.358 75.7419 335.414 76.7267C334.469 77.7116 334 79.0298 334 80.6813C334 82.2469 334.439 83.4944 335.323 84.4237C336.206 85.353 337.363 85.8176 338.797 85.8176C340.125 85.8176 341.276 85.5298 342.246 84.9591V86.4186H342.251Z" fill="#00B7E1"/>
<path d="M354.43 86.954H352.587L350.37 83.3479C350.168 83.0146 349.972 82.7267 349.78 82.4893C349.588 82.2519 349.391 82.06 349.194 81.9085C348.992 81.757 348.78 81.6509 348.548 81.5802C348.315 81.5095 348.058 81.4792 347.77 81.4792H346.497V86.9489H344.947V74.0903H348.896C349.477 74.0903 350.007 74.161 350.497 74.3025C350.986 74.4439 351.411 74.656 351.769 74.9439C352.128 75.2317 352.41 75.5903 352.612 76.0146C352.814 76.4439 352.915 76.9439 352.915 77.5146C352.915 77.9641 352.845 78.3732 352.708 78.7469C352.572 79.1206 352.375 79.454 352.118 79.7469C351.865 80.0398 351.557 80.2873 351.194 80.4944C350.83 80.7014 350.431 80.8631 349.982 80.9742V81.0095C350.204 81.1055 350.396 81.2166 350.557 81.3378C350.719 81.459 350.875 81.6055 351.022 81.7721C351.168 81.9388 351.315 82.1307 351.461 82.3429C351.608 82.555 351.769 82.8024 351.946 83.0802L354.43 86.954ZM346.497 75.459V80.1206H348.603C348.992 80.1206 349.35 80.0651 349.679 79.9489C350.007 79.8378 350.29 79.6711 350.532 79.459C350.769 79.2469 350.961 78.9893 351.098 78.6812C351.234 78.3732 351.3 78.0297 351.3 77.6459C351.3 76.959 351.067 76.4237 350.613 76.0348C350.153 75.6509 349.492 75.454 348.623 75.454H346.497V75.459Z" fill="#00B7E1"/>
<path d="M364.847 74.0952L360.485 82.2013V86.9538H358.934V82.2366L354.683 74.0952H356.445L359.409 79.9083C359.444 79.9791 359.55 80.2417 359.732 80.6962H359.757C359.818 80.4942 359.934 80.2316 360.106 79.9083L363.206 74.0952H364.847Z" fill="#00B7E1"/>
<path d="M368.241 82.0952V86.9538H366.69V74.0952H370.327C371.74 74.0952 372.836 74.4286 373.614 75.1003C374.391 75.772 374.78 76.7164 374.78 77.9336C374.78 79.1508 374.351 80.1508 373.483 80.9285C372.619 81.7063 371.453 82.0952 369.983 82.0952H368.241ZM368.241 75.4588V80.7316H369.867C370.937 80.7316 371.756 80.4942 372.316 80.0195C372.882 79.5447 373.159 78.873 373.159 78.0043C373.159 76.3073 372.124 75.4588 370.058 75.4588H368.241Z" fill="#00B7E1"/>
<path d="M385.096 75.4591H381.279V86.954H379.728V75.4591H375.916V74.0955H385.096V75.4591Z" fill="#00B7E1"/>
<path d="M392.503 87.1713C390.625 87.1713 389.125 86.5703 387.999 85.3683C386.868 84.1663 386.308 82.6057 386.308 80.6764C386.308 78.6107 386.883 76.9592 388.035 75.7269C389.186 74.4946 390.751 73.8784 392.731 73.8784C394.558 73.8784 396.028 74.4744 397.144 75.6713C398.26 76.8683 398.82 78.4289 398.82 80.3633C398.82 82.4592 398.25 84.1208 397.103 85.338C395.952 86.5602 394.422 87.1713 392.503 87.1713ZM392.614 75.2421C391.226 75.2421 390.095 75.732 389.226 76.7016C388.358 77.6764 387.928 78.9542 387.928 80.54C387.928 82.1259 388.353 83.3986 389.196 84.3633C390.039 85.3279 391.145 85.8128 392.503 85.8128C393.953 85.8128 395.099 85.3532 395.937 84.434C396.775 83.5148 397.189 82.2269 397.189 80.5703C397.189 78.8734 396.785 77.5602 395.972 76.636C395.159 75.7067 394.043 75.2421 392.614 75.2421Z" fill="#00B7E1"/>
</g>
<mask id="mask0_39_562" style="mask-type:alpha" maskUnits="userSpaceOnUse" x="0" y="0" width="408" height="100">
<g clip-path="url(#clip1_39_562)">
<path d="M71.1833 0C60.2258 0 51.3438 8.88384 51.3438 19.8434V37.3232V72.3636V89.8434C51.3438 95.3232 55.7823 99.7626 61.261 99.7626C66.7397 99.7626 71.1782 95.3232 71.1782 89.8434V72.3636V37.3182L71.1833 0Z" fill="#1179A2"/>
<path d="M26.2472 33.2777C25.6968 34.5151 25.3787 35.8787 25.3787 37.3181V39.0757V89.8384V91.596H25.5453C26.3785 96.2324 30.4231 99.7576 35.3009 99.7576C40.1788 99.7576 44.2234 96.2324 45.0566 91.596H45.2182V89.8384V37.3181V19.2373C36.2805 19.2373 28.7265 25.1514 26.2472 33.2777Z" fill="#293965"/>
<path d="M0 60.0807V73.505V89.8433V91.6009H0.166635C0.999802 96.2373 5.04446 99.7625 9.92228 99.7625C14.8001 99.7625 18.8448 96.2373 19.6779 91.6009H19.8446V89.8433V73.505V40.2422C8.88208 40.2371 0 49.121 0 60.0807Z" fill="#00B7E1"/>
<path d="M102.389 41.4946H93.9104V65.7772H87.1946V41.4946H78.7568V36.04H102.394V41.4946H102.389Z" fill="#293965"/>
<path d="M132.12 65.7822H125.404V53.6711H113.088V65.7822H106.393V36.0449H113.088V47.9086H125.404V36.0449H132.12V65.7822Z" fill="#293965"/>
<path d="M156.752 65.7822H138.922V36.0449H156.07V41.4995H145.623V48.1156H155.348V53.5499H145.623V60.353H156.757V65.7822H156.752Z" fill="#293965"/>
<path d="M207.11 65.7823H200.496V47.9895C200.496 46.0703 200.576 43.9441 200.743 41.6208H200.576C200.233 43.4441 199.92 44.7572 199.642 45.5602L192.674 65.7823H187.2L180.116 45.7673C179.924 45.2269 179.611 43.8481 179.182 41.6208H178.995C179.177 44.5501 179.262 47.1259 179.262 49.333V65.7772H173.228V36.04H183.034L189.109 53.6661C189.594 55.0752 189.947 56.4944 190.164 57.9186H190.291C190.664 56.2722 191.058 54.8429 191.472 53.6257L197.547 36.04H207.105V65.7823H207.11Z" fill="#293965"/>
<path d="M231.702 65.7822H213.872V36.0449H231.02V41.4995H220.573V48.1156H230.298V53.5499H220.573V60.353H231.707V65.7822H231.702Z" fill="#293965"/>
<path d="M261.413 65.7822H253.723L249.098 58.1307C248.749 57.5499 248.421 57.0297 248.103 56.5752C247.785 56.1206 247.462 55.7267 247.138 55.4035C246.815 55.0802 246.477 54.8277 246.123 54.656C245.77 54.4843 245.386 54.3984 244.972 54.3984H243.169V65.7822H236.469V36.0449H247.083C254.299 36.0449 257.904 38.7419 257.904 44.1308C257.904 45.1661 257.742 46.1258 257.429 47.0046C257.111 47.8834 256.662 48.6712 256.081 49.3783C255.5 50.0853 254.798 50.6913 253.975 51.2014C253.152 51.7115 252.238 52.1156 251.228 52.4035V52.4843C251.673 52.6257 252.097 52.8479 252.516 53.161C252.93 53.4691 253.334 53.8328 253.718 54.2519C254.107 54.6661 254.475 55.1105 254.829 55.5903C255.182 56.0701 255.5 56.5348 255.793 56.9893L261.413 65.7822ZM243.169 41.0601V49.3328H246.073C247.512 49.3328 248.663 48.9187 249.537 48.0904C250.421 47.2469 250.865 46.2015 250.865 44.9591C250.865 42.3581 249.31 41.0601 246.199 41.0601H243.169Z" fill="#293965"/>
<path d="M285.504 64.7218C283.333 65.7723 280.5 66.2976 277.006 66.2976C272.446 66.2976 268.856 64.9592 266.246 62.2723C263.635 59.5905 262.327 56.0198 262.327 51.5501C262.327 46.7926 263.797 42.939 266.73 39.9794C269.669 37.0198 273.482 35.54 278.167 35.54C281.071 35.54 283.515 35.9087 285.509 36.641V43.0906C283.52 41.9037 281.253 41.3078 278.708 41.3078C275.915 41.3078 273.663 42.1865 271.946 43.939C270.23 45.6966 269.376 48.0754 269.376 51.0703C269.376 53.9491 270.184 56.237 271.8 57.944C273.416 59.6511 275.597 60.5046 278.334 60.5046C280.945 60.5046 283.338 59.8683 285.509 58.5955V64.7218H285.504Z" fill="#293965"/>
<path d="M316.417 65.7822H309.701V53.6711H297.385V65.7822H290.689V36.0449H297.385V47.9086H309.701V36.0449H316.417V65.7822Z" fill="#293965"/>
<path d="M349.365 65.7822H342.068L339.953 59.1661H329.379L327.283 65.7822H320.027L330.848 36.0449H338.791L349.365 65.7822ZM338.418 54.0196L335.226 44.0247C334.989 43.2772 334.827 42.3884 334.726 41.348H334.56C334.489 42.2166 334.317 43.0853 334.04 43.9389L330.803 54.0196H338.418Z" fill="#293965"/>
<path d="M379.823 65.7822H373.062L360.807 47.0954C360.09 46.0045 359.59 45.1813 359.312 44.6257H359.231C359.342 45.6762 359.398 47.2823 359.398 49.4389V65.7822H353.076V36.0449H360.292L372.087 54.1459C372.628 54.9641 373.122 55.7721 373.582 56.5752H373.663C373.552 55.8833 373.496 54.5196 373.496 52.4893V36.0449H379.818V65.7822H379.823Z" fill="#293965"/>
<path d="M407.505 41.4946H399.027V65.7772H392.311V41.4946H383.873V36.04H407.51V41.4946H407.505Z" fill="#293965"/>
<path d="M94.294 75.4592H89.1283V79.9087H93.9052V81.2622H89.1283V86.9592H87.5781V74.1006H94.294V75.4592Z" fill="#1179A2"/>
<path d="M102.136 87.1713C100.258 87.1713 98.7581 86.5703 97.632 85.3683C96.5009 84.1663 95.9404 82.6057 95.9404 80.6764C95.9404 78.6107 96.5161 76.9592 97.6674 75.7269C98.8187 74.4946 100.384 73.8784 102.363 73.8784C104.191 73.8784 105.661 74.4744 106.777 75.6713C107.893 76.8683 108.453 78.4289 108.453 80.3633C108.453 82.4592 107.883 84.1208 106.736 85.338C105.585 86.5602 104.055 87.1713 102.136 87.1713ZM102.247 75.2421C100.859 75.2421 99.7276 75.732 98.8591 76.7016C97.9905 77.6764 97.5563 78.9542 97.5563 80.54C97.5563 82.1259 97.9804 83.3986 98.8237 84.3633C99.667 85.3279 100.773 85.8128 102.131 85.8128C103.58 85.8128 104.727 85.3532 105.565 84.434C106.403 83.5148 106.817 82.2269 106.817 80.5703C106.817 78.8734 106.413 77.5602 105.6 76.636C104.792 75.7067 103.671 75.2421 102.247 75.2421Z" fill="#1179A2"/>
<path d="M119.036 86.954H117.193L114.977 83.3479C114.775 83.0146 114.578 82.7267 114.386 82.4893C114.194 82.2519 114.002 82.06 113.8 81.9085C113.598 81.757 113.386 81.6509 113.154 81.5802C112.921 81.5095 112.664 81.4792 112.376 81.4792H111.104V86.9489H109.553V74.0903H113.502C114.083 74.0903 114.613 74.161 115.103 74.3025C115.593 74.4439 116.017 74.656 116.375 74.9439C116.734 75.2317 117.017 75.5903 117.219 76.0146C117.421 76.4439 117.522 76.9439 117.522 77.5146C117.522 77.9641 117.451 78.3732 117.315 78.7469C117.178 79.1206 116.981 79.454 116.724 79.7469C116.471 80.0398 116.163 80.2873 115.8 80.4944C115.441 80.7014 115.037 80.8631 114.588 80.9742V81.0095C114.81 81.1055 115.002 81.2166 115.163 81.3378C115.325 81.459 115.482 81.6055 115.628 81.7721C115.774 81.9388 115.921 82.1307 116.067 82.3429C116.214 82.555 116.375 82.8024 116.552 83.0802L119.036 86.954ZM111.104 75.459V80.1206H113.209C113.598 80.1206 113.957 80.0651 114.285 79.9489C114.613 79.8378 114.901 79.6711 115.138 79.459C115.376 79.2469 115.567 78.9893 115.704 78.6812C115.84 78.3732 115.906 78.0297 115.906 77.6459C115.906 76.959 115.679 76.4237 115.219 76.0348C114.76 75.6509 114.098 75.454 113.23 75.454H111.104V75.459Z" fill="#1179A2"/>
<path d="M127.863 86.9538H120.85V74.0952H127.565V75.4588H122.4V79.7366H127.177V81.0902H122.4V85.5902H127.863V86.9538Z" fill="#1179A2"/>
<path d="M139.543 86.954H137.65L134.605 82.0298C134.514 81.8783 134.413 81.6662 134.302 81.3934H134.266C134.206 81.5298 134.1 81.7419 133.953 82.0298L130.818 86.954H128.919L133.347 80.4894L129.272 74.0955H131.171L133.873 78.6157C134.049 78.9136 134.206 79.2116 134.342 79.5146H134.377C134.574 79.1207 134.746 78.8076 134.893 78.5803L137.705 74.0955H139.488L135.327 80.4692L139.543 86.954Z" fill="#1179A2"/>
<path d="M161.877 87.1611C161.528 87.1611 161.215 87.1156 160.947 87.0197C160.68 86.9288 160.432 86.7974 160.205 86.6257C159.978 86.454 159.756 86.2469 159.544 86.0045C159.332 85.7621 159.109 85.4793 158.877 85.1712C158.63 85.4288 158.347 85.6762 158.024 85.9136C157.701 86.151 157.342 86.3631 156.948 86.55C156.554 86.7368 156.125 86.8833 155.656 86.9944C155.186 87.1055 154.681 87.1611 154.136 87.1611C153.469 87.1611 152.863 87.0803 152.308 86.9187C151.752 86.757 151.283 86.5197 150.889 86.2065C150.495 85.8934 150.187 85.5045 149.97 85.0449C149.753 84.5853 149.642 84.055 149.642 83.4591C149.642 82.5449 149.909 81.7621 150.444 81.1156C150.98 80.4692 151.737 79.9389 152.712 79.5247C152.525 79.3934 152.343 79.2419 152.156 79.0651C151.969 78.8883 151.808 78.6863 151.661 78.4641C151.515 78.2419 151.399 77.9944 151.313 77.7217C151.222 77.449 151.177 77.151 151.177 76.8277C151.177 76.358 151.262 75.9389 151.439 75.5702C151.616 75.2065 151.853 74.8984 152.161 74.6459C152.469 74.3934 152.833 74.2065 153.252 74.0752C153.671 73.949 154.121 73.8833 154.61 73.8833C155.09 73.8833 155.529 73.949 155.923 74.0752C156.322 74.2065 156.66 74.3884 156.948 74.6257C157.236 74.8631 157.458 75.151 157.62 75.4843C157.781 75.8176 157.857 76.1914 157.857 76.6055C157.857 77.3227 157.645 77.9187 157.226 78.3934C156.807 78.8681 156.171 79.2722 155.332 79.6106C155.757 79.7722 156.14 79.9692 156.484 80.2015C156.827 80.4338 157.145 80.6964 157.438 80.9793C157.731 81.2671 158.004 81.5752 158.256 81.9035C158.509 82.2318 158.756 82.5752 159.003 82.9237C159.503 82.2469 159.877 81.5045 160.129 80.6914C160.382 79.8782 160.508 79.0247 160.508 78.1358C160.508 77.9086 160.493 77.6964 160.468 77.4944C160.437 77.2924 160.402 77.0954 160.352 76.8985H161.821C161.872 77.0954 161.902 77.2823 161.907 77.4591C161.917 77.6358 161.927 77.8479 161.937 78.0904C161.937 78.6358 161.877 79.1813 161.76 79.7318C161.644 80.2823 161.488 80.8176 161.291 81.3328C161.094 81.8479 160.867 82.3429 160.604 82.8075C160.341 83.2722 160.069 83.7015 159.776 84.0904C159.993 84.3782 160.19 84.6257 160.367 84.8378C160.543 85.05 160.725 85.2267 160.907 85.3732C161.089 85.5197 161.276 85.6207 161.468 85.6914C161.659 85.7621 161.882 85.7924 162.129 85.7924C162.316 85.7924 162.503 85.7671 162.695 85.7217C162.886 85.6762 163.083 85.6156 163.285 85.5399V86.9035C163.063 86.9894 162.831 87.05 162.589 87.0904C162.346 87.1409 162.109 87.1611 161.877 87.1611ZM154.136 85.8884C154.605 85.8884 155.034 85.8378 155.428 85.7419C155.822 85.6409 156.186 85.5146 156.519 85.3479C156.852 85.1813 157.155 84.9944 157.423 84.7722C157.691 84.555 157.938 84.3277 158.16 84.0853C157.786 83.5197 157.438 83.0298 157.12 82.6257C156.802 82.2217 156.484 81.8732 156.161 81.5803C155.837 81.2873 155.494 81.0348 155.125 80.8277C154.757 80.6207 154.338 80.4237 153.858 80.2469C153.469 80.3985 153.116 80.5601 152.787 80.7469C152.459 80.9288 152.182 81.1459 151.944 81.3934C151.707 81.6409 151.52 81.9288 151.384 82.257C151.247 82.5853 151.182 82.9692 151.182 83.4136C151.182 83.8227 151.257 84.1813 151.414 84.4894C151.565 84.8025 151.778 85.0601 152.045 85.2671C152.313 85.4742 152.626 85.6308 152.979 85.7318C153.338 85.8378 153.722 85.8884 154.136 85.8884ZM156.443 76.7318C156.443 76.4338 156.388 76.1813 156.272 75.9692C156.155 75.7621 156.014 75.5853 155.837 75.449C155.661 75.3126 155.469 75.2116 155.252 75.151C155.034 75.0904 154.822 75.055 154.615 75.055C154.014 75.055 153.53 75.2116 153.171 75.5298C152.813 75.8479 152.631 76.2772 152.621 76.8227C152.621 77.0702 152.661 77.2974 152.737 77.5146C152.813 77.7318 152.924 77.9288 153.06 78.1156C153.196 78.3025 153.358 78.4641 153.545 78.6106C153.732 78.757 153.924 78.8782 154.136 78.9793C154.908 78.7166 155.489 78.4086 155.868 78.0601C156.251 77.7065 156.443 77.2671 156.443 76.7318Z" fill="#293965"/>
<path d="M183.252 86.4186C182.272 86.9186 181.055 87.1712 179.601 87.1712C177.717 87.1712 176.212 86.5803 175.081 85.4035C173.95 84.2267 173.385 82.6813 173.385 80.7671C173.385 78.7116 174.021 77.05 175.293 75.7823C176.566 74.5146 178.182 73.8833 180.136 73.8833C181.388 73.8833 182.428 74.0601 183.252 74.4136V76.0197C182.302 75.5045 181.257 75.2469 180.116 75.2469C178.596 75.2469 177.364 75.7419 176.42 76.7267C175.475 77.7116 175.006 79.0298 175.006 80.6813C175.006 82.2469 175.445 83.4944 176.329 84.4237C177.212 85.353 178.369 85.8176 179.803 85.8176C181.131 85.8176 182.282 85.5298 183.252 84.9591V86.4186Z" fill="#293965"/>
<path d="M191.275 87.1711C189.396 87.1711 187.897 86.5701 186.771 85.3681C185.64 84.1661 185.079 82.6054 185.079 80.6761C185.079 78.6105 185.655 76.959 186.806 75.7267C187.957 74.4943 189.523 73.8782 191.502 73.8782C193.33 73.8782 194.799 74.4741 195.915 75.6711C197.031 76.8681 197.592 78.4287 197.592 80.363C197.592 82.459 197.021 84.1206 195.875 85.3378C194.729 86.56 193.194 87.1711 191.275 87.1711ZM191.386 75.2418C189.997 75.2418 188.866 75.7317 187.998 76.7014C187.129 77.6762 186.695 78.9539 186.695 80.5398C186.695 82.1256 187.119 83.3984 187.962 84.363C188.806 85.3277 189.911 85.8125 191.27 85.8125C192.719 85.8125 193.865 85.3529 194.703 84.4337C195.542 83.5145 195.956 82.2267 195.956 80.5701C195.956 78.8731 195.552 77.56 194.739 76.6357C193.936 75.7065 192.815 75.2418 191.386 75.2418Z" fill="#293965"/>
<path d="M213.674 86.9541H212.134V78.3279C212.134 77.646 212.18 76.8127 212.265 75.8279H212.23C212.084 76.4087 211.952 76.8228 211.831 77.0753L207.312 86.9592H206.555L202.045 77.146C201.914 76.8582 201.783 76.4188 201.646 75.8279H201.611C201.662 76.343 201.687 77.1814 201.687 78.3481V86.9592H200.192V74.1006H202.242L206.302 83.0703C206.615 83.7572 206.817 84.2723 206.913 84.6107H206.969C207.231 83.9036 207.448 83.3784 207.605 83.0299L211.745 74.1006H213.684V86.9541H213.674Z" fill="#293965"/>
<path d="M230.64 86.9541H229.1V78.3279C229.1 77.646 229.146 76.8127 229.232 75.8279H229.196C229.05 76.4087 228.919 76.8228 228.797 77.0753L224.278 86.9592H223.521L219.011 77.146C218.88 76.8582 218.749 76.4188 218.612 75.8279H218.577C218.628 76.343 218.653 77.1814 218.653 78.3481V86.9592H217.158V74.1006H219.208L223.268 83.0703C223.581 83.7572 223.783 84.2723 223.879 84.6107H223.935C224.197 83.9036 224.414 83.3784 224.571 83.0299L228.711 74.1006H230.65V86.9541H230.64Z" fill="#293965"/>
<path d="M239.453 87.1711C237.574 87.1711 236.074 86.5701 234.948 85.3681C233.822 84.1661 233.257 82.6054 233.257 80.6761C233.257 78.6105 233.832 76.959 234.984 75.7267C236.135 74.4943 237.7 73.8782 239.68 73.8782C241.508 73.8782 242.977 74.4741 244.093 75.6711C245.209 76.8681 245.77 78.4287 245.77 80.363C245.77 82.459 245.199 84.1206 244.053 85.3378C242.901 86.56 241.371 87.1711 239.453 87.1711ZM239.564 75.2418C238.175 75.2418 237.044 75.7317 236.175 76.7014C235.307 77.6762 234.873 78.9539 234.873 80.5398C234.873 82.1256 235.297 83.3984 236.14 84.363C236.988 85.3277 238.089 85.8125 239.448 85.8125C240.897 85.8125 242.043 85.3529 242.881 84.4337C243.719 83.5145 244.139 82.2267 244.139 80.5701C244.139 78.8731 243.735 77.56 242.922 76.6357C242.109 75.7065 240.993 75.2418 239.564 75.2418Z" fill="#293965"/>
<path d="M248.365 86.954V74.0955H252.02C256.681 74.0955 259.014 76.1864 259.014 80.3631C259.014 82.348 258.368 83.9439 257.07 85.146C255.777 86.353 254.045 86.954 251.874 86.954H248.365ZM249.915 75.4591V85.5904H251.889C253.626 85.5904 254.974 85.1409 255.939 84.2369C256.903 83.3328 257.388 82.0551 257.388 80.3985C257.388 77.1056 255.585 75.4591 251.985 75.4591H249.915Z" fill="#293965"/>
<path d="M264.453 74.0955V75.3884H263.16V85.6662H264.453V86.9591H260.317V85.6662H261.61V75.3884H260.317V74.0955H264.453Z" fill="#293965"/>
<path d="M274.46 75.4591H270.643V86.954H269.093V75.4591H265.285V74.0955H274.465V75.4591H274.46Z" fill="#293965"/>
<path d="M279.379 74.0955V75.3884H278.086V85.6662H279.379V86.9591H275.243V85.6662H276.536V75.3884H275.243V74.0955H279.379Z" fill="#293965"/>
<path d="M288.579 86.9538H281.565V74.0952H288.281V75.4588H283.116V79.7366H287.892V81.0902H283.116V85.5902H288.579V86.9538Z" fill="#293965"/>
<path d="M290.508 86.4344V84.6566C290.715 84.8384 290.967 84.995 291.26 85.1415C291.553 85.2829 291.861 85.4041 292.184 85.5051C292.507 85.6061 292.83 85.6819 293.159 85.7324C293.487 85.7829 293.785 85.8132 294.062 85.8132C295.017 85.8132 295.729 85.6415 296.198 85.298C296.668 84.9546 296.905 84.4596 296.905 83.8132C296.905 83.4647 296.825 83.1667 296.668 82.9091C296.511 82.6516 296.294 82.4192 296.017 82.2071C295.739 81.995 295.411 81.793 295.032 81.596C294.653 81.4041 294.244 81.197 293.81 80.9798C293.35 80.7526 292.916 80.5202 292.517 80.2879C292.118 80.0556 291.77 79.798 291.477 79.5152C291.184 79.2324 290.947 78.9142 290.78 78.5606C290.609 78.2071 290.528 77.7879 290.528 77.3081C290.528 76.7223 290.659 76.2122 290.927 75.7778C291.189 75.3435 291.538 74.9899 291.967 74.7071C292.396 74.4243 292.886 74.2172 293.436 74.0808C293.987 73.9445 294.547 73.8738 295.123 73.8738C296.426 73.8738 297.375 74.0253 297.971 74.3334V76.0303C297.188 75.5051 296.188 75.2425 294.966 75.2425C294.628 75.2425 294.29 75.2778 293.951 75.3435C293.613 75.4142 293.31 75.5253 293.047 75.6819C292.785 75.8384 292.568 76.0354 292.401 76.2829C292.234 76.5303 292.154 76.8283 292.154 77.1819C292.154 77.5101 292.214 77.793 292.346 78.0354C292.472 78.2728 292.659 78.495 292.906 78.692C293.154 78.8889 293.451 79.0808 293.805 79.2677C294.158 79.4546 294.567 79.6566 295.027 79.8788C295.502 80.1061 295.951 80.3435 296.375 80.596C296.799 80.8485 297.173 81.1263 297.491 81.4293C297.809 81.7324 298.067 82.0707 298.254 82.4445C298.44 82.8132 298.536 83.2374 298.536 83.7172C298.536 84.3536 298.41 84.8889 298.153 85.3283C297.9 85.7677 297.552 86.1263 297.117 86.399C296.683 86.6718 296.183 86.8738 295.618 86.995C295.052 87.1162 294.456 87.1768 293.83 87.1768C293.618 87.1768 293.361 87.1617 293.053 87.1263C292.745 87.0909 292.431 87.0455 292.113 86.9849C291.795 86.9243 291.492 86.8435 291.204 86.7526C290.906 86.6516 290.679 86.5505 290.508 86.4344Z" fill="#293965"/>
<path d="M320.876 87.1611C320.527 87.1611 320.214 87.1156 319.947 87.0197C319.679 86.9237 319.432 86.7974 319.204 86.6257C318.977 86.454 318.755 86.2469 318.543 86.0045C318.331 85.7621 318.109 85.4793 317.871 85.1712C317.624 85.4288 317.341 85.6762 317.018 85.9136C316.695 86.151 316.336 86.3631 315.942 86.55C315.549 86.7368 315.119 86.8833 314.65 86.9944C314.18 87.1055 313.675 87.1611 313.13 87.1611C312.463 87.1611 311.857 87.0803 311.302 86.9187C310.746 86.757 310.277 86.5197 309.883 86.2065C309.489 85.8934 309.181 85.5045 308.964 85.0449C308.747 84.5853 308.636 84.055 308.636 83.4591C308.636 82.5449 308.903 81.7621 309.439 81.1156C309.974 80.4692 310.731 79.9389 311.706 79.5247C311.524 79.3934 311.337 79.2419 311.155 79.0651C310.969 78.8883 310.807 78.6863 310.661 78.4641C310.514 78.2419 310.398 77.9944 310.312 77.7217C310.221 77.449 310.181 77.151 310.181 76.8277C310.181 76.358 310.267 75.9389 310.443 75.5702C310.62 75.2065 310.858 74.8984 311.166 74.6459C311.474 74.3934 311.837 74.2065 312.256 74.0752C312.675 73.949 313.125 73.8833 313.615 73.8833C314.094 73.8833 314.534 73.949 314.927 74.0752C315.326 74.2065 315.665 74.3884 315.953 74.6257C316.24 74.8631 316.462 75.151 316.624 75.4843C316.786 75.8176 316.861 76.1914 316.861 76.6055C316.861 77.3227 316.649 77.9187 316.23 78.3934C315.811 78.8681 315.175 79.2722 314.332 79.6106C314.756 79.7722 315.14 79.9692 315.483 80.2015C315.826 80.4338 316.144 80.6964 316.437 80.9793C316.73 81.2621 317.003 81.5752 317.255 81.9035C317.508 82.2318 317.755 82.5752 318.003 82.9237C318.502 82.2469 318.876 81.5045 319.129 80.6914C319.381 79.8782 319.507 79.0247 319.507 78.1358C319.507 77.9086 319.492 77.6964 319.467 77.4944C319.437 77.2924 319.401 77.0954 319.351 76.8985H320.82C320.871 77.0954 320.901 77.2823 320.906 77.4591C320.916 77.6358 320.926 77.8479 320.936 78.0904C320.936 78.6358 320.876 79.1813 320.76 79.7318C320.643 80.2823 320.487 80.8176 320.29 81.3328C320.093 81.8479 319.866 82.3429 319.603 82.8075C319.341 83.2722 319.068 83.7015 318.775 84.0904C318.992 84.3782 319.184 84.6257 319.366 84.8378C319.543 85.05 319.724 85.2267 319.906 85.3732C320.088 85.5197 320.275 85.6207 320.467 85.6914C320.659 85.7621 320.881 85.7924 321.128 85.7924C321.315 85.7924 321.502 85.7671 321.689 85.7217C321.881 85.6762 322.078 85.6156 322.28 85.5399V86.9035C322.057 86.9894 321.825 87.05 321.583 87.0904C321.35 87.1409 321.113 87.1611 320.876 87.1611ZM313.135 85.8884C313.604 85.8884 314.034 85.8378 314.428 85.7419C314.821 85.6409 315.185 85.5146 315.518 85.3479C315.851 85.1813 316.149 84.9944 316.422 84.7722C316.69 84.555 316.937 84.3277 317.159 84.0853C316.786 83.5197 316.437 83.0298 316.119 82.6257C315.801 82.2217 315.483 81.8732 315.16 81.5803C314.837 81.2873 314.493 81.0348 314.125 80.8277C313.756 80.6207 313.337 80.4237 312.857 80.2469C312.468 80.3985 312.115 80.5601 311.787 80.7469C311.458 80.9288 311.181 81.1459 310.943 81.3934C310.706 81.6409 310.519 81.9288 310.383 82.257C310.247 82.5853 310.181 82.9692 310.181 83.4136C310.181 83.8227 310.257 84.1813 310.413 84.4894C310.565 84.8025 310.777 85.0601 311.044 85.2671C311.312 85.4742 311.625 85.6308 311.979 85.7318C312.342 85.8378 312.726 85.8884 313.135 85.8884ZM315.442 76.7318C315.442 76.4338 315.387 76.1813 315.271 75.9692C315.155 75.7621 315.013 75.5853 314.837 75.449C314.66 75.3126 314.468 75.2116 314.251 75.151C314.034 75.0904 313.822 75.055 313.615 75.055C313.014 75.055 312.529 75.2116 312.17 75.5298C311.812 75.8479 311.63 76.2772 311.62 76.8227C311.62 77.0702 311.66 77.2974 311.736 77.5146C311.812 77.7318 311.923 77.9288 312.059 78.1156C312.201 78.3025 312.357 78.4641 312.544 78.6106C312.731 78.752 312.923 78.8782 313.135 78.9793C313.912 78.7166 314.488 78.4086 314.872 78.0601C315.251 77.7065 315.442 77.2671 315.442 76.7318Z" fill="#293965"/>
<path d="M342.251 86.4186C341.271 86.9186 340.054 87.1712 338.595 87.1712C336.711 87.1712 335.207 86.5803 334.076 85.4035C332.944 84.2267 332.379 82.6813 332.379 80.7671C332.379 78.7116 333.015 77.05 334.288 75.7823C335.56 74.5146 337.176 73.8833 339.13 73.8833C340.382 73.8833 341.423 74.0601 342.246 74.4136V76.0197C341.296 75.5045 340.251 75.2469 339.11 75.2469C337.59 75.2469 336.358 75.7419 335.414 76.7267C334.469 77.7116 334 79.0298 334 80.6813C334 82.2469 334.439 83.4944 335.323 84.4237C336.206 85.353 337.363 85.8176 338.797 85.8176C340.125 85.8176 341.276 85.5298 342.246 84.9591V86.4186H342.251Z" fill="#00B7E1"/>
<path d="M354.43 86.954H352.587L350.37 83.3479C350.168 83.0146 349.972 82.7267 349.78 82.4893C349.588 82.2519 349.391 82.06 349.194 81.9085C348.992 81.757 348.78 81.6509 348.548 81.5802C348.315 81.5095 348.058 81.4792 347.77 81.4792H346.497V86.9489H344.947V74.0903H348.896C349.477 74.0903 350.007 74.161 350.497 74.3025C350.986 74.4439 351.411 74.656 351.769 74.9439C352.128 75.2317 352.41 75.5903 352.612 76.0146C352.814 76.4439 352.915 76.9439 352.915 77.5146C352.915 77.9641 352.845 78.3732 352.708 78.7469C352.572 79.1206 352.375 79.454 352.118 79.7469C351.865 80.0398 351.557 80.2873 351.194 80.4944C350.83 80.7014 350.431 80.8631 349.982 80.9742V81.0095C350.204 81.1055 350.396 81.2166 350.557 81.3378C350.719 81.459 350.875 81.6055 351.022 81.7721C351.168 81.9388 351.315 82.1307 351.461 82.3429C351.608 82.555 351.769 82.8024 351.946 83.0802L354.43 86.954ZM346.497 75.459V80.1206H348.603C348.992 80.1206 349.35 80.0651 349.679 79.9489C350.007 79.8378 350.29 79.6711 350.532 79.459C350.769 79.2469 350.961 78.9893 351.098 78.6812C351.234 78.3732 351.3 78.0297 351.3 77.6459C351.3 76.959 351.067 76.4237 350.613 76.0348C350.153 75.6509 349.492 75.454 348.623 75.454H346.497V75.459Z" fill="#00B7E1"/>
<path d="M364.847 74.0952L360.485 82.2013V86.9538H358.934V82.2366L354.683 74.0952H356.445L359.409 79.9083C359.444 79.9791 359.55 80.2417 359.732 80.6962H359.757C359.818 80.4942 359.934 80.2316 360.106 79.9083L363.206 74.0952H364.847Z" fill="#00B7E1"/>
<path d="M368.241 82.0952V86.9538H366.69V74.0952H370.327C371.74 74.0952 372.836 74.4286 373.614 75.1003C374.391 75.772 374.78 76.7164 374.78 77.9336C374.78 79.1508 374.351 80.1508 373.483 80.9285C372.619 81.7063 371.453 82.0952 369.983 82.0952H368.241ZM368.241 75.4588V80.7316H369.867C370.937 80.7316 371.756 80.4942 372.316 80.0195C372.882 79.5447 373.159 78.873 373.159 78.0043C373.159 76.3073 372.124 75.4588 370.058 75.4588H368.241Z" fill="#00B7E1"/>
<path d="M385.096 75.4591H381.279V86.954H379.728V75.4591H375.916V74.0955H385.096V75.4591Z" fill="#00B7E1"/>
<path d="M392.503 87.1713C390.625 87.1713 389.125 86.5703 387.999 85.3683C386.868 84.1663 386.308 82.6057 386.308 80.6764C386.308 78.6107 386.883 76.9592 388.035 75.7269C389.186 74.4946 390.751 73.8784 392.731 73.8784C394.558 73.8784 396.028 74.4744 397.144 75.6713C398.26 76.8683 398.82 78.4289 398.82 80.3633C398.82 82.4592 398.25 84.1208 397.103 85.338C395.952 86.5602 394.422 87.1713 392.503 87.1713ZM392.614 75.2421C391.226 75.2421 390.095 75.732 389.226 76.7016C388.358 77.6764 387.928 78.9542 387.928 80.54C387.928 82.1259 388.353 83.3986 389.196 84.3633C390.039 85.3279 391.145 85.8128 392.503 85.8128C393.953 85.8128 395.099 85.3532 395.937 84.434C396.775 83.5148 397.189 82.2269 397.189 80.5703C397.189 78.8734 396.785 77.5602 395.972 76.636C395.159 75.7067 394.043 75.2421 392.614 75.2421Z" fill="#00B7E1"/>
</g>
</mask>
<g mask="url(#mask0_39_562)">
<rect x="81" y="-36" width="408" height="127" fill="white"/>
</g>
<defs>
<clipPath id="clip0_39_562">
<rect width="408" height="100" fill="white"/>
</clipPath>
<clipPath id="clip1_39_562">
<rect width="408" height="100" fill="white"/>
</clipPath>
</defs>
</svg>
