<svg width="40" height="40" viewBox="0 0 40 40" fill="none" xmlns="http://www.w3.org/2000/svg">
<path d="M29.6889 9.50146C29.2428 9.50146 28.8797 9.86455 28.8797 10.3107C28.8797 10.7569 29.2428 11.12 29.6889 11.12C30.1352 11.12 30.4982 10.7569 30.4982 10.3107C30.4982 9.86449 30.1352 9.50146 29.6889 9.50146ZM19.9994 12.826C16.0436 12.826 12.8252 16.0444 12.8252 20.0002C12.8252 23.9561 16.0436 27.1745 19.9994 27.1745C23.9553 27.1745 27.1737 23.9562 27.1737 20.0003C27.1737 16.0444 23.9553 12.826 19.9994 12.826Z" fill="#F0F1F5"/>
<path d="M27.5285 3.3335H12.4708C7.43223 3.3335 3.33301 7.43271 3.33301 12.4714V27.529C3.33301 32.5677 7.43223 36.6668 12.4708 36.6668H27.5285C32.5672 36.6668 36.6663 32.5676 36.6663 27.529V12.4714C36.6663 7.43271 32.5672 3.3335 27.5285 3.3335ZM19.9997 29.1429C14.9583 29.1429 10.857 25.0415 10.857 20.0002C10.857 14.9588 14.9584 10.8576 19.9997 10.8576C25.0409 10.8576 29.1424 14.9589 29.1424 20.0002C29.1424 25.0414 25.0409 29.1429 19.9997 29.1429ZM29.6892 13.0884C28.1576 13.0884 26.9115 11.8424 26.9115 10.3107C26.9115 8.77907 28.1576 7.53291 29.6892 7.53291C31.2208 7.53291 32.4669 8.779 32.4669 10.3106C32.4669 11.8423 31.2208 13.0884 29.6892 13.0884Z" fill="#F0F1F5"/>
</svg>
