<svg width="40" height="40" viewBox="0 0 40 40" fill="none" xmlns="http://www.w3.org/2000/svg">
<path d="M6.7291 3.33325C4.1719 3.33325 2.5 5.0124 2.5 7.21945C2.5 9.37778 4.12215 11.1048 6.63102 11.1048H6.67951C9.28673 11.1048 10.9093 9.37778 10.9093 7.21945C10.8605 5.0124 9.28673 3.33325 6.7291 3.33325ZM2.94191 14.1756H10.4176V36.6666H2.94186L2.94191 14.1756ZM28.767 13.6477C24.7341 13.6477 22.0299 17.4373 22.0299 17.4373V14.1756H14.5539V36.6666H22.0294V24.1067C22.0294 23.4343 22.0781 22.763 22.2757 22.2822C22.8161 20.9396 24.0459 19.5486 26.1112 19.5486C28.8163 19.5486 29.8982 21.6111 29.8982 24.6346V36.6666H37.3733V23.7706C37.3733 16.8625 33.685 13.6477 28.767 13.6477Z" fill="#F0F1F5"/>
</svg>
