<svg width="245" height="60" viewBox="0 0 245 60" fill="none" xmlns="http://www.w3.org/2000/svg">
<g clip-path="url(#clip0_20_45)">
<path d="M42.7446 0C36.1648 0 30.8312 5.3303 30.8312 11.9061V22.3939V43.4182V53.9061C30.8312 57.1939 33.4965 59.8576 36.7864 59.8576C40.0763 59.8576 42.7416 57.1939 42.7416 53.9061V43.4182V22.3909L42.7446 0Z" fill="#1179A2"/>
<path d="M15.7608 19.9667C15.4303 20.7091 15.2393 21.5273 15.2393 22.391V23.4455V53.9031V54.9577H15.3393C15.8396 57.7395 18.2684 59.8547 21.1975 59.8547C24.1266 59.8547 26.5553 57.7395 27.0557 54.9577H27.1527V53.9031V22.391V11.5425C21.7857 11.5425 17.2496 15.091 15.7608 19.9667Z" fill="#293965"/>
<path d="M0 36.0485V44.103V53.9061V54.9606H0.100062C0.600371 57.7424 3.02915 59.8576 5.95823 59.8576C8.88731 59.8576 11.3161 57.7424 11.8164 54.9606H11.9165V53.9061V44.103V24.1454C5.3336 24.1423 0 29.4726 0 36.0485Z" fill="#00B7E1"/>
<path d="M61.4835 24.8968H56.3924V39.4664H52.3596V24.8968H47.2929V21.6241H61.4865V24.8968H61.4835Z" fill="#293965"/>
<path d="M79.3366 39.4693H75.3038V32.2027H67.9084V39.4693H63.8877V21.627H67.9084V28.7451H75.3038V21.627H79.3366V39.4693Z" fill="#293965"/>
<path d="M94.1275 39.4693H83.4209V21.627H93.7182V24.8997H87.4446V28.8694H93.2846V32.13H87.4446V36.2118H94.1306V39.4693H94.1275Z" fill="#293965"/>
<path d="M124.367 39.4694H120.395V28.7937C120.395 27.6422 120.444 26.3664 120.544 24.9725H120.444C120.238 26.0664 120.05 26.8543 119.883 27.3361L115.698 39.4694H112.412L108.157 27.4604C108.042 27.1361 107.854 26.3089 107.596 24.9725H107.484C107.593 26.7301 107.645 28.2755 107.645 29.5998V39.4663H104.021V21.624H109.91L113.558 32.1997C113.849 33.0451 114.061 33.8966 114.191 34.7512H114.267C114.492 33.7633 114.728 32.9057 114.977 32.1754L118.624 21.624H124.364V39.4694H124.367Z" fill="#293965"/>
<path d="M139.135 39.4694H128.428V21.627H138.725V24.8997H132.452V28.8694H138.292V32.13H132.452V36.2118H139.138V39.4694H139.135Z" fill="#293965"/>
<path d="M156.976 39.4694H152.358L149.58 34.8785C149.371 34.53 149.174 34.2179 148.983 33.9451C148.792 33.6724 148.598 33.4361 148.404 33.2421C148.21 33.0482 148.007 32.8967 147.794 32.7936C147.582 32.6906 147.352 32.6391 147.103 32.6391H146.021V39.4694H141.997V21.627H148.371C152.704 21.627 154.869 23.2452 154.869 26.4785C154.869 27.0997 154.771 27.6755 154.583 28.2028C154.392 28.7301 154.123 29.2028 153.774 29.627C153.425 30.0512 153.004 30.4148 152.509 30.7209C152.015 31.027 151.466 31.2694 150.86 31.4421V31.4906C151.127 31.5755 151.381 31.7088 151.633 31.8967C151.882 32.0815 152.124 32.2997 152.355 32.5512C152.588 32.7997 152.81 33.0664 153.022 33.3542C153.234 33.6421 153.425 33.9209 153.601 34.1936L156.976 39.4694ZM146.021 24.6361V29.5997H147.764C148.628 29.5997 149.32 29.3512 149.844 28.8543C150.375 28.3482 150.642 27.7209 150.642 26.9755C150.642 25.4149 149.708 24.6361 147.84 24.6361H146.021Z" fill="#293965"/>
<path d="M171.442 38.833C170.138 39.4633 168.437 39.7785 166.339 39.7785C163.601 39.7785 161.445 38.9755 159.877 37.3633C158.31 35.7542 157.524 33.6118 157.524 30.93C157.524 28.0755 158.407 25.7634 160.168 23.9876C161.933 22.2119 164.222 21.324 167.036 21.324C168.78 21.324 170.247 21.5452 171.445 21.9846V25.8543C170.25 25.1422 168.889 24.7846 167.361 24.7846C165.684 24.7846 164.332 25.3119 163.301 26.3634C162.27 27.4179 161.757 28.8452 161.757 30.6421C161.757 32.3694 162.242 33.7421 163.213 34.7664C164.183 35.7906 165.493 36.3027 167.136 36.3027C168.704 36.3027 170.141 35.9209 171.445 35.1573V38.833H171.442Z" fill="#293965"/>
<path d="M190.005 39.4694H185.973V32.2027H178.577V39.4694H174.556V21.627H178.577V28.7452H185.973V21.627H190.005V39.4694Z" fill="#293965"/>
<path d="M209.79 39.4694H205.409L204.138 35.4997H197.789L196.53 39.4694H192.173L198.671 21.627H203.441L209.79 39.4694ZM203.216 32.4118L201.3 26.4149C201.157 25.9664 201.06 25.4331 201 24.8088H200.9C200.857 25.33 200.754 25.8512 200.587 26.3634L198.644 32.4118H203.216Z" fill="#293965"/>
<path d="M228.08 39.4694H224.02L216.661 28.2573C216.23 27.6028 215.93 27.1088 215.763 26.7755H215.715C215.782 27.4058 215.815 28.3694 215.815 29.6634V39.4694H212.019V21.627H216.352L223.435 32.4876C223.759 32.9785 224.056 33.4633 224.332 33.9451H224.381C224.314 33.53 224.281 32.7118 224.281 31.4936V21.627H228.077V39.4694H228.08Z" fill="#293965"/>
<path d="M244.703 24.8968H239.612V39.4663H235.579V24.8968H230.513V21.624H244.706V24.8968H244.703Z" fill="#293965"/>
<path d="M56.6226 45.2754H53.5207V47.9451H56.3892V48.7572H53.5207V52.1754H52.5898V44.4602H56.6226V45.2754Z" fill="#1179A2"/>
<path d="M61.3318 52.3027C60.2038 52.3027 59.3033 51.9421 58.6271 51.2208C57.9479 50.4996 57.6113 49.5633 57.6113 48.4057C57.6113 47.1663 57.957 46.1754 58.6483 45.436C59.3397 44.6966 60.2796 44.3269 61.4683 44.3269C62.5659 44.3269 63.4483 44.6845 64.1184 45.4027C64.7885 46.1208 65.1251 47.0572 65.1251 48.2178C65.1251 49.4754 64.7824 50.4724 64.0941 51.2027C63.4028 51.936 62.484 52.3027 61.3318 52.3027ZM61.3985 45.1451C60.5647 45.1451 59.8855 45.439 59.3639 46.0208C58.8424 46.6057 58.5816 47.3724 58.5816 48.3239C58.5816 49.2754 58.8363 50.039 59.3427 50.6178C59.8491 51.1966 60.5131 51.4875 61.3288 51.4875C62.199 51.4875 62.8873 51.2118 63.3907 50.6602C63.894 50.1087 64.1426 49.336 64.1426 48.3421C64.1426 47.3239 63.9001 46.536 63.4119 45.9814C62.9267 45.4239 62.2536 45.1451 61.3985 45.1451Z" fill="#1179A2"/>
<path d="M71.4806 52.1725H70.3738L69.0427 50.0089C68.9214 49.8089 68.8032 49.6362 68.6879 49.4937C68.5727 49.3513 68.4575 49.2362 68.3362 49.1453C68.2149 49.0543 68.0876 48.9907 67.9481 48.9483C67.8086 48.9059 67.654 48.8877 67.4811 48.8877H66.717V52.1695H65.7861V44.4543H68.1573C68.506 44.4543 68.8244 44.4968 69.1185 44.5816C69.4126 44.6665 69.6673 44.7937 69.8826 44.9665C70.0979 45.1392 70.2677 45.3543 70.389 45.6089C70.5103 45.8665 70.5709 46.1665 70.5709 46.5089C70.5709 46.7786 70.5285 47.024 70.4466 47.2483C70.3647 47.4725 70.2465 47.6725 70.0918 47.8483C69.9402 48.024 69.7553 48.1725 69.5369 48.2968C69.3217 48.421 69.0791 48.518 68.8092 48.5846V48.6059C68.9426 48.6634 69.0579 48.7301 69.1549 48.8028C69.2519 48.8756 69.3459 48.9634 69.4338 49.0634C69.5218 49.1634 69.6097 49.2786 69.6976 49.4059C69.7856 49.5331 69.8826 49.6816 69.9887 49.8483L71.4806 52.1725ZM66.717 45.2756V48.0725H67.9814C68.2149 48.0725 68.4302 48.0392 68.6273 47.9695C68.8244 47.9028 68.9972 47.8028 69.1397 47.6756C69.2822 47.5483 69.3975 47.3937 69.4793 47.2089C69.5612 47.024 69.6006 46.818 69.6006 46.5877C69.6006 46.1756 69.4642 45.8543 69.1882 45.621C68.9123 45.3907 68.5151 45.2725 67.9936 45.2725H66.717V45.2756Z" fill="#1179A2"/>
<path d="M76.7801 52.1724H72.5684V44.4573H76.6012V45.2755H73.4992V47.8421H76.3677V48.6542H73.4992V51.3542H76.7801V52.1724Z" fill="#1179A2"/>
<path d="M83.7938 52.1724H82.6567L80.8283 49.2179C80.7737 49.127 80.7131 48.9997 80.6464 48.8361H80.6251C80.5888 48.9179 80.5251 49.0452 80.4371 49.2179L78.5542 52.1724H77.4141L80.0733 48.2936L77.6263 44.4573H78.7664L80.3886 47.1694C80.4948 47.3482 80.5888 47.527 80.6706 47.7088H80.6918C80.8101 47.4724 80.9132 47.2845 81.0011 47.1482L82.6901 44.4573H83.7604L81.2619 48.2815L83.7938 52.1724Z" fill="#1179A2"/>
<path d="M97.2056 52.2967C96.9964 52.2967 96.8084 52.2694 96.6477 52.2118C96.4869 52.1573 96.3384 52.0785 96.2019 51.9755C96.0655 51.8724 95.9321 51.7482 95.8047 51.6027C95.6774 51.4573 95.5439 51.2876 95.4045 51.1027C95.2559 51.2573 95.0861 51.4058 94.892 51.5482C94.698 51.6906 94.4827 51.8179 94.2462 51.93C94.0097 52.0421 93.7519 52.13 93.4699 52.1967C93.1879 52.2633 92.8847 52.2967 92.5572 52.2967C92.157 52.2967 91.7931 52.2482 91.4596 52.1512C91.1261 52.0542 90.8441 51.9118 90.6076 51.7239C90.3711 51.5361 90.1861 51.3027 90.0557 51.027C89.9253 50.7512 89.8586 50.433 89.8586 50.0755C89.8586 49.527 90.0193 49.0573 90.3407 48.6694C90.6621 48.2815 91.117 47.9633 91.7022 47.7148C91.59 47.6361 91.4808 47.5452 91.3686 47.4391C91.2564 47.333 91.1594 47.2118 91.0715 47.0785C90.9836 46.9452 90.9138 46.7967 90.8623 46.633C90.8077 46.4694 90.7804 46.2906 90.7804 46.0967C90.7804 45.8149 90.8319 45.5633 90.9381 45.3421C91.0442 45.1239 91.1867 44.9391 91.3717 44.7876C91.5566 44.6361 91.7749 44.5239 92.0266 44.4452C92.2783 44.3694 92.5482 44.33 92.8423 44.33C93.1303 44.33 93.3941 44.3694 93.6306 44.4452C93.8702 44.5239 94.0733 44.633 94.2462 44.7755C94.419 44.9179 94.5524 45.0906 94.6494 45.2906C94.7465 45.4906 94.792 45.7149 94.792 45.9633C94.792 46.3936 94.6646 46.7512 94.4129 47.0361C94.1613 47.3209 93.7792 47.5633 93.2759 47.7664C93.5306 47.8633 93.761 47.9815 93.9672 48.1209C94.1734 48.2603 94.3644 48.4179 94.5403 48.5876C94.7162 48.7603 94.8799 48.9452 95.0315 49.1421C95.1831 49.3391 95.3317 49.5452 95.4803 49.7542C95.7805 49.3482 96.0048 48.9027 96.1564 48.4148C96.3081 47.927 96.3839 47.4148 96.3839 46.8815C96.3839 46.7452 96.3748 46.6179 96.3596 46.4967C96.3414 46.3755 96.3202 46.2573 96.2899 46.1391H97.1722C97.2025 46.2573 97.2207 46.3694 97.2238 46.4755C97.2298 46.5815 97.2359 46.7088 97.242 46.8542C97.242 47.1815 97.2056 47.5088 97.1358 47.8391C97.0661 48.1694 96.9721 48.4906 96.8538 48.7997C96.7356 49.1088 96.5991 49.4058 96.4415 49.6845C96.2838 49.9633 96.1201 50.2209 95.9442 50.4542C96.0746 50.627 96.1928 50.7755 96.299 50.9027C96.4051 51.03 96.5142 51.1361 96.6234 51.2239C96.7326 51.3118 96.8447 51.3724 96.96 51.4149C97.0752 51.4573 97.2086 51.4755 97.3572 51.4755C97.4694 51.4755 97.5816 51.4603 97.6968 51.433C97.812 51.4058 97.9303 51.3694 98.0516 51.3239V52.1421C97.9181 52.1936 97.7787 52.23 97.6331 52.2542C97.4876 52.2845 97.3451 52.2967 97.2056 52.2967ZM92.5572 51.533C92.8392 51.533 93.097 51.5027 93.3335 51.4452C93.57 51.3845 93.7883 51.3088 93.9884 51.2088C94.1886 51.1088 94.3705 50.9967 94.5312 50.8633C94.6919 50.733 94.8405 50.5967 94.9739 50.4512C94.7495 50.1118 94.5403 49.8179 94.3493 49.5755C94.1582 49.333 93.9672 49.1239 93.7732 48.9482C93.5791 48.7724 93.3729 48.6209 93.1516 48.4967C92.9302 48.3724 92.6785 48.2542 92.3905 48.1482C92.157 48.2391 91.9447 48.3361 91.7477 48.4482C91.5506 48.5573 91.3838 48.6876 91.2413 48.8361C91.0988 48.9845 90.9866 49.1573 90.9047 49.3542C90.8228 49.5512 90.7834 49.7815 90.7834 50.0482C90.7834 50.2936 90.8289 50.5088 90.9229 50.6936C91.0139 50.8815 91.1412 51.0361 91.3019 51.1603C91.4626 51.2845 91.6506 51.3785 91.8629 51.4391C92.0782 51.5027 92.3086 51.533 92.5572 51.533ZM93.943 46.0391C93.943 45.8603 93.9096 45.7088 93.8399 45.5815C93.7701 45.4573 93.6852 45.3512 93.5791 45.2694C93.473 45.1876 93.3577 45.127 93.2274 45.0906C93.097 45.0542 92.9696 45.033 92.8453 45.033C92.4845 45.033 92.1934 45.127 91.9781 45.3179C91.7628 45.5088 91.6537 45.7664 91.6476 46.0936C91.6476 46.2421 91.6719 46.3785 91.7173 46.5088C91.7628 46.6391 91.8295 46.7573 91.9114 46.8694C91.9933 46.9815 92.0903 47.0785 92.2025 47.1664C92.3147 47.2542 92.4299 47.327 92.5572 47.3876C93.0212 47.23 93.3699 47.0452 93.5973 46.8361C93.8277 46.6239 93.943 46.3603 93.943 46.0391Z" fill="#293965"/>
<path d="M110.04 51.8513C109.452 52.1513 108.721 52.3028 107.848 52.3028C106.717 52.3028 105.813 51.9483 105.134 51.2422C104.455 50.5361 104.115 49.6089 104.115 48.4604C104.115 47.227 104.497 46.2301 105.261 45.4695C106.026 44.7089 106.996 44.3301 108.169 44.3301C108.921 44.3301 109.546 44.4361 110.04 44.6483V45.6119C109.47 45.3028 108.842 45.1483 108.157 45.1483C107.244 45.1483 106.505 45.4452 105.938 46.0361C105.371 46.627 105.089 47.418 105.089 48.4089C105.089 49.3483 105.352 50.0967 105.883 50.6543C106.414 51.2119 107.108 51.4907 107.969 51.4907C108.767 51.4907 109.458 51.318 110.04 50.9755V51.8513Z" fill="#293965"/>
<path d="M114.858 52.3027C113.73 52.3027 112.83 51.9421 112.153 51.2208C111.474 50.4996 111.138 49.5633 111.138 48.4057C111.138 47.1663 111.483 46.1754 112.175 45.436C112.866 44.6966 113.806 44.3269 114.995 44.3269C116.092 44.3269 116.975 44.6845 117.645 45.4027C118.315 46.1208 118.651 47.0572 118.651 48.2178C118.651 49.4754 118.309 50.4724 117.62 51.2027C116.932 51.936 116.01 52.3027 114.858 52.3027ZM114.925 45.1451C114.091 45.1451 113.412 45.439 112.89 46.0208C112.369 46.6057 112.108 47.3724 112.108 48.3239C112.108 49.2754 112.363 50.039 112.869 50.6178C113.375 51.1966 114.039 51.4875 114.855 51.4875C115.725 51.4875 116.414 51.2118 116.917 50.6602C117.42 50.1087 117.669 49.336 117.669 48.3421C117.669 47.3239 117.426 46.536 116.938 45.9814C116.456 45.4239 115.783 45.1451 114.925 45.1451Z" fill="#293965"/>
<path d="M128.31 52.1723H127.385V46.9966C127.385 46.5875 127.412 46.0875 127.464 45.4966H127.443C127.355 45.8451 127.276 46.0935 127.203 46.2451L124.489 52.1754H124.034L121.327 46.2875C121.248 46.1148 121.169 45.8511 121.087 45.4966H121.066C121.096 45.8057 121.111 46.3087 121.111 47.0087V52.1754H120.214V44.4602H121.445L123.883 49.842C124.071 50.2541 124.192 50.5632 124.25 50.7663H124.283C124.441 50.342 124.571 50.0269 124.665 49.8178L127.151 44.4602H128.316V52.1723H128.31Z" fill="#293965"/>
<path d="M138.497 52.1724H137.573V46.9967C137.573 46.5876 137.6 46.0876 137.651 45.4967H137.63C137.542 45.8452 137.463 46.0936 137.391 46.2452L134.677 52.1755H134.222L131.514 46.2876C131.436 46.1148 131.357 45.8512 131.275 45.4967H131.254C131.284 45.8058 131.299 46.3088 131.299 47.0088V52.1755H130.402V44.4603H131.633L134.07 49.8421C134.258 50.2542 134.38 50.5633 134.437 50.7664H134.471C134.628 50.3421 134.759 50.027 134.853 49.8179L137.339 44.4603H138.504V52.1724H138.497Z" fill="#293965"/>
<path d="M143.789 52.3027C142.661 52.3027 141.76 51.9421 141.084 51.2209C140.408 50.4997 140.068 49.5633 140.068 48.4058C140.068 47.1664 140.414 46.1755 141.105 45.4361C141.797 44.6967 142.737 44.327 143.925 44.327C145.023 44.327 145.905 44.6845 146.575 45.4027C147.246 46.1209 147.582 47.0573 147.582 48.2179C147.582 49.4755 147.24 50.4724 146.551 51.2027C145.86 51.9361 144.941 52.3027 143.789 52.3027ZM143.856 45.1452C143.022 45.1452 142.343 45.4391 141.821 46.0209C141.299 46.6058 141.039 47.3724 141.039 48.3239C141.039 49.2755 141.293 50.0391 141.8 50.6179C142.309 51.1967 142.97 51.4876 143.786 51.4876C144.656 51.4876 145.344 51.2118 145.848 50.6603C146.351 50.1088 146.603 49.3361 146.603 48.3421C146.603 47.3239 146.36 46.5361 145.872 45.9815C145.384 45.4239 144.714 45.1452 143.856 45.1452Z" fill="#293965"/>
<path d="M149.14 52.1724V44.4573H151.336C154.134 44.4573 155.535 45.7118 155.535 48.2179C155.535 49.4088 155.147 50.3664 154.368 51.0876C153.592 51.8118 152.552 52.1724 151.248 52.1724H149.14ZM150.071 45.2755V51.3542H151.257C152.3 51.3542 153.11 51.0845 153.689 50.5421C154.268 49.9997 154.559 49.233 154.559 48.2391C154.559 46.2633 153.476 45.2755 151.314 45.2755H150.071Z" fill="#293965"/>
<path d="M158.801 44.4573V45.233H158.025V51.3997H158.801V52.1755H156.318V51.3997H157.094V45.233H156.318V44.4573H158.801Z" fill="#293965"/>
<path d="M164.81 45.2755H162.518V52.1724H161.587V45.2755H159.301V44.4573H164.813V45.2755H164.81Z" fill="#293965"/>
<path d="M167.764 44.4573V45.233H166.987V51.3997H167.764V52.1755H165.28V51.3997H166.057V45.233H165.28V44.4573H167.764Z" fill="#293965"/>
<path d="M173.289 52.1724H169.077V44.4573H173.11V45.2755H170.008V47.8421H172.876V48.6542H170.008V51.3542H173.289V52.1724Z" fill="#293965"/>
<path d="M174.447 51.8606V50.7939C174.572 50.903 174.723 50.9969 174.899 51.0848C175.075 51.1697 175.26 51.2424 175.454 51.303C175.648 51.3636 175.842 51.4091 176.039 51.4394C176.236 51.4697 176.415 51.4879 176.582 51.4879C177.155 51.4879 177.583 51.3848 177.865 51.1788C178.147 50.9727 178.289 50.6757 178.289 50.2879C178.289 50.0788 178.241 49.9 178.147 49.7454C178.053 49.5909 177.922 49.4515 177.755 49.3242C177.589 49.1969 177.392 49.0757 177.164 48.9576C176.937 48.8424 176.691 48.7182 176.43 48.5879C176.154 48.4515 175.894 48.3121 175.654 48.1727C175.415 48.0333 175.205 47.8788 175.029 47.7091C174.854 47.5394 174.711 47.3485 174.611 47.1363C174.508 46.9242 174.459 46.6727 174.459 46.3848C174.459 46.0333 174.538 45.7272 174.699 45.4666C174.857 45.206 175.066 44.9939 175.324 44.8242C175.581 44.6545 175.875 44.5303 176.206 44.4485C176.536 44.3666 176.873 44.3242 177.219 44.3242C178.001 44.3242 178.571 44.4151 178.929 44.6V45.6182C178.459 45.303 177.858 45.1454 177.125 45.1454C176.922 45.1454 176.718 45.1666 176.515 45.206C176.312 45.2485 176.13 45.3151 175.972 45.4091C175.815 45.503 175.684 45.6212 175.584 45.7697C175.484 45.9182 175.436 46.0969 175.436 46.3091C175.436 46.506 175.472 46.6757 175.551 46.8212C175.627 46.9636 175.739 47.0969 175.888 47.2151C176.036 47.3333 176.215 47.4485 176.427 47.5606C176.64 47.6727 176.885 47.7939 177.161 47.9272C177.446 48.0636 177.716 48.206 177.971 48.3576C178.225 48.5091 178.45 48.6757 178.641 48.8575C178.832 49.0394 178.986 49.2424 179.099 49.4666C179.211 49.6879 179.268 49.9424 179.268 50.2303C179.268 50.6121 179.193 50.9333 179.038 51.1969C178.886 51.4606 178.677 51.6757 178.416 51.8394C178.156 52.003 177.855 52.1242 177.516 52.1969C177.176 52.2697 176.818 52.306 176.442 52.306C176.315 52.306 176.16 52.2969 175.975 52.2757C175.791 52.2545 175.603 52.2272 175.412 52.1909C175.22 52.1545 175.039 52.106 174.866 52.0515C174.687 51.9909 174.55 51.9303 174.447 51.8606Z" fill="#293965"/>
<path d="M192.683 52.2967C192.474 52.2967 192.286 52.2694 192.125 52.2118C191.964 52.1542 191.816 52.0785 191.679 51.9755C191.543 51.8724 191.409 51.7482 191.282 51.6027C191.155 51.4573 191.021 51.2876 190.879 51.1027C190.73 51.2573 190.56 51.4058 190.366 51.5482C190.172 51.6906 189.957 51.8179 189.72 51.93C189.484 52.0421 189.226 52.13 188.944 52.1967C188.662 52.2633 188.359 52.2967 188.031 52.2967C187.631 52.2967 187.267 52.2482 186.934 52.1512C186.6 52.0542 186.318 51.9118 186.082 51.7239C185.845 51.5361 185.66 51.3027 185.53 51.027C185.4 50.7512 185.333 50.433 185.333 50.0755C185.333 49.527 185.494 49.0573 185.815 48.6694C186.136 48.2815 186.591 47.9633 187.176 47.7148C187.067 47.6361 186.955 47.5452 186.846 47.4391C186.734 47.333 186.637 47.2118 186.549 47.0785C186.461 46.9452 186.391 46.7967 186.339 46.633C186.285 46.4694 186.261 46.2906 186.261 46.0967C186.261 45.8149 186.312 45.5633 186.418 45.3421C186.524 45.1239 186.667 44.9391 186.852 44.7876C187.037 44.6361 187.255 44.5239 187.507 44.4452C187.759 44.3694 188.028 44.33 188.323 44.33C188.611 44.33 188.874 44.3694 189.111 44.4452C189.35 44.5239 189.554 44.633 189.726 44.7755C189.899 44.9179 190.033 45.0906 190.13 45.2906C190.227 45.4906 190.272 45.7149 190.272 45.9633C190.272 46.3936 190.145 46.7512 189.893 47.0361C189.642 47.3209 189.259 47.5633 188.753 47.7664C189.008 47.8633 189.238 47.9815 189.444 48.1209C189.651 48.2603 189.842 48.4179 190.018 48.5876C190.193 48.7573 190.357 48.9452 190.509 49.1421C190.66 49.3391 190.809 49.5452 190.958 49.7542C191.258 49.3482 191.482 48.9027 191.634 48.4148C191.785 47.927 191.861 47.4148 191.861 46.8815C191.861 46.7452 191.852 46.6179 191.837 46.4967C191.819 46.3755 191.797 46.2573 191.767 46.1391H192.649C192.68 46.2573 192.698 46.3694 192.701 46.4755C192.707 46.5815 192.713 46.7088 192.719 46.8542C192.719 47.1815 192.683 47.5088 192.613 47.8391C192.543 48.1694 192.449 48.4906 192.331 48.7997C192.213 49.1088 192.076 49.4058 191.919 49.6845C191.761 49.9633 191.597 50.2209 191.421 50.4542C191.552 50.627 191.667 50.7755 191.776 50.9027C191.882 51.03 191.991 51.1361 192.101 51.2239C192.21 51.3118 192.322 51.3724 192.437 51.4149C192.552 51.4573 192.686 51.4755 192.834 51.4755C192.947 51.4755 193.059 51.4603 193.171 51.433C193.286 51.4058 193.404 51.3694 193.526 51.3239V52.1421C193.392 52.1936 193.253 52.23 193.107 52.2542C192.968 52.2845 192.825 52.2967 192.683 52.2967ZM188.034 51.533C188.316 51.533 188.574 51.5027 188.811 51.4452C189.047 51.3845 189.266 51.3088 189.466 51.2088C189.666 51.1088 189.845 50.9967 190.008 50.8633C190.169 50.733 190.318 50.5967 190.451 50.4512C190.227 50.1118 190.018 49.8179 189.826 49.5755C189.635 49.333 189.444 49.1239 189.25 48.9482C189.056 48.7724 188.85 48.6209 188.629 48.4967C188.407 48.3724 188.156 48.2542 187.868 48.1482C187.634 48.2391 187.422 48.3361 187.225 48.4482C187.028 48.5573 186.861 48.6876 186.719 48.8361C186.576 48.9845 186.464 49.1573 186.382 49.3542C186.3 49.5512 186.261 49.7815 186.261 50.0482C186.261 50.2936 186.306 50.5088 186.4 50.6936C186.491 50.8815 186.618 51.0361 186.779 51.1603C186.94 51.2845 187.128 51.3785 187.34 51.4391C187.558 51.5027 187.789 51.533 188.034 51.533ZM189.42 46.0391C189.42 45.8603 189.387 45.7088 189.317 45.5815C189.247 45.4573 189.162 45.3512 189.056 45.2694C188.95 45.1876 188.835 45.127 188.705 45.0906C188.574 45.0542 188.447 45.033 188.323 45.033C187.962 45.033 187.671 45.127 187.455 45.3179C187.24 45.5088 187.131 45.7664 187.125 46.0936C187.125 46.2421 187.149 46.3785 187.195 46.5088C187.24 46.6391 187.307 46.7573 187.389 46.8694C187.474 46.9815 187.568 47.0785 187.68 47.1664C187.792 47.2512 187.907 47.327 188.034 47.3876C188.501 47.23 188.847 47.0452 189.078 46.8361C189.305 46.6239 189.42 46.3603 189.42 46.0391Z" fill="#293965"/>
<path d="M205.518 51.8513C204.93 52.1513 204.199 52.3028 203.322 52.3028C202.191 52.3028 201.288 51.9483 200.609 51.2422C199.929 50.5361 199.59 49.6089 199.59 48.4604C199.59 47.227 199.972 46.2301 200.736 45.4695C201.5 44.7089 202.47 44.3301 203.644 44.3301C204.396 44.3301 205.02 44.4361 205.515 44.6483V45.6119C204.945 45.3028 204.317 45.1483 203.632 45.1483C202.719 45.1483 201.979 45.4452 201.412 46.0361C200.845 46.627 200.563 47.418 200.563 48.4089C200.563 49.3483 200.827 50.0967 201.358 50.6543C201.888 51.2119 202.583 51.4907 203.444 51.4907C204.241 51.4907 204.933 51.318 205.515 50.9755V51.8513H205.518Z" fill="#00B7E1"/>
<path d="M212.832 52.1724H211.725L210.394 50.0088C210.273 49.8088 210.155 49.6361 210.039 49.4936C209.924 49.3512 209.806 49.2361 209.688 49.1451C209.566 49.0542 209.439 48.9906 209.299 48.9482C209.16 48.9058 209.005 48.8876 208.832 48.8876H208.068V52.1694H207.137V44.4542H209.509C209.857 44.4542 210.176 44.4967 210.47 44.5815C210.764 44.6664 211.019 44.7936 211.234 44.9664C211.449 45.1391 211.619 45.3542 211.74 45.6088C211.862 45.8664 211.922 46.1664 211.922 46.5088C211.922 46.7785 211.88 47.0239 211.798 47.2482C211.716 47.4724 211.598 47.6724 211.443 47.8482C211.292 48.0239 211.107 48.1724 210.888 48.2967C210.67 48.4209 210.43 48.5179 210.161 48.5845V48.6058C210.294 48.6633 210.409 48.73 210.506 48.8027C210.603 48.8754 210.697 48.9633 210.785 49.0633C210.873 49.1633 210.961 49.2785 211.049 49.4058C211.137 49.533 211.234 49.6815 211.34 49.8482L212.832 52.1724ZM208.068 45.2754V48.0724H209.333C209.566 48.0724 209.782 48.0391 209.979 47.9694C210.176 47.9027 210.346 47.8027 210.491 47.6754C210.634 47.5482 210.749 47.3936 210.831 47.2088C210.913 47.0239 210.952 46.8179 210.952 46.5876C210.952 46.1754 210.813 45.8542 210.54 45.6209C210.264 45.3906 209.866 45.2724 209.345 45.2724H208.068V45.2754Z" fill="#00B7E1"/>
<path d="M219.087 44.4573L216.467 49.3209V52.1724H215.536V49.3421L212.983 44.4573H214.041L215.821 47.9452C215.843 47.9876 215.906 48.1452 216.015 48.4179H216.031C216.067 48.2967 216.137 48.1391 216.24 47.9452L218.102 44.4573H219.087Z" fill="#00B7E1"/>
<path d="M221.124 49.2573V52.1724H220.193V44.4573H222.377C223.226 44.4573 223.884 44.6573 224.351 45.0603C224.818 45.4633 225.051 46.03 225.051 46.7603C225.051 47.4906 224.793 48.0906 224.272 48.5573C223.753 49.0239 223.053 49.2573 222.171 49.2573H221.124ZM221.124 45.2755V48.4391H222.101C222.743 48.4391 223.235 48.2967 223.572 48.0118C223.911 47.727 224.078 47.3239 224.078 46.8027C224.078 45.7845 223.456 45.2755 222.216 45.2755H221.124Z" fill="#00B7E1"/>
<path d="M231.246 45.2755H228.954V52.1724H228.023V45.2755H225.733V44.4573H231.246V45.2755Z" fill="#00B7E1"/>
<path d="M235.694 52.3027C234.566 52.3027 233.666 51.9421 232.989 51.2208C232.31 50.4996 231.974 49.5633 231.974 48.4057C231.974 47.1663 232.319 46.1754 233.011 45.436C233.702 44.6966 234.642 44.3269 235.831 44.3269C236.928 44.3269 237.811 44.6845 238.481 45.4027C239.151 46.1208 239.487 47.0572 239.487 48.2178C239.487 49.4754 239.145 50.4724 238.456 51.2027C237.765 51.936 236.846 52.3027 235.694 52.3027ZM235.761 45.1451C234.927 45.1451 234.248 45.439 233.726 46.0208C233.205 46.6057 232.947 47.3724 232.947 48.3239C232.947 49.2754 233.202 50.039 233.708 50.6178C234.214 51.1966 234.878 51.4875 235.694 51.4875C236.564 51.4875 237.253 51.2118 237.756 50.6602C238.259 50.1087 238.508 49.336 238.508 48.3421C238.508 47.3239 238.265 46.536 237.777 45.9814C237.289 45.4239 236.619 45.1451 235.761 45.1451Z" fill="#00B7E1"/>
</g>
<defs>
<clipPath id="clip0_20_45">
<rect width="245" height="60" fill="white"/>
</clipPath>
</defs>
</svg>
