<svg width="808" height="198" viewBox="0 0 808 198" fill="none" xmlns="http://www.w3.org/2000/svg">
<path d="M140.97 0C119.27 0 101.68 17.59 101.68 39.29V73.9V143.28V177.89C101.68 188.74 110.47 197.53 121.32 197.53C132.17 197.53 140.96 188.74 140.96 177.89V143.28V73.89L140.97 0Z" fill="#1179A2"/>
<path d="M51.9798 65.8898C50.8898 68.3398 50.2598 71.0398 50.2598 73.8898V77.3698V177.88V181.36H50.5898C52.2398 190.54 60.2498 197.52 69.9098 197.52C79.5698 197.52 87.5798 190.54 89.2298 181.36H89.5498V177.88V73.8898V38.0898C71.8498 38.0898 56.8898 49.7998 51.9798 65.8898Z" fill="#293965"/>
<path d="M0 118.96V145.54V177.89V181.37H0.330002C1.98 190.55 9.99001 197.53 19.65 197.53C29.31 197.53 37.32 190.55 38.97 181.37H39.3V177.89V145.54V79.6797C17.59 79.6697 0 97.2597 0 118.96Z" fill="#00B7E1"/>
<path d="M202.77 82.1594H185.98V130.239H172.68V82.1594H155.97V71.3594H202.78V82.1594H202.77Z" fill="#293965"/>
<path d="M261.65 130.249H248.35V106.269H223.96V130.249H210.7V71.3691H223.96V94.8591H248.35V71.3691H261.65V130.249Z" fill="#293965"/>
<path d="M310.43 130.249H275.12V71.3691H309.08V82.1691H288.39V95.2691H307.65V106.029H288.39V119.499H310.44V130.249H310.43Z" fill="#293965"/>
<path d="M410.16 130.249H397.06V95.0194C397.06 91.2194 397.22 87.0094 397.55 82.4094H397.22C396.54 86.0194 395.92 88.6194 395.37 90.2094L381.57 130.249H370.73L356.7 90.6194C356.32 89.5494 355.7 86.8194 354.85 82.4094H354.48C354.84 88.2094 355.01 93.3094 355.01 97.6794V130.239H343.06V71.3594H362.48L374.51 106.259C375.47 109.049 376.17 111.859 376.6 114.679H376.85C377.59 111.419 378.37 108.589 379.19 106.179L391.22 71.3594H410.15V130.249H410.16Z" fill="#293965"/>
<path d="M458.86 130.249H423.55V71.3691H457.51V82.1691H436.82V95.2691H456.08V106.029H436.82V119.499H458.87V130.249H458.86Z" fill="#293965"/>
<path d="M517.7 130.249H502.47L493.31 115.099C492.62 113.949 491.97 112.919 491.34 112.019C490.71 111.119 490.07 110.339 489.43 109.699C488.79 109.059 488.12 108.559 487.42 108.219C486.72 107.879 485.96 107.709 485.14 107.709H481.57V130.249H468.3V71.3691H489.32C503.61 71.3691 510.75 76.7092 510.75 87.3792C510.75 89.4291 510.43 91.3292 509.81 93.0692C509.18 94.8092 508.29 96.3691 507.14 97.7691C505.99 99.1691 504.6 100.369 502.97 101.379C501.34 102.389 499.53 103.189 497.53 103.759V103.919C498.41 104.199 499.25 104.639 500.08 105.259C500.9 105.869 501.7 106.589 502.46 107.419C503.23 108.239 503.96 109.119 504.66 110.069C505.36 111.019 505.99 111.939 506.57 112.839L517.7 130.249ZM481.57 81.2991V97.6791H487.32C490.17 97.6791 492.45 96.8591 494.18 95.2191C495.93 93.5491 496.81 91.4791 496.81 89.0191C496.81 83.8691 493.73 81.2991 487.57 81.2991H481.57Z" fill="#293965"/>
<path d="M565.41 128.149C561.11 130.229 555.5 131.269 548.58 131.269C539.55 131.269 532.44 128.619 527.27 123.299C522.1 117.989 519.51 110.919 519.51 102.069C519.51 92.6492 522.42 85.0191 528.23 79.1591C534.05 73.2991 541.6 70.3691 550.88 70.3691C556.63 70.3691 561.47 71.0991 565.42 72.5491V85.3192C561.48 82.9692 556.99 81.7892 551.95 81.7892C546.42 81.7892 541.96 83.5291 538.56 86.9991C535.16 90.4791 533.47 95.1891 533.47 101.119C533.47 106.819 535.07 111.349 538.27 114.729C541.47 118.109 545.79 119.799 551.21 119.799C556.38 119.799 561.12 118.539 565.42 116.019V128.149H565.41Z" fill="#293965"/>
<path d="M626.63 130.249H613.33V106.269H588.94V130.249H575.68V71.3691H588.94V94.8591H613.33V71.3691H626.63V130.249Z" fill="#293965"/>
<path d="M691.879 130.249H677.429L673.239 117.149H652.299L648.149 130.249H633.779L655.209 71.3691H670.939L691.879 130.249ZM670.199 106.959L663.879 87.1691C663.409 85.6891 663.089 83.9291 662.889 81.8691H662.559C662.419 83.5891 662.079 85.3091 661.529 86.9991L655.119 106.959H670.199Z" fill="#293965"/>
<path d="M752.199 130.249H738.809L714.539 93.2491C713.119 91.0891 712.129 89.4591 711.579 88.3591H711.419C711.639 90.4391 711.749 93.6191 711.749 97.8891V130.249H699.229V71.3691H713.519L736.879 107.209C737.949 108.829 738.929 110.429 739.839 112.019H739.999C739.779 110.649 739.669 107.949 739.669 103.929V71.3691H752.189V130.249H752.199Z" fill="#293965"/>
<path d="M807.02 82.1594H790.23V130.239H776.93V82.1594H760.22V71.3594H807.03V82.1594H807.02Z" fill="#293965"/>
<path d="M186.74 149.409H176.51V158.219H185.97V160.899H176.51V172.179H173.44V146.719H186.74V149.409Z" fill="#1179A2"/>
<path d="M202.269 172.599C198.549 172.599 195.579 171.409 193.349 169.029C191.109 166.649 189.999 163.559 189.999 159.739C189.999 155.649 191.139 152.379 193.419 149.939C195.699 147.499 198.799 146.279 202.719 146.279C206.339 146.279 209.249 147.459 211.459 149.829C213.669 152.199 214.779 155.289 214.779 159.119C214.779 163.269 213.649 166.559 211.379 168.969C209.099 171.389 206.069 172.599 202.269 172.599ZM202.489 148.979C199.739 148.979 197.499 149.949 195.779 151.869C194.059 153.799 193.199 156.329 193.199 159.469C193.199 162.609 194.039 165.129 195.709 167.039C197.379 168.949 199.569 169.909 202.259 169.909C205.129 169.909 207.399 168.999 209.059 167.179C210.719 165.359 211.539 162.809 211.539 159.529C211.539 156.169 210.739 153.569 209.129 151.739C207.529 149.899 205.309 148.979 202.489 148.979Z" fill="#1179A2"/>
<path d="M235.739 172.169H232.089L227.699 165.029C227.299 164.369 226.909 163.799 226.529 163.329C226.149 162.859 225.769 162.479 225.369 162.179C224.969 161.879 224.549 161.669 224.089 161.529C223.629 161.389 223.119 161.329 222.549 161.329H220.029V172.159H216.959V146.699H224.779C225.929 146.699 226.979 146.839 227.949 147.119C228.919 147.399 229.759 147.819 230.469 148.389C231.179 148.959 231.739 149.669 232.139 150.509C232.539 151.359 232.739 152.349 232.739 153.479C232.739 154.369 232.599 155.179 232.329 155.919C232.059 156.659 231.669 157.319 231.159 157.899C230.659 158.479 230.049 158.969 229.329 159.379C228.619 159.789 227.819 160.109 226.929 160.329V160.399C227.369 160.589 227.749 160.809 228.069 161.049C228.389 161.289 228.699 161.579 228.989 161.909C229.279 162.239 229.569 162.619 229.859 163.039C230.149 163.459 230.469 163.949 230.819 164.499L235.739 172.169ZM220.029 149.409V158.639H224.199C224.969 158.639 225.679 158.529 226.329 158.299C226.979 158.079 227.549 157.749 228.019 157.329C228.489 156.909 228.869 156.399 229.139 155.789C229.409 155.179 229.539 154.499 229.539 153.739C229.539 152.379 229.089 151.319 228.179 150.549C227.269 149.789 225.959 149.399 224.239 149.399H220.029V149.409Z" fill="#1179A2"/>
<path d="M253.219 172.169H239.329V146.709H252.629V149.409H242.399V157.879H251.859V160.559H242.399V169.469H253.219V172.169Z" fill="#1179A2"/>
<path d="M276.35 172.169H272.6L266.57 162.419C266.39 162.119 266.19 161.699 265.97 161.159H265.9C265.78 161.429 265.57 161.849 265.28 162.419L259.07 172.169H255.31L264.08 159.369L256.01 146.709H259.77L265.12 155.659C265.47 156.249 265.78 156.839 266.05 157.439H266.12C266.51 156.659 266.85 156.039 267.14 155.589L272.71 146.709H276.24L268 159.329L276.35 172.169Z" fill="#1179A2"/>
<path d="M320.58 172.579C319.89 172.579 319.27 172.489 318.74 172.299C318.21 172.119 317.72 171.859 317.27 171.519C316.82 171.179 316.38 170.769 315.96 170.289C315.54 169.809 315.1 169.249 314.64 168.639C314.15 169.149 313.59 169.639 312.95 170.109C312.31 170.579 311.6 170.999 310.82 171.369C310.04 171.739 309.19 172.029 308.26 172.249C307.33 172.469 306.33 172.579 305.25 172.579C303.93 172.579 302.73 172.419 301.63 172.099C300.53 171.779 299.6 171.309 298.82 170.689C298.04 170.069 297.43 169.299 297 168.389C296.57 167.479 296.35 166.429 296.35 165.249C296.35 163.439 296.88 161.889 297.94 160.609C299 159.329 300.5 158.279 302.43 157.459C302.06 157.199 301.7 156.899 301.33 156.549C300.96 156.199 300.64 155.799 300.35 155.359C300.06 154.919 299.83 154.429 299.66 153.889C299.48 153.349 299.39 152.759 299.39 152.119C299.39 151.189 299.56 150.359 299.91 149.629C300.26 148.909 300.73 148.299 301.34 147.799C301.95 147.299 302.67 146.929 303.5 146.669C304.33 146.419 305.22 146.289 306.19 146.289C307.14 146.289 308.01 146.419 308.79 146.669C309.58 146.929 310.25 147.289 310.82 147.759C311.39 148.229 311.83 148.799 312.15 149.459C312.47 150.119 312.62 150.859 312.62 151.679C312.62 153.099 312.2 154.279 311.37 155.219C310.54 156.159 309.28 156.959 307.62 157.629C308.46 157.949 309.22 158.339 309.9 158.799C310.58 159.259 311.21 159.779 311.79 160.339C312.37 160.909 312.91 161.519 313.41 162.169C313.91 162.819 314.4 163.499 314.89 164.189C315.88 162.849 316.62 161.379 317.12 159.769C317.62 158.159 317.87 156.469 317.87 154.709C317.87 154.259 317.84 153.839 317.79 153.439C317.73 153.039 317.66 152.649 317.56 152.259H320.47C320.57 152.649 320.63 153.019 320.64 153.369C320.66 153.719 320.68 154.139 320.7 154.619C320.7 155.699 320.58 156.779 320.35 157.869C320.12 158.959 319.81 160.019 319.42 161.039C319.03 162.059 318.58 163.039 318.06 163.959C317.54 164.879 317 165.729 316.42 166.499C316.85 167.069 317.24 167.559 317.59 167.979C317.94 168.399 318.3 168.749 318.66 169.039C319.02 169.329 319.39 169.529 319.77 169.669C320.15 169.809 320.59 169.869 321.08 169.869C321.45 169.869 321.82 169.819 322.2 169.729C322.58 169.639 322.97 169.519 323.37 169.369V172.069C322.93 172.239 322.47 172.359 321.99 172.439C321.51 172.539 321.04 172.579 320.58 172.579ZM305.25 170.059C306.18 170.059 307.03 169.959 307.81 169.769C308.59 169.569 309.31 169.319 309.97 168.989C310.63 168.659 311.23 168.289 311.76 167.849C312.29 167.419 312.78 166.969 313.22 166.489C312.48 165.369 311.79 164.399 311.16 163.599C310.53 162.799 309.9 162.109 309.26 161.529C308.62 160.949 307.94 160.449 307.21 160.039C306.48 159.629 305.65 159.239 304.7 158.889C303.93 159.189 303.23 159.509 302.58 159.879C301.93 160.239 301.38 160.669 300.91 161.159C300.44 161.649 300.07 162.219 299.8 162.869C299.53 163.519 299.4 164.279 299.4 165.159C299.4 165.969 299.55 166.679 299.86 167.289C300.16 167.909 300.58 168.419 301.11 168.829C301.64 169.239 302.26 169.549 302.96 169.749C303.67 169.959 304.43 170.059 305.25 170.059ZM309.82 151.929C309.82 151.339 309.71 150.839 309.48 150.419C309.25 150.009 308.97 149.659 308.62 149.389C308.27 149.119 307.89 148.919 307.46 148.799C307.03 148.679 306.61 148.609 306.2 148.609C305.01 148.609 304.05 148.919 303.34 149.549C302.63 150.179 302.27 151.029 302.25 152.109C302.25 152.599 302.33 153.049 302.48 153.479C302.63 153.909 302.85 154.299 303.12 154.669C303.39 155.039 303.71 155.359 304.08 155.649C304.45 155.939 304.83 156.179 305.25 156.379C306.78 155.859 307.93 155.249 308.68 154.559C309.44 153.859 309.82 152.989 309.82 151.929Z" fill="#293965"/>
<path d="M362.909 171.109C360.969 172.099 358.559 172.599 355.679 172.599C351.949 172.599 348.969 171.429 346.729 169.099C344.489 166.769 343.369 163.709 343.369 159.919C343.369 155.849 344.629 152.559 347.149 150.049C349.669 147.539 352.869 146.289 356.739 146.289C359.219 146.289 361.279 146.639 362.909 147.339V150.519C361.029 149.499 358.959 148.989 356.699 148.989C353.689 148.989 351.249 149.969 349.379 151.919C347.509 153.869 346.579 156.479 346.579 159.749C346.579 162.849 347.449 165.319 349.199 167.159C350.949 168.999 353.239 169.919 356.079 169.919C358.709 169.919 360.989 169.349 362.909 168.219V171.109Z" fill="#293965"/>
<path d="M378.799 172.599C375.079 172.599 372.109 171.409 369.879 169.029C367.639 166.649 366.529 163.559 366.529 159.739C366.529 155.649 367.669 152.379 369.949 149.939C372.229 147.499 375.329 146.279 379.249 146.279C382.869 146.279 385.779 147.459 387.989 149.829C390.199 152.199 391.309 155.289 391.309 159.119C391.309 163.269 390.179 166.559 387.909 168.969C385.639 171.389 382.599 172.599 378.799 172.599ZM379.019 148.979C376.269 148.979 374.029 149.949 372.309 151.869C370.589 153.799 369.729 156.329 369.729 159.469C369.729 162.609 370.569 165.129 372.239 167.039C373.909 168.949 376.099 169.909 378.789 169.909C381.659 169.909 383.929 168.999 385.589 167.179C387.249 165.359 388.069 162.809 388.069 159.529C388.069 156.169 387.269 153.569 385.659 151.739C384.069 149.899 381.849 148.979 379.019 148.979Z" fill="#293965"/>
<path d="M423.159 172.169H420.109V155.089C420.109 153.739 420.199 152.089 420.369 150.139H420.299C420.009 151.289 419.749 152.109 419.509 152.609L410.559 172.179H409.059L400.129 152.749C399.869 152.179 399.609 151.309 399.339 150.139H399.269C399.369 151.159 399.419 152.819 399.419 155.129V172.179H396.459V146.719H400.519L408.559 164.479C409.179 165.839 409.579 166.859 409.769 167.529H409.879C410.399 166.129 410.829 165.089 411.139 164.399L419.339 146.719H423.179V172.169H423.159Z" fill="#293965"/>
<path d="M456.759 172.169H453.709V155.089C453.709 153.739 453.799 152.089 453.969 150.139H453.899C453.609 151.289 453.349 152.109 453.109 152.609L444.159 172.179H442.659L433.729 152.749C433.469 152.179 433.209 151.309 432.939 150.139H432.869C432.969 151.159 433.019 152.819 433.019 155.129V172.179H430.059V146.719H434.119L442.159 164.479C442.779 165.839 443.179 166.859 443.369 167.529H443.479C443.999 166.129 444.429 165.089 444.739 164.399L452.939 146.719H456.779V172.169H456.759Z" fill="#293965"/>
<path d="M474.21 172.599C470.49 172.599 467.52 171.409 465.29 169.029C463.06 166.649 461.94 163.559 461.94 159.739C461.94 155.649 463.08 152.379 465.36 149.939C467.64 147.499 470.74 146.279 474.66 146.279C478.28 146.279 481.19 147.459 483.4 149.829C485.61 152.199 486.72 155.289 486.72 159.119C486.72 163.269 485.59 166.559 483.32 168.969C481.04 171.389 478.01 172.599 474.21 172.599ZM474.43 148.979C471.68 148.979 469.44 149.949 467.72 151.869C466 153.799 465.14 156.329 465.14 159.469C465.14 162.609 465.98 165.129 467.65 167.039C469.33 168.949 471.51 169.909 474.2 169.909C477.07 169.909 479.34 168.999 481 167.179C482.66 165.359 483.49 162.809 483.49 159.529C483.49 156.169 482.69 153.569 481.08 151.739C479.47 149.899 477.26 148.979 474.43 148.979Z" fill="#293965"/>
<path d="M491.859 172.169V146.709H499.099C508.329 146.709 512.949 150.849 512.949 159.119C512.949 163.049 511.669 166.209 509.099 168.589C506.539 170.979 503.109 172.169 498.809 172.169H491.859ZM494.929 149.409V169.469H498.839C502.279 169.469 504.949 168.579 506.859 166.789C508.769 164.999 509.729 162.469 509.729 159.189C509.729 152.669 506.159 149.409 499.029 149.409H494.929Z" fill="#293965"/>
<path d="M523.719 146.709V149.269H521.159V169.619H523.719V172.179H515.529V169.619H518.089V149.269H515.529V146.709H523.719Z" fill="#293965"/>
<path d="M543.539 149.409H535.979V172.169H532.909V149.409H525.369V146.709H543.549V149.409H543.539Z" fill="#293965"/>
<path d="M553.279 146.709V149.269H550.719V169.619H553.279V172.179H545.089V169.619H547.649V149.269H545.089V146.709H553.279Z" fill="#293965"/>
<path d="M571.499 172.169H557.609V146.709H570.909V149.409H560.679V157.879H570.139V160.559H560.679V169.469H571.499V172.169Z" fill="#293965"/>
<path d="M575.319 171.14V167.62C575.729 167.98 576.229 168.29 576.809 168.58C577.389 168.86 577.999 169.1 578.639 169.3C579.279 169.5 579.919 169.65 580.569 169.75C581.219 169.85 581.809 169.91 582.359 169.91C584.249 169.91 585.659 169.57 586.589 168.89C587.519 168.21 587.989 167.23 587.989 165.95C587.989 165.26 587.829 164.67 587.519 164.16C587.209 163.65 586.779 163.19 586.229 162.77C585.679 162.35 585.029 161.95 584.279 161.56C583.529 161.18 582.719 160.77 581.859 160.34C580.949 159.89 580.089 159.43 579.299 158.97C578.509 158.51 577.819 158 577.239 157.44C576.659 156.88 576.189 156.25 575.859 155.55C575.519 154.85 575.359 154.02 575.359 153.07C575.359 151.91 575.619 150.9 576.149 150.04C576.669 149.18 577.359 148.48 578.209 147.92C579.059 147.36 580.029 146.95 581.119 146.68C582.209 146.41 583.319 146.27 584.459 146.27C587.039 146.27 588.919 146.57 590.099 147.18V150.54C588.549 149.5 586.569 148.98 584.149 148.98C583.479 148.98 582.809 149.05 582.139 149.18C581.469 149.32 580.869 149.54 580.349 149.85C579.829 150.16 579.399 150.55 579.069 151.04C578.739 151.53 578.579 152.12 578.579 152.82C578.579 153.47 578.699 154.03 578.959 154.51C579.209 154.98 579.579 155.42 580.069 155.81C580.559 156.2 581.149 156.58 581.849 156.95C582.549 157.32 583.359 157.72 584.269 158.16C585.209 158.61 586.099 159.08 586.939 159.58C587.779 160.08 588.519 160.63 589.149 161.23C589.779 161.83 590.289 162.5 590.659 163.24C591.029 163.97 591.219 164.81 591.219 165.76C591.219 167.02 590.969 168.08 590.459 168.95C589.959 169.82 589.269 170.53 588.409 171.07C587.549 171.61 586.559 172.01 585.439 172.25C584.319 172.49 583.139 172.61 581.899 172.61C581.479 172.61 580.969 172.58 580.359 172.51C579.749 172.44 579.129 172.35 578.499 172.23C577.869 172.11 577.269 171.95 576.699 171.77C576.109 171.57 575.659 171.37 575.319 171.14Z" fill="#293965"/>
<path d="M635.46 172.579C634.77 172.579 634.15 172.489 633.62 172.299C633.09 172.109 632.6 171.859 632.15 171.519C631.7 171.179 631.26 170.769 630.84 170.289C630.42 169.809 629.98 169.249 629.51 168.639C629.02 169.149 628.46 169.639 627.82 170.109C627.18 170.579 626.47 170.999 625.69 171.369C624.91 171.739 624.06 172.029 623.13 172.249C622.2 172.469 621.2 172.579 620.12 172.579C618.8 172.579 617.6 172.419 616.5 172.099C615.4 171.779 614.47 171.309 613.69 170.689C612.91 170.069 612.3 169.299 611.87 168.389C611.44 167.479 611.22 166.429 611.22 165.249C611.22 163.439 611.75 161.889 612.81 160.609C613.87 159.329 615.37 158.279 617.3 157.459C616.94 157.199 616.57 156.899 616.21 156.549C615.84 156.199 615.52 155.799 615.23 155.359C614.94 154.919 614.71 154.429 614.54 153.889C614.36 153.349 614.28 152.759 614.28 152.119C614.28 151.189 614.45 150.359 614.8 149.629C615.15 148.909 615.62 148.299 616.23 147.799C616.84 147.299 617.56 146.929 618.39 146.669C619.22 146.419 620.11 146.289 621.08 146.289C622.03 146.289 622.9 146.419 623.68 146.669C624.47 146.929 625.14 147.289 625.71 147.759C626.28 148.229 626.72 148.799 627.04 149.459C627.36 150.119 627.51 150.859 627.51 151.679C627.51 153.099 627.09 154.279 626.26 155.219C625.43 156.159 624.17 156.959 622.5 157.629C623.34 157.949 624.1 158.339 624.78 158.799C625.46 159.259 626.09 159.779 626.67 160.339C627.25 160.899 627.79 161.519 628.29 162.169C628.79 162.819 629.28 163.499 629.77 164.189C630.76 162.849 631.5 161.379 632 159.769C632.5 158.159 632.75 156.469 632.75 154.709C632.75 154.259 632.72 153.839 632.67 153.439C632.61 153.039 632.54 152.649 632.44 152.259H635.35C635.45 152.649 635.51 153.019 635.52 153.369C635.54 153.719 635.56 154.139 635.58 154.619C635.58 155.699 635.46 156.779 635.23 157.869C635 158.959 634.69 160.019 634.3 161.039C633.91 162.059 633.46 163.039 632.94 163.959C632.42 164.879 631.88 165.729 631.3 166.499C631.73 167.069 632.11 167.559 632.47 167.979C632.82 168.399 633.18 168.749 633.54 169.039C633.9 169.329 634.27 169.529 634.65 169.669C635.03 169.809 635.47 169.869 635.96 169.869C636.33 169.869 636.7 169.819 637.07 169.729C637.45 169.639 637.84 169.519 638.24 169.369V172.069C637.8 172.239 637.34 172.359 636.86 172.439C636.4 172.539 635.93 172.579 635.46 172.579ZM620.13 170.059C621.06 170.059 621.91 169.959 622.69 169.769C623.47 169.569 624.19 169.319 624.85 168.989C625.51 168.659 626.1 168.289 626.64 167.849C627.17 167.419 627.66 166.969 628.1 166.489C627.36 165.369 626.67 164.399 626.04 163.599C625.41 162.799 624.78 162.109 624.14 161.529C623.5 160.949 622.82 160.449 622.09 160.039C621.36 159.629 620.53 159.239 619.58 158.889C618.81 159.189 618.11 159.509 617.46 159.879C616.81 160.239 616.26 160.669 615.79 161.159C615.32 161.649 614.95 162.219 614.68 162.869C614.41 163.519 614.28 164.279 614.28 165.159C614.28 165.969 614.43 166.679 614.74 167.289C615.04 167.909 615.46 168.419 615.99 168.829C616.52 169.239 617.14 169.549 617.84 169.749C618.56 169.959 619.32 170.059 620.13 170.059ZM624.7 151.929C624.7 151.339 624.59 150.839 624.36 150.419C624.13 150.009 623.85 149.659 623.5 149.389C623.15 149.119 622.77 148.919 622.34 148.799C621.91 148.679 621.49 148.609 621.08 148.609C619.89 148.609 618.93 148.919 618.22 149.549C617.51 150.179 617.15 151.029 617.13 152.109C617.13 152.599 617.21 153.049 617.36 153.479C617.51 153.909 617.73 154.299 618 154.669C618.28 155.039 618.59 155.359 618.96 155.649C619.33 155.929 619.71 156.179 620.13 156.379C621.67 155.859 622.81 155.249 623.57 154.559C624.32 153.859 624.7 152.989 624.7 151.929Z" fill="#293965"/>
<path d="M677.79 171.109C675.85 172.099 673.44 172.599 670.55 172.599C666.82 172.599 663.84 171.429 661.6 169.099C659.36 166.769 658.24 163.709 658.24 159.919C658.24 155.849 659.5 152.559 662.02 150.049C664.54 147.539 667.74 146.289 671.61 146.289C674.09 146.289 676.15 146.639 677.78 147.339V150.519C675.9 149.499 673.83 148.989 671.57 148.989C668.56 148.989 666.12 149.969 664.25 151.919C662.38 153.869 661.45 156.479 661.45 159.749C661.45 162.849 662.32 165.319 664.07 167.159C665.82 168.999 668.11 169.919 670.95 169.919C673.58 169.919 675.86 169.349 677.78 168.219V171.109H677.79Z" fill="#00B7E1"/>
<path d="M701.911 172.169H698.261L693.871 165.029C693.471 164.369 693.081 163.799 692.701 163.329C692.321 162.859 691.931 162.479 691.541 162.179C691.141 161.879 690.721 161.669 690.261 161.529C689.801 161.389 689.291 161.329 688.721 161.329H686.201V172.159H683.131V146.699H690.951C692.101 146.699 693.151 146.839 694.121 147.119C695.091 147.399 695.931 147.819 696.641 148.389C697.351 148.959 697.911 149.669 698.311 150.509C698.711 151.359 698.911 152.349 698.911 153.479C698.911 154.369 698.771 155.179 698.501 155.919C698.231 156.659 697.841 157.319 697.331 157.899C696.831 158.479 696.221 158.969 695.501 159.379C694.781 159.789 693.991 160.109 693.101 160.329V160.399C693.541 160.589 693.921 160.809 694.241 161.049C694.561 161.289 694.871 161.579 695.161 161.909C695.451 162.239 695.741 162.619 696.031 163.039C696.321 163.459 696.641 163.949 696.991 164.499L701.911 172.169ZM686.201 149.409V158.639H690.371C691.141 158.639 691.851 158.529 692.501 158.299C693.151 158.079 693.711 157.749 694.191 157.329C694.661 156.909 695.041 156.399 695.311 155.789C695.581 155.179 695.711 154.499 695.711 153.739C695.711 152.379 695.251 151.319 694.351 150.549C693.441 149.789 692.131 149.399 690.411 149.399H686.201V149.409Z" fill="#00B7E1"/>
<path d="M722.54 146.709L713.9 162.759V172.169H710.83V162.829L702.41 146.709H705.9L711.77 158.219C711.84 158.359 712.05 158.879 712.41 159.779H712.46C712.58 159.379 712.81 158.859 713.15 158.219L719.29 146.709H722.54Z" fill="#00B7E1"/>
<path d="M729.26 162.549V172.169H726.19V146.709H733.391C736.191 146.709 738.361 147.369 739.901 148.699C741.441 150.029 742.211 151.899 742.211 154.309C742.211 156.719 741.361 158.699 739.641 160.239C737.931 161.779 735.621 162.549 732.711 162.549H729.26ZM729.26 149.409V159.849H732.48C734.6 159.849 736.221 159.379 737.331 158.439C738.451 157.499 739 156.169 739 154.449C739 151.089 736.95 149.409 732.86 149.409H729.26Z" fill="#00B7E1"/>
<path d="M762.641 149.409H755.081V172.169H752.011V149.409H744.461V146.709H762.641V149.409Z" fill="#00B7E1"/>
<path d="M777.311 172.599C773.591 172.599 770.621 171.409 768.391 169.029C766.151 166.649 765.041 163.559 765.041 159.739C765.041 155.649 766.181 152.379 768.461 149.939C770.741 147.499 773.841 146.279 777.761 146.279C781.381 146.279 784.291 147.459 786.501 149.829C788.711 152.199 789.821 155.289 789.821 159.119C789.821 163.269 788.691 166.559 786.421 168.969C784.141 171.389 781.111 172.599 777.311 172.599ZM777.531 148.979C774.781 148.979 772.541 149.949 770.821 151.869C769.101 153.799 768.251 156.329 768.251 159.469C768.251 162.609 769.091 165.129 770.761 167.039C772.431 168.949 774.621 169.909 777.311 169.909C780.181 169.909 782.451 168.999 784.111 167.179C785.771 165.359 786.591 162.809 786.591 159.529C786.591 156.169 785.791 153.569 784.181 151.739C782.571 149.899 780.361 148.979 777.531 148.979Z" fill="#00B7E1"/>
</svg>
