<svg width="46" height="64" viewBox="0 0 46 64" fill="none" xmlns="http://www.w3.org/2000/svg">
<path d="M45.6753 0C38.6445 0 32.9453 5.69919 32.9453 12.73V23.9437V46.4229V57.6366C32.9453 61.152 35.7933 64 39.3087 64C42.8241 64 45.6721 61.152 45.6721 57.6366V46.4229V23.9405L45.6753 0Z" fill="#1179A2"/>
<path d="M16.8424 21.349C16.4893 22.1428 16.2852 23.0176 16.2852 23.941V25.0686V57.634V58.7615H16.3921C16.9267 61.7358 19.5219 63.9973 22.6518 63.9973C25.7816 63.9973 28.3769 61.7358 28.9115 58.7615H29.0152V57.634V23.941V12.3418C23.2803 12.3418 18.4333 16.1358 16.8424 21.349Z" fill="#293965"/>
<path d="M0 38.5432V47.1551V57.6366V58.7641H0.106921C0.641523 61.7384 3.23678 64 6.36663 64C9.49648 64 12.0917 61.7384 12.6263 58.7641H12.7333V57.6366V47.1551V25.8164C5.69919 25.8132 0 31.5124 0 38.5432Z" fill="#00B7E1"/>
</svg>
