<svg width="700" height="583" viewBox="0 0 700 583" fill="none" xmlns="http://www.w3.org/2000/svg">
<path d="M151.605 282.886C144.197 292.846 134.001 300.385 122.308 304.55C110.616 308.716 97.95 309.321 85.9134 306.288C73.8768 303.256 63.0096 296.722 54.6861 287.514C46.3626 278.305 40.9566 266.835 39.1516 254.555C37.3465 242.274 39.2236 229.734 44.5454 218.52C49.8672 207.306 58.3948 197.921 69.0498 191.554C79.7048 185.186 92.0087 182.121 104.406 182.746C116.803 183.37 128.736 187.657 138.697 195.064L138.823 195.162C152.149 205.101 160.982 219.926 163.379 236.377C165.776 252.828 161.541 269.557 151.605 282.886Z" fill="#EBEBEB"/>
<path d="M139.65 273.94C134.011 281.534 126.247 287.286 117.339 290.467C108.431 293.649 98.7803 294.117 89.6063 291.813C80.4324 289.51 72.1476 284.537 65.7996 277.525C59.4516 270.513 55.3255 261.776 53.9432 252.419C52.5609 243.061 53.9843 233.504 58.0336 224.956C62.0828 216.408 68.576 209.253 76.692 204.395C84.808 199.537 94.1822 197.195 103.629 197.665C113.076 198.134 122.172 201.395 129.766 207.034H129.85C140.012 214.598 146.753 225.889 148.591 238.423C150.429 250.957 147.213 263.708 139.65 273.87V273.94Z" fill="#F5F5F5"/>
<path d="M140.533 272.736C140.295 272.568 141.387 270.776 142.969 267.374C145.194 262.619 146.663 257.546 147.323 252.338C148.299 244.659 147.381 236.858 144.649 229.616C143.03 225.392 140.829 221.415 138.111 217.8C136.667 215.895 135.076 214.107 133.351 212.452C129.803 209.031 125.734 206.195 121.297 204.052C117.062 201.988 112.54 200.572 107.885 199.852C105.693 199.514 103.48 199.336 101.263 199.32C97.1504 199.266 93.048 199.737 89.0547 200.72C85.5758 201.621 82.2053 202.898 79.0027 204.528C74.3469 206.938 70.0958 210.061 66.4027 213.782C63.7567 216.428 62.4407 218.08 62.2027 217.982C61.9647 217.884 62.9447 215.924 65.3387 212.9C68.7984 208.657 73.0193 205.096 77.7847 202.4C83.4815 199.149 89.7789 197.088 96.2956 196.342C102.812 195.596 109.413 196.18 115.697 198.06C118.17 198.802 120.581 199.738 122.907 200.86C125.298 202.021 127.596 203.364 129.781 204.878C131.949 206.416 133.999 208.115 135.913 209.96C137.762 211.764 139.466 213.712 141.009 215.784C144.911 221.035 147.711 227.021 149.241 233.382C150.772 239.744 151 246.348 149.913 252.8C149.015 258.213 147.116 263.412 144.313 268.13C142.213 271.336 140.715 272.862 140.533 272.736Z" fill="#E0E0E0"/>
<path d="M88.5931 271.405L83.7071 278.139L77.6871 273.799L82.4471 267.247C76.7491 262.557 72.3811 256.551 70.9531 251.553L79.5911 246.611C81.2954 251.532 84.2534 255.923 88.1731 259.351L95.4671 249.299C89.9511 242.831 84.0991 235.187 90.3431 226.577C94.9771 220.193 103.587 218.079 113.891 223.889L118.735 217.211L124.755 221.579L119.995 228.131C124.137 231.513 127.414 235.832 129.557 240.731L121.157 245.953C119.501 242.252 117.121 238.919 114.157 236.153L106.737 246.387C112.337 252.799 118.021 260.387 111.861 268.787C107.395 275.017 98.8831 277.117 88.5931 271.405ZM101.879 240.423L108.081 231.869C104.371 230.273 101.837 231.113 100.395 233.101C98.9531 235.089 99.8351 237.651 101.879 240.423ZM101.711 262.445C103.237 260.331 102.327 257.923 100.395 255.137L94.3611 263.453C97.8611 264.979 100.311 264.363 101.711 262.445Z" fill="#E0E0E0"/>
<path d="M528.471 461.147C522.043 469.79 513.196 476.332 503.05 479.947C492.904 483.562 481.913 484.087 471.469 481.456C461.024 478.824 451.594 473.155 444.371 465.165C437.149 457.174 432.458 447.221 430.891 436.565C429.325 425.908 430.954 415.027 435.572 405.296C440.19 395.565 447.59 387.422 456.836 381.897C466.082 376.372 476.758 373.712 487.516 374.255C498.273 374.797 508.628 378.517 517.271 384.945L517.383 385.029C528.944 393.654 536.607 406.518 538.686 420.792C540.766 435.066 537.091 449.582 528.471 461.147Z" fill="#EBEBEB"/>
<path d="M518.095 453.391C513.193 459.973 506.449 464.953 498.716 467.702C490.984 470.451 482.609 470.846 474.653 468.835C466.696 466.825 459.514 462.501 454.015 456.409C448.515 450.318 444.946 442.732 443.758 434.612C442.569 426.492 443.816 418.201 447.339 410.789C450.862 403.377 456.504 397.176 463.551 392.971C470.598 388.765 478.734 386.743 486.93 387.161C495.126 387.579 503.014 390.418 509.597 395.319H509.667C514.038 398.576 517.723 402.662 520.513 407.345C523.303 412.027 525.142 417.214 525.924 422.607C526.707 428.001 526.419 433.497 525.075 438.779C523.732 444.061 521.36 449.027 518.095 453.391Z" fill="#F5F5F5"/>
<path d="M518.869 452.341C518.659 452.187 519.611 450.633 520.969 447.679C522.901 443.553 524.176 439.15 524.749 434.631C525.13 431.536 525.167 428.409 524.861 425.307C524.501 421.753 523.682 418.262 522.425 414.919C521.758 413.114 520.953 411.364 520.017 409.683C519.064 407.92 517.973 406.235 516.755 404.643C515.5 402.99 514.119 401.436 512.625 399.995C511.072 398.527 509.421 397.166 507.683 395.921C505.925 394.707 504.082 393.622 502.167 392.673C498.495 390.883 494.572 389.661 490.533 389.047C488.629 388.753 486.706 388.598 484.779 388.585C478.066 388.503 471.435 390.075 465.473 393.163C461.427 395.255 457.729 397.961 454.511 401.185C452.215 403.481 451.067 404.909 450.871 404.755C450.675 404.601 451.515 402.977 453.587 400.359C456.587 396.655 460.253 393.545 464.395 391.189C467.263 389.537 470.318 388.235 473.495 387.311C477.165 386.251 480.961 385.696 484.779 385.659C486.844 385.628 488.909 385.759 490.953 386.051C493.096 386.349 495.212 386.817 497.281 387.451C503.877 389.422 509.896 392.962 514.823 397.769C516.423 399.34 517.902 401.029 519.247 402.823C520.54 404.552 521.692 406.383 522.691 408.297C523.661 410.098 524.494 411.97 525.183 413.897C526.454 417.509 527.231 421.276 527.493 425.097C527.713 428.4 527.54 431.718 526.975 434.981C526.179 439.681 524.512 444.192 522.061 448.281C520.311 451.123 519.009 452.439 518.869 452.341Z" fill="#E0E0E0"/>
<path d="M473.801 451.179L469.601 457.031L464.365 453.237L468.495 447.539C463.553 443.479 459.773 438.257 458.527 433.931L466.017 429.647C467.5 433.917 470.066 437.728 473.465 440.707L479.793 431.971C475.019 426.371 469.993 419.735 475.355 412.259C479.373 406.659 486.849 404.881 495.781 409.935L499.981 404.125L505.203 407.919L501.073 413.617C504.667 416.531 507.513 420.26 509.375 424.495L502.095 429.017C500.68 425.805 498.632 422.91 496.075 420.505L489.635 429.395C494.451 434.995 499.435 441.505 494.087 448.869C490.097 454.315 482.719 456.135 473.801 451.179ZM485.323 424.299L490.699 416.879C487.479 415.479 485.281 416.221 484.021 417.943C482.761 419.665 483.545 421.905 485.323 424.299ZM485.169 443.409C486.499 441.575 485.701 439.489 484.021 437.067L478.799 444.277C481.823 445.677 483.965 445.075 485.169 443.409Z" fill="#E0E0E0"/>
<path d="M199.222 86.9553C197.948 93.9147 194.64 100.34 189.715 105.419C184.79 110.498 178.469 114.003 171.552 115.489C164.635 116.976 157.432 116.378 150.855 113.771C144.278 111.164 138.622 106.665 134.602 100.844C130.581 95.0219 128.378 88.1388 128.27 81.0647C128.162 73.9906 130.154 67.0433 133.994 61.1014C137.835 55.1595 143.351 50.49 149.845 47.6833C156.34 44.8765 163.52 44.0587 170.48 45.3333H170.564C175.179 46.1839 179.581 47.9354 183.519 50.4876C187.457 53.0398 190.853 56.3428 193.514 60.2079C196.176 64.073 198.049 68.4245 199.029 73.0139C200.008 77.6033 200.074 82.3406 199.222 86.9553Z" fill="#EBEBEB"/>
<path d="M190.847 85.4014C189.875 90.7043 187.353 95.6 183.599 99.4694C179.845 103.339 175.027 106.008 169.756 107.139C164.485 108.271 158.997 107.814 153.985 105.826C148.974 103.838 144.664 100.409 141.602 95.9721C138.54 91.5351 136.862 86.2896 136.78 80.899C136.699 75.5083 138.218 70.2147 141.146 65.6875C144.073 61.1603 148.277 57.6028 153.227 55.465C158.176 53.3273 163.648 52.7051 168.951 53.6774C176.048 54.9871 182.334 59.0621 186.427 65.006C190.52 70.9499 192.085 78.276 190.777 85.3734L190.847 85.4014Z" fill="#F5F5F5"/>
<path d="M191.003 84.5618C190.839 83.4496 190.802 82.3225 190.891 81.2018C190.827 78.2122 190.298 75.2508 189.323 72.4238C188.653 70.4641 187.765 68.5856 186.677 66.8238C185.433 64.8375 183.936 63.021 182.225 61.4198C180.343 59.6479 178.211 58.162 175.897 57.0098C174.676 56.4045 173.413 55.8898 172.117 55.4698C170.779 55.0508 169.413 54.728 168.029 54.5038C166.637 54.3033 165.234 54.2004 163.829 54.1958C162.464 54.2098 161.103 54.3221 159.755 54.5318C158.455 54.7372 157.172 55.0414 155.919 55.4418C154.713 55.8173 153.538 56.2853 152.405 56.8418C148.414 58.772 144.961 61.6573 142.353 65.2418C140.549 67.6436 139.132 70.3125 138.153 73.1518C137.898 74.2429 137.527 75.3036 137.047 76.3158C136.908 75.1765 137.018 74.0206 137.369 72.9278C138.069 69.877 139.326 66.9817 141.079 64.3878C143.685 60.4798 147.265 57.3191 151.467 55.2178C152.68 54.6 153.939 54.0758 155.233 53.6498C156.576 53.1997 157.952 52.8533 159.349 52.6138C160.82 52.3618 162.308 52.2168 163.801 52.1798C165.314 52.1751 166.825 52.2827 168.323 52.5018C169.817 52.739 171.291 53.09 172.733 53.5518C174.132 54.0113 175.494 54.5776 176.807 55.2458C178.074 55.8873 179.287 56.6318 180.433 57.4718C181.537 58.2594 182.577 59.1349 183.541 60.0898C185.333 61.8397 186.882 63.822 188.147 65.9838C189.227 67.8734 190.091 69.8788 190.723 71.9618C191.616 74.9598 191.944 78.098 191.689 81.2158C191.687 82.3659 191.454 83.5039 191.003 84.5618Z" fill="#E0E0E0"/>
<path d="M164.106 96.9649L163.308 101.655L159.108 100.941L159.878 96.3769C156.198 95.6233 152.803 93.853 150.078 91.2669L153.242 86.5629C155.353 88.649 157.974 90.1454 160.844 90.9029L162.034 83.9029C157.596 81.9849 152.682 79.5489 153.704 73.5709C154.46 69.1469 158.324 65.8989 165.058 66.2769L165.842 61.6289L170.042 62.3429L169.258 66.9069C172.218 67.5843 174.977 68.9515 177.308 70.8969L174.34 75.6849C172.569 74.2074 170.523 73.0941 168.32 72.4089L167.102 79.5209C171.554 81.3969 176.384 83.8189 175.376 89.6989C174.62 94.0809 170.798 97.3009 164.106 96.9649ZM163.084 77.7989L164.106 71.8629C161.796 71.9889 160.718 73.0529 160.48 74.4389C160.242 75.8249 161.348 76.8889 163.084 77.7989ZM168.558 89.0969C168.81 87.6969 167.732 86.6329 166.038 85.7089L165.058 91.4629C167.228 91.3509 168.334 90.3989 168.558 89.0829V89.0969Z" fill="#E0E0E0"/>
<path d="M661.667 569.032C661.667 569.242 532.181 569.41 372.497 569.41C212.813 569.41 83.3125 569.2 83.3125 569.032C83.3125 568.864 212.757 568.668 372.497 568.668C532.237 568.668 661.667 568.836 661.667 569.032Z" fill="#263238"/>
<path d="M254.254 128.284C254.254 128.284 255.472 65.5495 203.574 33.6855H368.06C368.06 33.6855 415.086 71.7935 415.478 128.284H254.254Z" fill="#EBEBEB"/>
<path d="M355.516 56.5613C355.516 56.7713 336.728 56.9393 313.516 56.9393C290.304 56.9393 271.516 56.7713 271.516 56.5613C271.516 56.3513 290.304 56.1973 313.516 56.1973C336.728 56.1973 355.516 56.3653 355.516 56.5613Z" fill="#455A64"/>
<path d="M373.465 67.9151C373.465 68.1111 348.573 68.2791 317.871 68.2791C287.169 68.2791 262.277 68.1111 262.277 67.9151C262.277 67.7191 287.169 67.5371 317.871 67.5371C348.573 67.5371 373.465 67.7051 373.465 67.9151Z" fill="#263238"/>
<path d="M382.815 96.616C382.815 96.812 357.923 96.9799 327.221 96.9799C296.519 96.9799 271.613 96.812 271.613 96.616C271.613 96.42 296.505 96.252 327.221 96.252C357.937 96.252 382.815 96.42 382.815 96.616Z" fill="#263238"/>
<path d="M324.718 80.9773C323.967 81.0913 323.209 81.1428 322.45 81.1313L316.234 81.2433C310.984 81.3133 303.746 81.3553 295.738 81.3553C287.73 81.3553 280.492 81.3553 275.242 81.2433L269.026 81.1313C268.267 81.1428 267.508 81.0913 266.758 80.9773C267.509 80.8679 268.267 80.8211 269.026 80.8373L275.242 80.7253C280.492 80.7253 287.73 80.6133 295.738 80.6133C303.746 80.6133 310.984 80.6133 316.234 80.7253L322.45 80.8373C323.208 80.8211 323.967 80.8679 324.718 80.9773Z" fill="#263238"/>
<path d="M373.464 80.9773C372.912 81.0916 372.348 81.1433 371.784 81.1313L367.192 81.2433C363.328 81.3133 357.966 81.3553 352.058 81.3553C346.15 81.3553 340.788 81.3553 336.924 81.2433L332.332 81.1313C331.768 81.1433 331.205 81.0916 330.652 80.9773C331.206 80.8751 331.769 80.8282 332.332 80.8373L336.924 80.7253C340.788 80.7253 346.15 80.6133 352.058 80.6133C357.966 80.6133 363.258 80.6133 367.192 80.7253L371.784 80.8373C372.348 80.8213 372.911 80.8682 373.464 80.9773Z" fill="#263238"/>
<path d="M335.033 112.001C334.278 112.115 333.514 112.167 332.751 112.155L326.549 112.267C321.299 112.267 314.047 112.379 306.053 112.379C298.059 112.379 290.793 112.379 285.543 112.267L279.341 112.155C278.577 112.167 277.814 112.115 277.059 112.001C277.814 111.891 278.577 111.844 279.341 111.861L285.543 111.749C290.793 111.749 298.045 111.637 306.053 111.637C314.061 111.637 321.299 111.637 326.549 111.749L332.751 111.861C333.514 111.844 334.277 111.891 335.033 112.001Z" fill="#263238"/>
<path d="M383.779 112.001C383.227 112.115 382.663 112.167 382.099 112.155L377.507 112.267C373.629 112.267 368.281 112.379 362.373 112.379C356.465 112.379 351.173 112.379 347.225 112.267L342.633 112.155C342.069 112.167 341.506 112.115 340.953 112.001C341.507 111.899 342.07 111.852 342.633 111.861L347.225 111.749C351.103 111.749 356.451 111.637 362.373 111.637C368.295 111.637 373.573 111.637 377.507 111.749L382.099 111.861C382.662 111.852 383.225 111.899 383.779 112.001Z" fill="#263238"/>
<path d="M220.624 126.506H463.3L476.516 546.926C476.606 549.746 476.139 552.557 475.141 555.197C474.144 557.837 472.636 560.255 470.704 562.311C468.772 564.368 466.454 566.024 463.881 567.185C461.309 568.345 458.533 568.987 455.712 569.074H202.69C199.125 569.075 195.696 567.704 193.114 565.247C190.531 562.789 188.992 559.433 188.816 555.872L177.154 318.474C177.154 318.474 105.18 292.35 106.398 212.648C106.398 212.648 109.674 126.506 220.624 126.506Z" fill="#263238"/>
<path d="M233.799 568.444L223.215 126.506H472.107L476.601 549.852C476.756 554.779 474.947 559.565 471.574 563.159C468.2 566.753 463.538 568.861 458.611 569.018H457.967L233.799 568.444Z" fill="#455A64"/>
<path d="M243.781 152.111L248.821 357.883H451.527L448.797 152.111H243.781Z" fill="#263238"/>
<path d="M266.21 178.74C276.108 181.414 288.61 180.28 298.774 179.79C299.517 179.79 300.229 179.495 300.754 178.97C301.279 178.445 301.574 177.732 301.574 176.99C301.574 176.247 301.279 175.535 300.754 175.01C300.229 174.485 299.517 174.19 298.774 174.19C288.61 173.686 276.094 172.552 266.21 175.24C265.737 175.379 265.339 175.701 265.102 176.134C264.866 176.567 264.811 177.076 264.95 177.55C265.04 177.847 265.203 178.118 265.422 178.338C265.642 178.557 265.913 178.72 266.21 178.81V178.74Z" fill="#E0E0E0"/>
<path d="M316.079 178.333C325.795 180.811 338.353 180.363 348.279 179.411C349.022 179.411 349.734 179.116 350.259 178.591C350.784 178.066 351.079 177.354 351.079 176.611C351.079 175.868 350.784 175.156 350.259 174.631C349.734 174.106 349.022 173.811 348.279 173.811C338.353 172.845 325.795 172.411 316.079 174.889C315.852 174.958 315.641 175.071 315.457 175.221C315.274 175.372 315.122 175.557 315.01 175.766C314.898 175.976 314.829 176.205 314.805 176.441C314.782 176.677 314.806 176.916 314.875 177.143C314.96 177.428 315.115 177.687 315.325 177.897C315.535 178.107 315.794 178.262 316.079 178.347V178.333Z" fill="#E0E0E0"/>
<path d="M365.273 177.452C370.159 178.936 375.437 178.684 380.505 178.768C385.68 179.076 390.872 178.978 396.031 178.474C398.565 178.11 398.565 173.7 396.031 173.35C390.873 172.835 385.681 172.732 380.505 173.042C375.437 173.126 370.159 172.874 365.273 174.358C364.938 174.455 364.643 174.658 364.433 174.937C364.223 175.216 364.109 175.556 364.109 175.905C364.109 176.254 364.223 176.594 364.433 176.873C364.643 177.152 364.938 177.355 365.273 177.452Z" fill="#E0E0E0"/>
<path d="M410.856 177.731C414.543 178.268 418.261 178.553 421.986 178.585C425.682 178.669 429.672 179.271 433.256 178.249C433.76 178.097 434.201 177.787 434.514 177.364C434.828 176.942 434.997 176.43 434.997 175.904C434.997 175.378 434.828 174.866 434.514 174.444C434.201 174.022 433.76 173.711 433.256 173.559C429.672 172.537 425.682 173.139 421.986 173.223C418.261 173.253 414.542 173.543 410.856 174.091C410.467 174.211 410.126 174.452 409.884 174.78C409.642 175.107 409.512 175.504 409.512 175.911C409.512 176.318 409.642 176.715 409.884 177.042C410.126 177.37 410.467 177.611 410.856 177.731Z" fill="#E0E0E0"/>
<path d="M307.635 382.355H248.891V424.341H307.635V382.355Z" fill="#293965"/>
<path d="M259.517 382.355H248.891V424.341H259.517V382.355Z" fill="#263238"/>
<path d="M379.568 382.355H320.824V424.341H379.568V382.355Z" fill="#293965"/>
<path d="M330.845 382.355H320.219V424.341H330.845V382.355Z" fill="#263238"/>
<path d="M451.514 382.355H392.77V424.341H451.514V382.355Z" fill="#293965"/>
<path d="M401.716 382.355H391.09V424.341H401.716V382.355Z" fill="#263238"/>
<path d="M451.514 438.215H392.77V480.201H451.514V438.215Z" fill="#293965"/>
<path d="M403.718 438.215H392.77V480.201H403.718V438.215Z" fill="#263238"/>
<path d="M307.635 438.215H248.891V480.201H307.635V438.215Z" fill="#293965"/>
<path d="M259.517 438.131H248.891V480.117H259.517V438.131Z" fill="#263238"/>
<path d="M307.635 493.516H248.891V535.502H307.635V493.516Z" fill="#293965"/>
<path opacity="0.3" d="M307.635 493.516H248.891V535.502H307.635V493.516Z" fill="black"/>
<path d="M259.517 493.516H248.891V535.502H259.517V493.516Z" fill="#263238"/>
<path d="M379.244 438.215H320.5V480.201H379.244V438.215Z" fill="#293965"/>
<path d="M331.126 438.131H320.5V480.117H331.126V438.131Z" fill="#263238"/>
<path d="M379.568 493.516H320.824V535.502H379.568V493.516Z" fill="#293965"/>
<path opacity="0.3" d="M379.568 493.516H320.824V535.502H379.568V493.516Z" fill="black"/>
<path d="M331.45 493.516H320.824V535.502H331.45V493.516Z" fill="#263238"/>
<path d="M451.514 493.516H392.77V535.502H451.514V493.516Z" fill="#E0E0E0"/>
<path d="M403.396 493.516H392.77V535.502H403.396V493.516Z" fill="#263238"/>
<path d="M214.408 569.087C213.4 569.087 209.718 470.051 206.176 347.887C202.634 225.723 200.576 126.561 201.584 126.533C202.592 126.505 206.274 225.541 209.816 347.733C213.358 469.925 215.416 569.059 214.408 569.087Z" fill="#455A64"/>
<path d="M451.219 334.447V341.993L474.459 347.775L474.333 336.141L451.219 334.447Z" fill="#455A64"/>
<path d="M169.105 319.313C167.833 318.809 166.467 318.585 165.101 318.655C163.726 318.784 162.376 319.114 161.097 319.635L145.193 324.955L114.113 335.399L55.313 354.999C52.9929 355.662 50.999 357.158 49.713 359.199C48.4387 361.197 47.9638 363.601 48.383 365.933C48.6402 367.089 48.977 368.226 49.391 369.335L50.525 372.723C51.281 374.977 52.023 377.203 52.779 379.429C55.7283 388.287 58.603 396.887 61.403 405.231C67.003 421.891 72.155 437.431 76.901 451.557C86.337 479.879 93.995 502.811 99.301 518.659C101.933 526.583 103.963 532.729 105.363 536.859C106.035 538.945 106.567 540.527 106.917 541.605C107.267 542.683 107.421 543.229 107.421 543.229C107.609 543.765 107.848 544.28 108.135 544.769C108.942 546.228 110.108 547.457 111.523 548.339C112.669 549.049 113.95 549.516 115.284 549.708C116.619 549.901 117.979 549.816 119.279 549.459C122.331 548.479 125.831 547.247 129.793 545.931L188.257 526.219L125.901 331.479L157.093 321.021L213.415 493.599L210.951 433.567C199.611 399.785 187.361 363.259 174.551 325.137C174.117 323.831 173.405 322.635 172.465 321.63C171.525 320.624 170.379 319.834 169.105 319.313ZM97.229 408.031L83.313 363.987L88.031 362.489L101.947 406.533L97.229 408.031ZM106.889 383.769L98.769 358.093L103.487 356.609L111.607 382.271L106.889 383.769ZM117.781 416.333L109.675 390.657L114.393 389.173L122.499 414.835L117.781 416.333ZM120.581 423.221L125.299 421.723L147.699 492.815L142.981 494.299L120.581 423.221ZM149.981 516.237L145.179 501.047L149.897 499.549L154.699 514.753L149.981 516.237ZM169.399 508.173L164.681 509.657L135.043 415.857L139.761 414.373L169.399 508.173ZM137.339 405.399L132.621 406.883L115.429 352.521L120.147 351.023L137.339 405.399Z" fill="#293965"/>
<path opacity="0.3" d="M169.105 319.313C167.833 318.809 166.467 318.585 165.101 318.655C163.726 318.784 162.376 319.114 161.097 319.635L145.193 324.955L114.113 335.399L55.313 354.999C52.9929 355.662 50.999 357.158 49.713 359.199C48.4387 361.197 47.9638 363.601 48.383 365.933C48.6402 367.089 48.977 368.226 49.391 369.335L50.525 372.723C51.281 374.977 52.023 377.203 52.779 379.429C55.7283 388.287 58.603 396.887 61.403 405.231C67.003 421.891 72.155 437.431 76.901 451.557C86.337 479.879 93.995 502.811 99.301 518.659C101.933 526.583 103.963 532.729 105.363 536.859C106.035 538.945 106.567 540.527 106.917 541.605C107.267 542.683 107.421 543.229 107.421 543.229C107.609 543.765 107.848 544.28 108.135 544.769C108.942 546.228 110.108 547.457 111.523 548.339C112.669 549.049 113.95 549.516 115.284 549.708C116.619 549.901 117.979 549.816 119.279 549.459C122.331 548.479 125.831 547.247 129.793 545.931L188.257 526.219L125.901 331.479L157.093 321.021L213.415 493.599L210.951 433.567C199.611 399.785 187.361 363.259 174.551 325.137C174.117 323.831 173.405 322.635 172.465 321.63C171.525 320.624 170.379 319.834 169.105 319.313ZM97.229 408.031L83.313 363.987L88.031 362.489L101.947 406.533L97.229 408.031ZM106.889 383.769L98.769 358.093L103.487 356.609L111.607 382.271L106.889 383.769ZM117.781 416.333L109.675 390.657L114.393 389.173L122.499 414.835L117.781 416.333ZM120.581 423.221L125.299 421.723L147.699 492.815L142.981 494.299L120.581 423.221ZM149.981 516.237L145.179 501.047L149.897 499.549L154.699 514.753L149.981 516.237ZM169.399 508.173L164.681 509.657L135.043 415.857L139.761 414.373L169.399 508.173ZM137.339 405.399L132.621 406.883L115.429 352.521L120.147 351.023L137.339 405.399Z" fill="black"/>
<path d="M188.297 526.485L188.227 526.261L129.763 545.973C125.801 547.289 122.301 548.521 119.249 549.501C117.948 549.858 116.588 549.943 115.254 549.75C113.919 549.557 112.639 549.091 111.493 548.381C110.078 547.499 108.912 546.27 108.105 544.811C107.559 543.831 107.433 543.257 107.391 543.271L107.531 543.677C108.264 545.666 109.632 547.358 111.423 548.493C112.577 549.233 113.874 549.722 115.229 549.93C116.584 550.137 117.968 550.058 119.291 549.697C122.371 548.731 125.871 547.527 129.847 546.211L196.949 523.811L212.867 518.491L214.407 517.707L188.297 526.485Z" fill="#263238"/>
<path d="M106.889 541.633C106.539 540.555 106.007 538.973 105.335 536.887C103.935 532.687 101.905 526.555 99.2734 518.687C93.9954 502.839 86.3374 479.907 76.8734 451.585C72.1274 437.431 66.9474 421.919 61.3754 405.259C58.5754 396.934 55.7008 388.333 52.7514 379.457C51.9954 377.231 51.2534 375.005 50.4974 372.751L49.3634 369.363C48.9494 368.254 48.6126 367.117 48.3554 365.961C47.9569 363.62 48.4569 361.215 49.7554 359.227C51.0414 357.185 53.0354 355.69 55.3554 355.027L114.155 335.427L145.235 325.011L161.139 319.691C162.419 319.17 163.768 318.84 165.143 318.711C167.212 318.601 169.259 319.173 170.971 320.339C172.683 321.505 173.966 323.2 174.621 325.165C187.403 363.287 199.653 399.813 211.021 433.595L210.923 431.327C199.807 398.119 187.795 362.307 175.293 324.927C174.822 323.529 174.054 322.249 173.041 321.176C172.029 320.103 170.796 319.262 169.427 318.711C168.064 318.165 166.596 317.926 165.129 318.011C163.688 318.142 162.273 318.482 160.929 319.019L145.039 324.353L113.959 334.769L55.1594 354.481C52.6997 355.158 50.5761 356.718 49.1954 358.863C47.8495 360.999 47.3502 363.56 47.7954 366.045C48.062 367.229 48.4081 368.394 48.8314 369.531C49.2094 370.665 49.6014 371.785 49.9794 372.919C50.7214 375.159 51.4774 377.399 52.2194 379.611C55.2061 388.478 58.0948 397.078 60.8854 405.413L76.4394 451.683L99.0214 518.715C101.709 526.611 103.781 532.715 105.195 536.915C105.909 538.987 106.455 540.569 106.819 541.647L107.393 543.257C107.393 543.257 107.239 542.711 106.889 541.633Z" fill="#263238"/>
<path d="M139.712 414.397L135 415.887L164.644 509.677L169.356 508.188L139.712 414.397Z" fill="#FAFAFA"/>
<path d="M120.142 351.024L115.43 352.514L132.623 406.911L137.335 405.422L120.142 351.024Z" fill="#FAFAFA"/>
<path d="M103.493 356.602L98.7812 358.092L106.895 383.762L111.607 382.273L103.493 356.602Z" fill="#FAFAFA"/>
<path d="M87.1562 361.168L82.457 362.652L96.3221 406.547L101.021 405.062L87.1562 361.168Z" fill="#FAFAFA"/>
<path d="M149.951 499.538L145.238 501.027L150.04 516.219L154.752 514.729L149.951 499.538Z" fill="#FAFAFA"/>
<path d="M114.384 389.171L109.672 390.66L117.785 416.33L122.498 414.841L114.384 389.171Z" fill="#FAFAFA"/>
<path d="M125.243 421.763L120.531 423.252L142.998 494.336L147.711 492.847L125.243 421.763Z" fill="#FAFAFA"/>
<path d="M125.902 331.479L188.23 526.261L188.3 526.485L214.41 517.735L213.416 493.571L157.094 321.021L125.902 331.479Z" fill="#FAFAFA"/>
<path d="M187.949 538.119L213.261 529.215L212.715 518.113L188.299 526.485L187.949 538.119Z" fill="#263238"/>
<path d="M507.096 215.853C507.096 216.049 506.312 216.175 505.332 216.133C504.352 216.091 503.596 215.895 503.61 215.685C503.624 215.475 504.408 215.363 505.374 215.405C506.34 215.447 507.11 215.643 507.096 215.853Z" fill="#263238"/>
<path d="M520.801 215.266C519.726 215.718 518.565 215.933 517.399 215.896C516.253 216.109 515.074 216.076 513.941 215.798C516.165 215.14 518.503 214.959 520.801 215.266Z" fill="#263238"/>
<path d="M534.379 212.844C533.37 213.43 532.249 213.798 531.089 213.922C529.977 214.273 528.805 214.397 527.645 214.286C529.765 213.347 532.06 212.87 534.379 212.886V212.844Z" fill="#263238"/>
<path d="M547.468 208.658C546.548 209.369 545.489 209.88 544.36 210.156C543.31 210.662 542.165 210.938 541 210.968C541.916 210.252 542.977 209.741 544.108 209.47C545.162 208.978 546.305 208.702 547.468 208.658Z" fill="#263238"/>
<path d="M559.889 202.736C558.096 204.206 556.017 205.288 553.785 205.914C554.608 205.087 555.589 204.435 556.669 203.996C557.643 203.358 558.74 202.928 559.889 202.736Z" fill="#263238"/>
<path d="M571.326 195.105C571.452 195.259 570.304 196.295 568.75 197.415C567.881 198.191 566.861 198.777 565.754 199.137C565.642 198.969 566.79 197.933 568.33 196.813C569.87 195.693 571.2 194.937 571.326 195.105Z" fill="#263238"/>
<path d="M581.432 185.782C581.586 185.922 580.606 187.182 579.262 188.47C577.918 189.758 576.7 190.794 576.574 190.64C576.448 190.486 577.4 189.24 578.744 187.952C580.088 186.664 581.278 185.6 581.432 185.782Z" fill="#263238"/>
<path d="M589.793 174.875C589.975 174.973 589.219 176.275 588.127 177.899C587.035 179.523 586.013 180.699 585.859 180.517C586.206 179.403 586.772 178.37 587.525 177.479C588.617 175.939 589.625 174.763 589.793 174.875Z" fill="#263238"/>
<path d="M595.952 162.584C595.477 164.859 594.522 167.006 593.152 168.884C593.598 166.599 594.555 164.445 595.952 162.584Z" fill="#263238"/>
<path d="M599.592 149.34C599.696 150.499 599.558 151.667 599.186 152.77C599.05 153.929 598.668 155.046 598.066 156.046C598.093 153.727 598.613 151.441 599.592 149.34Z" fill="#263238"/>
<path d="M600.994 135.662C601.349 137.953 601.2 140.294 600.56 142.522C600.276 141.396 600.228 140.223 600.42 139.078C600.379 137.912 600.575 136.75 600.994 135.662Z" fill="#263238"/>
<path d="M600.304 121.941C600.999 124.153 601.205 126.489 600.906 128.787C600.458 127.715 600.235 126.562 600.248 125.399C600.035 124.255 600.054 123.079 600.304 121.941Z" fill="#263238"/>
<path d="M597.521 108.473C598.136 109.462 598.541 110.568 598.711 111.721C599.106 112.819 599.268 113.987 599.187 115.151C598.572 114.161 598.167 113.055 597.997 111.903C597.61 110.803 597.448 109.636 597.521 108.473Z" fill="#263238"/>
<path d="M592.539 95.6641C593.314 96.5326 593.901 97.5528 594.261 98.6601C594.845 99.6728 595.203 100.8 595.311 101.964C594.542 101.086 593.956 100.062 593.589 98.9541C593.017 97.941 592.66 96.8211 592.539 95.6641Z" fill="#263238"/>
<path d="M585.203 84.0289C585.357 83.9029 586.365 85.0649 587.471 86.6329C588.23 87.5147 588.797 88.5444 589.137 89.6569C588.969 89.7689 587.947 88.5929 586.869 87.0529C586.11 86.1711 585.543 85.1414 585.203 84.0289Z" fill="#263238"/>
<path d="M575.667 74.1744C575.793 74.0204 577.067 74.8604 578.467 76.1624C579.867 77.4644 580.818 78.6964 580.678 78.8364C580.538 78.9764 579.362 77.9824 577.976 76.6944C576.59 75.4064 575.541 74.3284 575.667 74.1744Z" fill="#263238"/>
<path d="M567.115 68.2651C567.213 68.0971 567.969 68.3631 568.795 68.8671C569.621 69.3711 570.195 69.9171 570.097 70.0851C569.999 70.2531 569.229 69.9871 568.417 69.4971C567.605 69.0071 567.003 68.4471 567.115 68.2651Z" fill="#263238"/>
<path d="M529.144 102.846C555.928 102.846 577.64 81.1331 577.64 54.3495C577.64 27.5659 555.928 5.85352 529.144 5.85352C502.361 5.85352 480.648 27.5659 480.648 54.3495C480.648 81.1331 502.361 102.846 529.144 102.846Z" fill="#293965"/>
<path d="M500.461 57.8921L507.965 50.3881L522.441 63.2541L550.861 35.9121L557.833 43.4161L521.377 77.7301L500.461 57.8921Z" fill="#FAFAFA"/>
<path d="M557.437 265.792L550.297 239.626C550.297 239.626 516.697 248.376 514.555 245.66C502.361 230.582 496.201 209.862 494.283 202.428C494.549 201.364 494.913 200.118 495.403 198.662C495.829 197.416 496.463 196.252 497.279 195.218C498.243 193.902 499.383 192.725 500.667 191.718C501.016 191.521 501.272 191.194 501.38 190.808C501.487 190.422 501.438 190.009 501.241 189.66C501.141 189.465 500.996 189.296 500.819 189.167C500.641 189.039 500.436 188.953 500.219 188.918C498.819 188.82 495.291 190.948 492.645 194.994C489.999 199.04 489.201 191.48 488.865 188.736C488.529 185.992 487.059 177.536 486.135 176.934C484.735 176.108 483.629 177.41 484.035 180.154C484.441 182.898 485.071 191.214 483.615 191.354C482.159 191.494 480.619 177.354 480.619 177.354C480.619 177.354 480.773 174.302 479.079 174.372C476.013 174.498 478.771 189.31 479.079 190.724C479.289 191.69 477.679 191.872 477.539 190.808C477.399 189.744 476.307 176.808 473.199 176.808C470.805 176.892 475.341 189.016 474.067 191.83C472.793 194.644 471.561 182.282 469.279 182.45C468.439 182.45 467.809 182.674 469.545 189.674C471.006 194.664 472.735 199.571 474.725 204.374H474.599C474.599 204.374 487.059 277.482 519.399 273.394C553.825 269.138 557.437 265.792 557.437 265.792Z" fill="#FFBE9D"/>
<path d="M508.644 338.326L303.446 323.388C300.665 323.194 298.073 321.907 296.237 319.809C294.401 317.711 293.469 314.971 293.646 312.188L302.83 186.118C303.024 183.337 304.311 180.745 306.41 178.909C308.508 177.073 311.248 176.141 314.03 176.318L519.396 191.2C522.192 191.397 524.795 192.697 526.633 194.813C528.47 196.929 529.393 199.688 529.196 202.484L520.012 328.554C519.916 329.938 519.549 331.289 518.93 332.531C518.312 333.772 517.455 334.88 516.408 335.79C515.362 336.7 514.146 337.395 512.83 337.835C511.515 338.275 510.126 338.451 508.742 338.354L508.644 338.326Z" fill="#293965"/>
<path d="M508.647 338.326C509.277 338.326 509.893 338.326 510.523 338.326C512.36 338.129 514.11 337.443 515.591 336.338C516.787 335.451 517.78 334.319 518.504 333.018C519.228 331.717 519.667 330.276 519.791 328.792C520.043 325.236 520.337 321.134 520.659 316.528L526.259 238.45C526.847 230.209 527.468 221.58 528.121 212.564C528.289 210.324 528.443 208.042 528.611 205.76C529.005 203.499 528.947 201.182 528.443 198.942C527.809 196.711 526.425 194.768 524.523 193.44C523.569 192.765 522.509 192.254 521.387 191.928C520.228 191.663 519.047 191.508 517.859 191.466L455.965 187L314.159 176.626C312.641 176.515 311.118 176.746 309.7 177.3C308.283 177.855 307.008 178.72 305.969 179.832C304.931 180.938 304.155 182.263 303.701 183.71C303.308 185.191 303.101 186.714 303.085 188.246C302.618 194.462 302.152 200.632 301.685 206.754C300.752 219.009 299.874 231.068 299.053 242.93C297.317 266.646 295.637 289.536 294.041 311.32C293.675 313.966 294.336 316.651 295.889 318.824C297.418 320.964 299.716 322.429 302.301 322.912C307.523 323.43 312.815 323.71 317.967 324.13L347.997 326.328L401.925 330.304L479.989 336.1L501.199 337.724L506.799 338.2L508.675 338.368C508.675 338.368 508.045 338.368 506.799 338.27L501.199 337.906L479.975 336.436L401.883 330.836L347.997 327L317.953 324.83C312.787 324.424 307.593 324.158 302.217 323.626C299.465 323.116 297.016 321.561 295.385 319.286C293.75 316.984 293.045 314.148 293.411 311.348C294.993 289.55 296.659 266.674 298.381 242.944C299.24 231.082 300.112 219.023 300.999 206.768C301.447 200.636 301.914 194.467 302.399 188.26C302.425 186.672 302.641 185.093 303.043 183.556C303.786 181.217 305.294 179.196 307.326 177.819C309.358 176.442 311.795 175.79 314.243 175.968L456.049 186.328L517.929 190.864C519.156 190.907 520.375 191.072 521.569 191.354C523.342 191.866 524.958 192.813 526.271 194.109C527.584 195.405 528.552 197.009 529.087 198.774C529.425 199.928 529.562 201.13 529.493 202.33C529.493 203.506 529.339 204.64 529.255 205.802C529.087 208.084 528.919 210.366 528.751 212.606C528.088 221.613 527.454 230.237 526.847 238.478C524.397 271.434 522.409 298.104 521.037 316.556C520.687 321.162 520.379 325.236 520.113 328.806C519.975 330.319 519.514 331.784 518.76 333.103C518.007 334.422 516.978 335.564 515.745 336.45C514.243 337.557 512.466 338.23 510.607 338.396C510.141 338.438 509.673 338.438 509.207 338.396L508.647 338.326Z" fill="#263238"/>
<path d="M316.861 271L315.951 283.6L314.663 283.502L315.489 272.092L312.535 271.882L312.619 270.734L316.861 271Z" fill="#FAFAFA"/>
<path d="M328.998 283.39L328.9 284.538L320.094 283.894V282.984L325.694 278.252C327.206 276.95 327.542 276.138 327.598 275.27C327.71 273.87 326.744 272.848 324.798 272.708C324.161 272.616 323.512 272.672 322.9 272.871C322.288 273.07 321.731 273.407 321.27 273.856L320.416 273.002C321.022 272.432 321.747 272.005 322.539 271.751C323.331 271.496 324.169 271.422 324.994 271.532C327.542 271.714 329.068 273.128 328.914 275.228C328.823 275.992 328.565 276.726 328.158 277.38C327.752 278.033 327.207 278.589 326.562 279.008L321.998 282.886L328.998 283.39Z" fill="#FAFAFA"/>
<path d="M342.329 282.201L339.823 282.019L339.571 285.323L338.283 285.225L338.521 281.921L331.438 281.417V280.479L338.703 272.639L340.103 272.737L333.103 280.381L338.563 280.787L338.773 277.875L340.033 277.959L339.823 280.871L342.329 281.053V282.201Z" fill="#FAFAFA"/>
<path d="M361.579 283.599L359.074 283.417L358.821 286.721L357.533 286.623L357.771 283.333L350.688 282.815V281.877L357.953 274.037L359.353 274.149L352.353 281.779L357.813 282.185L358.023 279.273L359.283 279.371L359.059 282.269L361.579 282.451V283.599Z" fill="#FAFAFA"/>
<path d="M372.579 284.006C372.425 286.148 370.815 287.702 367.749 287.478C366.092 287.42 364.521 286.723 363.367 285.532L364.067 284.566C365.044 285.611 366.39 286.234 367.819 286.302C369.947 286.456 371.151 285.49 371.263 283.964C371.375 282.438 370.451 281.276 367.259 281.038L364.585 280.842L365.691 274.598L372.565 275.102L372.481 276.25L366.741 275.83L366.013 279.792L367.637 279.918C371.417 280.184 372.747 281.78 372.579 284.006Z" fill="#FAFAFA"/>
<path d="M385.002 284.86C384.916 285.891 384.427 286.845 383.64 287.517C382.853 288.188 381.833 288.521 380.802 288.444H380.466C377.12 288.206 375.482 285.756 375.776 281.794C376.084 277.524 378.576 275.466 381.992 275.718C383.03 275.746 384.042 276.056 384.918 276.614L384.316 277.622C383.609 277.139 382.778 276.872 381.922 276.852C379.206 276.656 377.344 278.252 377.092 281.668V282.704C377.502 282.036 378.098 281.503 378.807 281.17C379.515 280.836 380.306 280.718 381.082 280.828C382.079 280.794 383.049 281.153 383.783 281.83C384.517 282.506 384.955 283.443 385.002 284.44C385.016 284.58 385.016 284.72 385.002 284.86ZM383.728 284.86C383.854 283.208 382.706 282.06 380.774 281.92C380.398 281.849 380.012 281.853 379.637 281.931C379.263 282.01 378.907 282.161 378.591 282.377C378.275 282.593 378.005 282.869 377.796 283.189C377.587 283.509 377.442 283.868 377.372 284.244C377.372 284.244 377.372 284.37 377.372 284.426C377.26 285.826 378.324 287.226 380.494 287.366C380.857 287.428 381.229 287.418 381.588 287.336C381.947 287.254 382.287 287.103 382.587 286.889C382.888 286.676 383.143 286.405 383.339 286.093C383.535 285.781 383.667 285.433 383.728 285.07C383.735 284.981 383.735 284.892 383.728 284.804V284.86Z" fill="#FAFAFA"/>
<path d="M402.175 286.259C402.021 288.359 400.383 289.857 397.345 289.633C395.684 289.576 394.108 288.879 392.949 287.687L393.649 286.721C394.64 287.763 395.993 288.385 397.429 288.457C399.515 288.597 400.733 287.715 400.845 286.161C400.957 284.607 399.963 283.585 397.639 283.361L396.743 283.291L396.813 282.339L400.607 278.237L394.181 277.775L394.265 276.627L402.343 277.215L402.273 278.125L398.395 282.325C401.083 282.731 402.315 284.243 402.175 286.259Z" fill="#FAFAFA"/>
<path d="M414.778 287.031C414.699 288.066 414.213 289.028 413.425 289.705C412.638 290.383 411.614 290.72 410.578 290.643C410.452 290.656 410.326 290.656 410.2 290.643C406.868 290.405 405.216 287.955 405.51 283.993C405.818 279.793 408.31 277.665 411.726 277.917C412.764 277.945 413.776 278.255 414.652 278.813L414.05 279.821C413.346 279.332 412.513 279.064 411.656 279.051C408.94 278.855 407.078 280.451 406.826 283.867V284.903C407.236 284.235 407.832 283.702 408.541 283.368C409.25 283.035 410.04 282.916 410.816 283.027C411.824 282.985 412.807 283.345 413.55 284.027C414.293 284.71 414.734 285.659 414.778 286.667C414.789 286.788 414.789 286.909 414.778 287.031ZM413.504 287.031C413.63 285.379 412.482 284.231 410.55 284.091C410.174 284.02 409.788 284.023 409.413 284.102C409.039 284.18 408.683 284.332 408.367 284.548C408.051 284.763 407.781 285.039 407.572 285.36C407.363 285.68 407.219 286.038 407.148 286.415C407.148 286.415 407.148 286.541 407.148 286.597C407.036 287.997 408.1 289.397 410.27 289.537C410.633 289.599 411.005 289.589 411.364 289.507C411.724 289.425 412.063 289.273 412.364 289.06C412.664 288.847 412.919 288.576 413.115 288.264C413.311 287.952 413.443 287.604 413.504 287.241C413.511 287.152 413.511 287.063 413.504 286.975V287.031Z" fill="#FAFAFA"/>
<path d="M427.001 279.064L426.931 279.974L420.827 291.174L419.427 291.076L425.433 280.044L418.979 279.568L418.797 281.92L417.523 281.836L417.789 278.336L427.001 279.064Z" fill="#FAFAFA"/>
<path d="M444.931 280.367L444.861 281.291L438.757 292.491L437.357 292.393L443.349 281.361L436.895 280.885L436.727 283.237L435.453 283.139L435.705 279.639L444.931 280.367Z" fill="#FAFAFA"/>
<path d="M456.626 290.334C456.472 292.56 454.484 293.792 451.488 293.582C448.492 293.372 446.742 291.846 446.91 289.62C446.957 288.907 447.244 288.231 447.725 287.703C448.205 287.174 448.85 286.823 449.556 286.708C448.982 286.487 448.498 286.084 448.176 285.56C447.855 285.036 447.715 284.421 447.778 283.81C447.932 281.766 449.766 280.618 452.426 280.8C455.086 280.982 456.766 282.41 456.626 284.454C456.596 285.071 456.363 285.662 455.963 286.133C455.563 286.604 455.018 286.929 454.414 287.058C455.098 287.274 455.689 287.715 456.091 288.31C456.492 288.905 456.681 289.618 456.626 290.334ZM455.31 290.222C455.422 288.668 454.162 287.604 451.936 287.422C449.71 287.24 448.338 288.122 448.226 289.676C448.114 291.23 449.346 292.294 451.572 292.476C453.798 292.658 455.198 291.776 455.31 290.222ZM452.006 286.4C453.966 286.54 455.198 285.742 455.296 284.384C455.394 283.026 454.218 282.004 452.342 281.878C450.466 281.752 449.178 282.508 449.08 283.908C448.982 285.308 450.06 286.274 452.006 286.4Z" fill="#FAFAFA"/>
<path d="M469.002 288.331C468.694 292.601 466.202 294.659 462.786 294.407C461.75 294.365 460.742 294.057 459.86 293.511L460.448 292.503C461.161 292.984 461.996 293.251 462.856 293.273C465.558 293.469 467.42 291.873 467.672 288.443V287.421C467.261 288.091 466.663 288.626 465.951 288.959C465.239 289.293 464.446 289.41 463.668 289.297C462.66 289.339 461.677 288.979 460.934 288.296C460.191 287.614 459.749 286.665 459.706 285.657C459.692 285.513 459.692 285.367 459.706 285.223C459.795 284.194 460.286 283.241 461.071 282.57C461.857 281.9 462.875 281.565 463.906 281.639H464.228C467.686 281.919 469.324 284.369 469.002 288.331ZM467.406 285.699C467.504 284.299 466.454 282.899 464.284 282.773C463.552 282.647 462.801 282.817 462.194 283.245C461.588 283.672 461.176 284.324 461.05 285.055C461.044 285.129 461.044 285.204 461.05 285.279C460.924 286.931 462.072 288.079 464.004 288.219C464.759 288.372 465.545 288.219 466.188 287.794C466.83 287.369 467.279 286.706 467.434 285.951V285.699H467.406Z" fill="#FAFAFA"/>
<path d="M408.288 299.697L407.891 305.156L508.495 312.474L508.892 307.014L408.288 299.697Z" fill="#FAFAFA"/>
<path d="M456.522 314.165L456.125 319.625L507.719 323.378L508.116 317.918L456.522 314.165Z" fill="#FAFAFA"/>
<path d="M311.727 235.11L310.439 252.787C310.16 256.612 313.034 259.939 316.859 260.218L345.218 262.285C349.043 262.564 352.37 259.69 352.648 255.865L353.937 238.188C354.216 234.363 351.342 231.036 347.517 230.757L319.158 228.69C315.333 228.411 312.006 231.285 311.727 235.11Z" fill="#455A64"/>
<path d="M310.59 250.966L310.744 248.95L332.472 250.532C333.068 250.594 333.671 250.537 334.246 250.366C334.821 250.194 335.356 249.911 335.822 249.533C336.287 249.155 336.673 248.688 336.959 248.161C337.244 247.633 337.422 247.055 337.484 246.458C337.545 245.861 337.489 245.259 337.318 244.684C337.146 244.109 336.863 243.574 336.485 243.108C336.107 242.643 335.64 242.256 335.113 241.971C334.585 241.686 334.006 241.508 333.41 241.446H333.2L311.472 239.864L311.612 237.834L333.354 239.416C335.054 239.597 336.618 240.432 337.715 241.744C338.811 243.056 339.355 244.743 339.232 246.449C339.108 248.155 338.327 249.746 337.053 250.886C335.778 252.027 334.111 252.628 332.402 252.562L310.59 250.966Z" fill="#293965"/>
<path d="M338.431 245.349L338.281 247.373L353.193 248.473L353.342 246.449L338.431 245.349Z" fill="#293965"/>
<path d="M319.109 202.562L318.43 211.875L426.992 219.79L427.671 210.477L319.109 202.562Z" fill="#FAFAFA"/>
<path d="M570.47 178.039C567.572 182.869 567.866 188.931 568.678 194.517C569.49 200.103 570.75 205.801 569.504 211.317C568.678 214.943 566.704 218.569 567.656 222.167C568.286 224.729 570.204 226.745 571.156 229.167C572.556 232.667 571.758 236.559 571.296 240.283C570.834 244.007 570.862 248.165 573.326 250.979C576.392 254.479 582.034 254.325 586.234 252.379C590.434 250.433 593.766 246.975 597.658 244.441C601.55 241.907 606.618 240.241 610.804 242.257C612.736 243.181 614.402 244.833 616.53 245.057C619.512 245.281 621.864 242.551 624.748 241.753C627.226 241.081 629.872 241.907 632.42 241.613C637.614 241.039 641.45 235.439 640.722 230.273C640.236 227.693 638.963 225.327 637.078 223.499C635.193 221.672 632.788 220.473 630.194 220.067C627.996 219.703 625.35 219.647 624.146 217.771C622.354 214.971 625.546 211.457 624.944 208.223C624.552 205.899 622.34 204.345 620.17 203.393C618 202.441 615.606 201.811 613.926 200.159C610.916 197.219 611.252 192.403 610.328 188.287C608.802 181.511 602.46 167.637 588.656 166.279" fill="#263238"/>
<path d="M564.074 563.599L564.34 553.715L582.862 554.093L582.624 568.555H581.476C576.366 568.737 555.45 569.115 552.076 568.009C548.268 566.819 564.074 563.599 564.074 563.599Z" fill="#293965"/>
<path d="M575.918 568.261C576.225 566.709 577.092 565.324 578.354 564.369C579.596 563.419 581.15 562.969 582.708 563.109L582.61 568.275L575.918 568.261Z" fill="#293965"/>
<path d="M556.344 565.434C556.344 565.434 550.744 566.918 551.472 567.842C552.2 568.766 573.284 569.242 582.622 568.542V568.136L557.968 567.856C557.968 567.856 557.422 565.504 556.344 565.434Z" fill="#293965"/>
<path d="M582.891 568.121H581.659L578.299 568.205H567.183C562.843 568.205 558.909 567.967 556.067 567.813L552.707 567.603L551.797 567.533H552.707L556.081 567.659C558.881 567.771 562.843 567.911 567.183 567.995C571.523 568.079 575.443 568.093 578.285 568.079H582.891V568.121Z" fill="#263238"/>
<path d="M557.941 568.149C557.803 567.586 557.601 567.041 557.339 566.525C557.016 566.046 556.64 565.604 556.219 565.209C556.769 565.468 557.228 565.887 557.536 566.412C557.843 566.937 557.984 567.542 557.941 568.149Z" fill="#263238"/>
<path d="M563.459 565.476C563.242 565.259 563.05 565.02 562.885 564.762C562.619 564.342 562.451 563.95 562.507 563.922C562.563 563.894 562.815 564.216 563.081 564.636C563.347 565.056 563.515 565.448 563.459 565.476Z" fill="#263238"/>
<path d="M564.967 564.72C564.734 564.6 564.517 564.449 564.323 564.272C564.001 563.978 563.791 563.698 563.833 563.656C563.875 563.614 564.169 563.81 564.477 564.104C564.785 564.398 565.009 564.678 564.967 564.72Z" fill="#263238"/>
<path d="M565.948 562.983C565.948 563.053 565.514 563.095 564.982 563.095C564.45 563.095 564.016 563.095 564.016 562.969C564.325 562.86 564.656 562.826 564.982 562.871C565.308 562.838 565.638 562.876 565.948 562.983Z" fill="#263238"/>
<path d="M566.297 561.765C565.977 561.972 565.6 562.075 565.219 562.059C564.841 562.12 564.453 562.056 564.113 561.877C564.477 561.849 564.842 561.849 565.205 561.877C565.563 561.792 565.93 561.755 566.297 561.765Z" fill="#263238"/>
<path d="M562.8 563.851C562.407 563.921 562.004 563.921 561.61 563.851C561.182 563.785 560.761 563.682 560.35 563.543C560.103 563.463 559.864 563.36 559.636 563.235C559.498 563.147 559.394 563.013 559.342 562.857C559.328 562.767 559.338 562.675 559.373 562.591C559.407 562.507 559.465 562.434 559.538 562.381C559.999 562.17 560.517 562.125 561.007 562.253C561.497 562.38 561.927 562.673 562.226 563.081C562.409 563.315 562.533 563.588 562.59 563.879V564.201C562.48 563.832 562.305 563.486 562.072 563.179C561.809 562.859 561.459 562.621 561.064 562.493C560.838 562.411 560.598 562.375 560.357 562.387C560.117 562.399 559.881 562.459 559.664 562.563C559.468 562.703 559.538 562.927 559.748 563.053C559.961 563.165 560.181 563.263 560.406 563.347C560.801 563.499 561.209 563.617 561.624 563.697C562.019 563.727 562.411 563.778 562.8 563.851Z" fill="#263238"/>
<path d="M562.547 563.907C562.406 563.656 562.366 563.361 562.435 563.081C562.476 562.76 562.602 562.456 562.799 562.199C562.901 562.021 563.047 561.873 563.224 561.77C563.401 561.666 563.602 561.612 563.807 561.611C563.923 561.647 564.022 561.723 564.087 561.826C564.151 561.929 564.176 562.052 564.157 562.171C564.123 562.356 564.051 562.533 563.947 562.689C563.787 562.951 563.594 563.191 563.373 563.403C563.18 563.614 562.941 563.777 562.673 563.879C562.882 563.697 563.079 563.5 563.261 563.291C563.457 563.079 563.626 562.844 563.765 562.591C563.933 562.339 564.059 561.891 563.765 561.835C563.471 561.779 563.149 562.087 562.967 562.325C562.789 562.55 562.669 562.814 562.617 563.095C562.573 563.364 562.55 563.635 562.547 563.907Z" fill="#263238"/>
<path d="M582.607 563.054C582.142 563.009 581.673 563.009 581.207 563.054C580.112 563.152 579.067 563.559 578.194 564.228C577.321 564.897 576.657 565.801 576.279 566.834C575.985 567.618 575.943 568.15 575.901 568.15C575.887 568.024 575.887 567.898 575.901 567.772C576.071 566.468 576.694 565.265 577.661 564.374C578.629 563.483 579.879 562.961 581.193 562.9C581.529 562.872 581.866 562.872 582.201 562.9C582.342 562.934 582.479 562.986 582.607 563.054Z" fill="#263238"/>
<path d="M580.848 555.312C580.96 556.579 580.988 557.851 580.932 559.121C580.962 560.387 580.915 561.654 580.792 562.915C580.642 560.383 580.642 557.844 580.792 555.312H580.848Z" fill="#263238"/>
<path d="M573.621 566.4C572.73 566.596 571.816 566.667 570.905 566.61C569.997 566.634 569.089 566.544 568.203 566.344C568.203 566.344 569.421 566.344 570.919 566.344C572.417 566.344 573.607 566.4 573.621 566.4Z" fill="#263238"/>
<path d="M577.25 566.483C577.179 566.66 577.1 566.833 577.012 567.001C576.872 567.267 576.816 567.533 576.746 567.519C576.676 567.505 576.662 567.225 576.816 566.917C576.97 566.609 577.208 566.399 577.25 566.483Z" fill="#263238"/>
<path d="M578.646 564.803C578.584 564.962 578.489 565.105 578.366 565.223C578.17 565.405 577.988 565.531 577.946 565.489C577.904 565.447 578.016 565.251 578.212 565.069C578.408 564.887 578.604 564.761 578.646 564.803Z" fill="#263238"/>
<path d="M580.619 564.062C580.619 564.132 580.353 564.062 580.087 564.216C579.821 564.37 579.611 564.44 579.569 564.398C579.527 564.356 579.681 564.104 580.017 563.992C580.353 563.88 580.633 564.006 580.619 564.062Z" fill="#263238"/>
<path d="M582.021 563.726C581.966 563.819 581.883 563.893 581.783 563.936C581.678 563.967 581.566 563.967 581.461 563.936C581.511 563.838 581.596 563.763 581.699 563.726C581.853 563.67 581.993 563.67 582.021 563.726Z" fill="#263238"/>
<path d="M616.616 563.599L616.882 553.715L635.39 554.093L635.152 568.555H634.004C628.894 568.737 607.992 569.115 604.604 568.009C600.81 566.819 616.616 563.599 616.616 563.599Z" fill="#293965"/>
<path d="M628.445 568.261C628.753 566.706 629.625 565.319 630.895 564.369C632.134 563.413 633.691 562.962 635.249 563.109L635.137 568.275L628.445 568.261Z" fill="#293965"/>
<path d="M608.886 565.434C608.886 565.434 603.286 566.918 604 567.842C604.714 568.766 625.812 569.242 635.15 568.542V568.136L610.482 567.856C610.482 567.856 609.964 565.504 608.886 565.434Z" fill="#293965"/>
<path d="M635.428 568.121H634.196L630.822 568.205H619.706C615.366 568.205 611.432 567.967 608.604 567.813L605.23 567.603L604.32 567.533H605.244L608.604 567.659C611.404 567.771 615.366 567.911 619.706 567.995C624.046 568.079 627.98 568.093 630.822 568.079H635.428V568.121Z" fill="#263238"/>
<path d="M610.47 568.149C610.337 567.587 610.139 567.042 609.882 566.525C609.559 566.046 609.183 565.604 608.762 565.209C609.311 565.468 609.768 565.888 610.073 566.413C610.378 566.938 610.516 567.544 610.47 568.149Z" fill="#263238"/>
<path d="M615.999 565.476C615.784 565.261 615.596 565.021 615.439 564.762C615.187 564.342 615.005 563.95 615.061 563.922C615.117 563.894 615.369 564.216 615.621 564.636C615.783 564.898 615.91 565.18 615.999 565.476Z" fill="#263238"/>
<path d="M617.51 564.72C617.274 564.604 617.057 564.453 616.866 564.272C616.558 563.978 616.334 563.698 616.376 563.656C616.418 563.614 616.698 563.81 617.02 564.104C617.342 564.398 617.552 564.678 617.51 564.72Z" fill="#263238"/>
<path d="M618.491 562.983C618.491 563.053 618.057 563.095 617.525 563.095C616.993 563.095 616.559 563.095 616.559 562.969C616.868 562.86 617.199 562.826 617.525 562.871C617.851 562.838 618.18 562.876 618.491 562.983Z" fill="#263238"/>
<path d="M618.8 561.766C618.471 561.967 618.092 562.069 617.708 562.06C617.329 562.12 616.941 562.056 616.602 561.878C616.965 561.85 617.33 561.85 617.694 561.878C618.056 561.792 618.428 561.754 618.8 561.766Z" fill="#263238"/>
<path d="M615.395 563.851C615.001 563.921 614.598 563.921 614.205 563.851C613.776 563.785 613.355 563.682 612.945 563.543C612.691 563.469 612.446 563.366 612.216 563.235C612.078 563.15 611.978 563.014 611.937 562.857C611.922 562.769 611.931 562.678 611.963 562.594C611.995 562.511 612.049 562.437 612.119 562.381C612.579 562.17 613.097 562.125 613.587 562.253C614.077 562.38 614.508 562.673 614.807 563.081C614.988 563.317 615.117 563.589 615.185 563.879C615.212 563.985 615.212 564.095 615.185 564.201C615.07 563.831 614.889 563.485 614.653 563.179C614.397 562.856 614.051 562.617 613.658 562.493C613.201 562.333 612.698 562.358 612.258 562.563C612.076 562.703 612.147 562.927 612.343 563.053C612.553 563.179 612.779 563.278 613.015 563.347C613.409 563.499 613.817 563.617 614.232 563.697C614.932 563.809 615.395 563.809 615.395 563.851Z" fill="#263238"/>
<path d="M615.088 563.907C614.943 563.658 614.898 563.362 614.962 563.081C615.007 562.768 615.127 562.47 615.312 562.213C615.417 562.04 615.562 561.896 615.735 561.794C615.909 561.691 616.105 561.633 616.306 561.625C616.427 561.655 616.531 561.729 616.599 561.833C616.666 561.937 616.692 562.063 616.67 562.185C616.637 562.373 616.561 562.55 616.446 562.703C616.291 562.968 616.098 563.208 615.872 563.417C615.687 563.63 615.451 563.794 615.186 563.893C615.388 563.708 615.58 563.511 615.76 563.305C615.956 563.09 616.13 562.855 616.278 562.605C616.446 562.353 616.558 561.905 616.278 561.849C615.998 561.793 615.676 562.101 615.48 562.339C615.316 562.571 615.197 562.833 615.13 563.109C615.089 563.373 615.074 563.64 615.088 563.907Z" fill="#263238"/>
<path d="M635.153 563.054C634.687 563.009 634.219 563.009 633.753 563.054C632.658 563.153 631.614 563.561 630.741 564.23C629.869 564.899 629.205 565.802 628.825 566.834C628.531 567.618 628.489 568.15 628.447 568.15C628.419 568.025 628.419 567.896 628.447 567.772C628.487 567.434 628.562 567.1 628.671 566.778C629.019 565.695 629.69 564.743 630.593 564.05C631.496 563.357 632.588 562.956 633.725 562.9C634.065 562.872 634.407 562.872 634.747 562.9C634.891 562.924 635.029 562.976 635.153 563.054Z" fill="#263238"/>
<path d="M633.385 555.312C633.535 557.844 633.535 560.383 633.385 562.915C633.274 561.653 633.245 560.386 633.301 559.121C633.252 557.851 633.28 556.579 633.385 555.312Z" fill="#263238"/>
<path d="M626.146 566.4C625.26 566.596 624.35 566.667 623.444 566.61C622.536 566.641 621.627 566.551 620.742 566.344C620.742 566.344 621.96 566.344 623.444 566.344C624.928 566.344 626.146 566.4 626.146 566.4Z" fill="#263238"/>
<path d="M629.777 566.483C629.777 566.483 629.679 566.735 629.553 567.001C629.427 567.267 629.343 567.533 629.287 567.519C629.231 567.505 629.203 567.225 629.287 566.917C629.371 566.609 629.749 566.399 629.777 566.483Z" fill="#263238"/>
<path d="M631.191 564.803C631.129 564.962 631.033 565.105 630.911 565.223C630.715 565.405 630.519 565.531 630.477 565.489C630.435 565.447 630.561 565.251 630.757 565.069C630.953 564.887 631.135 564.761 631.191 564.803Z" fill="#263238"/>
<path d="M633.147 564.062C633.147 564.132 632.895 564.062 632.615 564.216C632.335 564.37 632.153 564.44 632.097 564.398C632.041 564.356 632.209 564.104 632.545 563.992C632.881 563.88 633.175 564.006 633.147 564.062Z" fill="#263238"/>
<path d="M634.548 563.726C634.494 563.819 634.41 563.893 634.31 563.936C634.205 563.966 634.093 563.966 633.988 563.936C633.988 563.936 634.086 563.782 634.24 563.726C634.394 563.67 634.534 563.67 634.548 563.726Z" fill="#263238"/>
<path d="M560.337 309.57L551.461 441.884V561.206H586.937C586.937 561.206 588.435 458.306 587.497 451.572C587.497 451.572 593.293 348.504 593.951 349.974C595.351 352.984 595.267 440.596 597.255 451.446C599.243 462.296 608.455 561.206 608.455 561.206H642.601L631.121 447.806C630.883 434.142 627.369 314.148 627.369 314.148L560.337 309.57Z" fill="#263238"/>
<path d="M641.83 554.43C641.444 554.707 640.988 554.867 640.514 554.892C639.231 555.006 637.941 554.794 636.762 554.276C635.125 553.467 633.402 552.847 631.624 552.428C629.622 552.134 627.536 553.184 625.548 554.514C623.72 555.958 621.575 556.946 619.29 557.398C617.396 557.578 615.485 557.344 613.69 556.712C612.496 556.316 611.328 555.849 610.19 555.312C609.76 555.148 609.358 554.916 609 554.626C609 554.5 610.834 555.354 613.83 556.25C615.569 556.781 617.398 556.952 619.206 556.754C621.38 556.296 623.417 555.337 625.156 553.954C626.152 553.282 627.212 552.71 628.32 552.246C629.396 551.822 630.561 551.677 631.708 551.826C633.549 552.255 635.328 552.919 637 553.8C638.101 554.328 639.307 554.601 640.528 554.598C641.354 554.57 641.802 554.36 641.83 554.43Z" fill="#455A64"/>
<path d="M587.23 553.605C586.879 553.275 586.504 552.97 586.109 552.695C584.973 552.059 583.644 551.86 582.371 552.135C580.485 552.668 578.717 553.556 577.163 554.753C576.168 555.425 575.108 555.997 573.999 556.461C572.764 556.969 571.413 557.129 570.093 556.923C567.405 556.461 565.277 555.061 563.093 554.585C561.19 554.177 559.214 554.264 557.353 554.837C554.133 555.803 552.244 556.797 552.188 556.657C552.581 556.348 553.014 556.094 553.475 555.901C554.678 555.281 555.928 554.756 557.213 554.333C559.153 553.661 561.236 553.521 563.247 553.927C565.529 554.417 567.685 555.803 570.149 556.209C572.613 556.615 574.867 555.341 576.729 554.179C578.364 552.969 580.226 552.102 582.203 551.631C583.595 551.379 585.03 551.675 586.207 552.457C586.665 552.717 587.024 553.12 587.23 553.605Z" fill="#455A64"/>
<path d="M624.974 337.01C624.354 337.416 623.641 337.657 622.902 337.71C621.139 337.974 619.34 337.861 617.625 337.378C615.909 336.895 614.315 336.054 612.948 334.91C611.912 334.028 611.45 333.314 611.548 333.258C613.363 334.855 615.517 336.019 617.848 336.661C620.179 337.304 622.625 337.409 625.002 336.968L624.974 337.01Z" fill="#455A64"/>
<path d="M566.077 331.844C566.161 331.844 566.161 332.558 565.797 333.594C565.304 334.95 564.481 336.162 563.403 337.122C562.32 338.077 561.024 338.759 559.623 339.11C558.545 339.348 557.859 339.264 557.859 339.18C559.739 338.754 561.479 337.857 562.916 336.574C564.354 335.29 565.442 333.663 566.077 331.844Z" fill="#455A64"/>
<path d="M482.231 283.082L481.307 295.682L480.019 295.598L480.845 284.188L477.891 283.964L477.975 282.816L482.231 283.082Z" fill="#FAFAFA"/>
<path d="M494.312 295.43L494.228 296.578L485.422 295.948V295.024L491.022 290.292C492.534 289.004 492.87 288.178 492.94 287.31C493.038 285.91 492.086 284.888 490.14 284.748C489.503 284.665 488.856 284.724 488.246 284.923C487.636 285.122 487.077 285.454 486.612 285.896L485.8 285C486.406 284.43 487.131 284.003 487.923 283.749C488.715 283.494 489.553 283.42 490.378 283.53C492.926 283.712 494.452 285.126 494.298 287.226C494.214 288.43 493.752 289.48 491.946 291.006L487.382 294.898L494.312 295.43Z" fill="#FAFAFA"/>
<path d="M505.749 293.806C505.595 295.892 503.957 297.404 500.933 297.18C499.268 297.124 497.688 296.427 496.523 295.234L497.223 294.254C497.711 294.779 498.297 295.202 498.948 295.5C499.599 295.798 500.302 295.964 501.017 295.99C503.089 296.144 504.307 295.262 504.433 293.708C504.559 292.154 503.551 291.132 501.213 290.908H500.317L500.387 289.956L504.195 285.854L497.769 285.392L497.853 284.244L505.917 284.832V285.742L502.039 289.942C504.657 290.278 505.903 291.79 505.749 293.806Z" fill="#FAFAFA"/>
<path d="M571.9 170.648C570.649 171.92 569.686 173.446 569.075 175.122C568.464 176.798 568.219 178.586 568.358 180.364C568.669 183.922 569.826 187.354 571.732 190.374" fill="#263238"/>
<path d="M602.461 225.374L604.365 181.512L586.767 168.184L570.779 175.996C570.779 175.996 570.247 196.072 570.779 204.78C571.311 213.488 580.089 214.412 580.089 214.412C580.089 214.412 579.837 219.214 579.557 224.212C579.403 227.215 580.432 230.16 582.424 232.413C584.416 234.667 587.212 236.05 590.211 236.266C593.245 236.477 596.238 235.475 598.533 233.48C600.828 231.484 602.236 228.659 602.447 225.626C602.447 225.542 602.461 225.458 602.461 225.374Z" fill="#FFBE9D"/>
<path d="M573.633 190.64C573.633 190.861 573.699 191.078 573.822 191.262C573.945 191.446 574.12 191.589 574.324 191.674C574.529 191.759 574.754 191.781 574.971 191.738C575.189 191.695 575.388 191.588 575.545 191.431C575.701 191.275 575.808 191.075 575.851 190.858C575.895 190.641 575.872 190.416 575.788 190.211C575.703 190.006 575.559 189.831 575.375 189.708C575.191 189.585 574.974 189.52 574.753 189.52C574.606 189.52 574.46 189.549 574.324 189.605C574.188 189.661 574.065 189.744 573.961 189.848C573.857 189.952 573.774 190.075 573.718 190.211C573.662 190.347 573.633 190.492 573.633 190.64Z" fill="#263238"/>
<path d="M571.449 189.422C571.589 189.562 572.415 188.862 573.605 188.792C574.795 188.722 575.705 189.31 575.831 189.156C575.957 189.002 575.747 188.82 575.355 188.54C574.825 188.194 574.195 188.032 573.563 188.078C572.933 188.108 572.331 188.349 571.855 188.764C571.491 189.072 571.379 189.352 571.449 189.422Z" fill="#263238"/>
<path d="M586.602 190.64C586.602 190.933 586.718 191.214 586.926 191.422C587.133 191.629 587.414 191.746 587.708 191.746C587.929 191.749 588.146 191.686 588.332 191.565C588.518 191.444 588.663 191.271 588.751 191.067C588.838 190.864 588.863 190.639 588.823 190.421C588.782 190.203 588.678 190.002 588.523 189.844C588.369 189.685 588.17 189.576 587.954 189.53C587.737 189.484 587.512 189.504 587.306 189.586C587.1 189.668 586.923 189.809 586.798 189.992C586.673 190.175 586.604 190.39 586.602 190.612V190.64Z" fill="#263238"/>
<path d="M584.75 189.422C584.89 189.562 585.716 188.862 586.906 188.792C588.096 188.722 589.006 189.31 589.132 189.156C589.258 189.002 589.048 188.82 588.656 188.54C588.123 188.2 587.494 188.038 586.863 188.078C586.231 188.119 585.628 188.359 585.142 188.764C584.792 189.072 584.68 189.352 584.75 189.422Z" fill="#263238"/>
<path d="M584.374 200.691C582.542 201.616 580.592 202.285 578.578 202.679C579.023 203.281 579.654 203.718 580.373 203.923C581.092 204.128 581.859 204.09 582.554 203.813C582.87 203.744 583.169 203.613 583.434 203.427C583.699 203.241 583.925 203.005 584.098 202.731C584.271 202.458 584.388 202.153 584.443 201.834C584.497 201.515 584.488 201.189 584.416 200.873L584.374 200.691Z" fill="#FAFAFA"/>
<path d="M580.09 214.412C584.227 214.24 588.23 212.89 591.626 210.52C591.626 210.52 589.008 216.918 580.286 216.554L580.09 214.412Z" fill="#EB996E"/>
<path d="M580.411 199.601C579.769 199.444 579.112 199.365 578.451 199.363C578.143 199.363 577.849 199.363 577.779 199.083C577.741 198.745 577.804 198.404 577.961 198.103C578.213 197.319 578.493 196.493 578.773 195.625C579.347 193.847 579.837 192.251 580.173 191.075C580.409 190.454 580.555 189.804 580.607 189.143C580.286 189.718 580.033 190.329 579.851 190.963C579.431 192.111 578.885 193.763 578.311 195.471C578.045 196.353 577.779 197.179 577.527 197.977C577.358 198.369 577.318 198.806 577.415 199.223C577.458 199.33 577.526 199.426 577.614 199.502C577.701 199.577 577.806 199.631 577.919 199.657C578.091 199.685 578.266 199.685 578.437 199.657C579.095 199.729 579.759 199.71 580.411 199.601Z" fill="#263238"/>
<path d="M603.079 197.108C602.941 195.658 603.103 194.195 603.555 192.81C603.78 192.119 604.19 191.502 604.74 191.026C605.29 190.55 605.96 190.233 606.677 190.108C607.507 190.064 608.324 190.324 608.976 190.84C609.628 191.355 610.07 192.091 610.219 192.908C610.322 193.744 610.171 194.591 609.787 195.34C609.402 196.089 608.801 196.705 608.063 197.108C607.316 197.491 606.493 197.701 605.655 197.722C604.816 197.744 603.984 197.577 603.219 197.234" fill="#FFBE9D"/>
<path d="M605.625 195.833C605.625 195.735 606.087 195.959 606.703 195.763C607.087 195.631 607.419 195.381 607.653 195.049C607.886 194.718 608.01 194.321 608.005 193.915C608.043 193.711 608.036 193.5 607.982 193.299C607.929 193.098 607.832 192.912 607.697 192.753C607.425 192.547 607.086 192.447 606.745 192.473C606.101 192.473 605.639 192.697 605.597 192.599C605.555 192.501 605.891 192.193 606.675 191.969C606.915 191.913 607.164 191.909 607.406 191.957C607.647 192.006 607.875 192.105 608.075 192.249C608.304 192.469 608.478 192.739 608.582 193.038C608.687 193.337 608.719 193.657 608.677 193.971C608.641 194.567 608.416 195.136 608.033 195.595C607.701 195.969 607.242 196.208 606.745 196.267C605.947 196.351 605.541 195.889 605.625 195.833Z" fill="#EB996E"/>
<path d="M570.905 171.502C567.041 176.304 572.193 179.328 574.755 181.302C576.729 182.842 582.553 186.902 587.663 184.984C585.857 182.562 583.799 181.498 583.001 179.188C585.087 182.128 587.285 184.354 590.869 184.788C590.155 182.702 589.147 178.46 589.917 178.292C590.869 186.58 598.639 193.552 603.987 190.892C604.988 188.285 605.36 185.478 605.073 182.7C604.786 179.922 603.848 177.251 602.335 174.904C600.783 172.582 598.766 170.609 596.412 169.107C594.057 167.606 591.417 166.61 588.657 166.182C585.489 165.7 582.253 165.927 579.184 166.847C576.114 167.767 573.286 169.357 570.905 171.502Z" fill="#263238"/>
<path d="M607.599 197.905C607.599 197.821 608.257 198.451 607.991 199.641C607.908 199.984 607.749 200.304 607.526 200.578C607.303 200.852 607.022 201.072 606.703 201.223C606.304 201.405 605.869 201.491 605.431 201.474C604.993 201.457 604.566 201.337 604.183 201.125C603.808 200.898 603.488 200.59 603.246 200.225C603.003 199.859 602.845 199.445 602.783 199.011C602.697 198.313 602.877 197.608 603.287 197.037C603.987 196.085 604.771 195.987 604.771 196.057C604.355 196.418 604.001 196.843 603.721 197.317C603.453 197.803 603.359 198.366 603.455 198.913C603.508 199.236 603.629 199.544 603.81 199.817C603.991 200.09 604.228 200.321 604.505 200.495C604.789 200.653 605.104 200.747 605.429 200.769C605.753 200.79 606.078 200.74 606.381 200.621C606.63 200.518 606.855 200.364 607.041 200.169C607.226 199.973 607.369 199.741 607.459 199.487C607.61 198.974 607.657 198.436 607.599 197.905Z" fill="#293965"/>
<path d="M547.079 270.033L560.211 267.303L564.201 289.395C560.829 300.718 558.025 312.203 555.801 323.807L586.601 343.029L591.347 334.013L598.949 341.237L631.723 323.807C627.677 302.807 617.457 297.319 617.457 293.903C617.457 284.103 616.057 293.623 624.275 261.157C632.493 228.691 602.505 225.373 602.505 225.373C602.505 225.373 603.177 229.909 579.321 225.583C570.585 224.001 535.711 242.313 535.711 242.313L547.079 270.033Z" fill="#293965"/>
<path d="M579.276 225.584C579.276 225.584 578.996 249.608 584.722 247.984C590.448 246.36 601.984 236.098 602.46 225.318L579.276 225.584Z" fill="#FFBE9D"/>
<path d="M580.734 267.682C580.666 264.836 580.83 261.989 581.224 259.17C581.389 256.339 581.801 253.528 582.456 250.77C582.526 253.621 582.357 256.473 581.952 259.296C581.784 262.12 581.377 264.926 580.734 267.682Z" fill="#263238"/>
<path d="M584.387 265.736C583.968 263.489 583.785 261.204 583.841 258.918C583.664 256.636 583.725 254.342 584.023 252.072C584.443 254.324 584.626 256.614 584.569 258.904C584.761 261.181 584.7 263.473 584.387 265.736Z" fill="#263238"/>
<path d="M579.25 270.034C579.054 270.034 578.914 269.418 579.25 268.732C579.586 268.046 580.132 267.738 580.258 267.892C580.384 268.046 580.16 268.494 579.922 269.026C579.684 269.558 579.46 270.048 579.25 270.034Z" fill="#263238"/>
<path d="M580.032 270.033C579.836 270.033 579.766 269.529 579.864 268.983C579.962 268.437 580.228 268.045 580.424 268.087C580.62 268.129 580.69 268.591 580.592 269.137C580.494 269.683 580.228 270.075 580.032 270.033Z" fill="#263238"/>
<path d="M580.772 270.048C580.576 270.048 580.366 269.642 580.31 269.096C580.254 268.55 580.38 268.102 580.59 268.088C580.8 268.074 580.996 268.494 581.038 269.026C581.08 269.558 580.996 270.02 580.772 270.048Z" fill="#263238"/>
<path d="M581.993 270.426C581.783 270.426 581.629 269.726 581.265 269.026C580.901 268.326 580.481 267.71 580.621 267.542C580.761 267.374 581.503 267.794 581.937 268.718C582.371 269.642 582.189 270.44 581.993 270.426Z" fill="#263238"/>
<path d="M584.529 267.892C584.347 267.962 583.969 267.36 583.969 266.492C583.969 265.624 584.347 265.092 584.529 265.092C584.711 265.092 584.697 265.75 584.697 266.492C584.697 267.234 584.725 267.822 584.529 267.892Z" fill="#263238"/>
<path d="M585.282 267.5C585.086 267.5 584.876 267.052 584.82 266.464C584.764 265.876 584.82 265.372 585.086 265.358C585.352 265.344 585.492 265.806 585.548 266.394C585.604 266.982 585.478 267.486 585.282 267.5Z" fill="#263238"/>
<path d="M586.475 267.304C586.321 267.43 585.887 267.136 585.509 266.646C585.131 266.156 584.949 265.666 585.117 265.554C585.285 265.442 585.705 265.722 586.083 266.198C586.461 266.674 586.601 267.178 586.475 267.304Z" fill="#263238"/>
<path d="M586.868 266.911C586.686 266.995 586.335 266.631 585.887 266.239C585.439 265.847 585.048 265.553 585.118 265.357C585.188 265.161 585.818 265.189 586.378 265.693C586.938 266.197 587.05 266.799 586.868 266.911Z" fill="#263238"/>
<path d="M577.528 228.23C577.528 228.146 577.948 227.936 578.438 228.384C578.64 228.621 578.739 228.927 578.716 229.236C578.692 229.546 578.547 229.833 578.312 230.036C578.197 230.14 578.062 230.218 577.916 230.268C577.769 230.318 577.614 230.337 577.46 230.326C577.305 230.314 577.155 230.271 577.018 230.2C576.88 230.128 576.759 230.03 576.66 229.91C576.592 229.841 576.535 229.76 576.492 229.672C576.427 229.487 576.407 229.289 576.433 229.094C576.46 228.899 576.533 228.713 576.646 228.552C577.052 228.02 577.542 228.146 577.514 228.23C577.34 228.399 577.197 228.598 577.094 228.818C576.954 229.196 577.094 229.7 577.668 229.63C578.242 229.56 578.284 229.07 578.06 228.72C577.836 228.37 577.542 228.342 577.528 228.23Z" fill="#263238"/>
<path d="M578.09 232.752C577.964 232.906 577.572 232.752 577.194 232.556C576.816 232.36 576.606 231.94 576.718 231.772C576.83 231.604 577.236 231.688 577.614 231.968C577.992 232.248 578.202 232.584 578.09 232.752Z" fill="#263238"/>
<path d="M578.453 233.703C578.621 233.829 578.453 234.319 577.893 234.529C577.333 234.739 576.871 234.529 576.913 234.319C576.955 234.109 577.277 233.997 577.627 233.857C577.977 233.717 578.299 233.577 578.453 233.703Z" fill="#263238"/>
<path d="M578.478 236.07C578.632 236.196 578.478 236.56 578.268 236.882C578.058 237.204 577.652 237.372 577.498 237.232C577.344 237.092 577.428 236.742 577.708 236.42C577.988 236.098 578.31 236 578.478 236.07Z" fill="#263238"/>
<path d="M577.874 238.632C577.874 238.548 578.434 238.352 579.092 238.954C579.277 239.13 579.41 239.354 579.477 239.601C579.543 239.848 579.541 240.108 579.47 240.354C579.376 240.677 579.182 240.963 578.915 241.169C578.648 241.375 578.323 241.492 577.986 241.502C577.655 241.477 577.34 241.347 577.088 241.13C576.836 240.913 576.66 240.622 576.586 240.298C576.525 240.028 576.553 239.745 576.667 239.492C576.781 239.24 576.973 239.031 577.216 238.898C578.028 238.45 578.616 238.898 578.476 238.968C578.131 239.004 577.799 239.124 577.51 239.318C577.386 239.408 577.294 239.535 577.246 239.681C577.198 239.826 577.198 239.984 577.244 240.13C577.302 240.303 577.41 240.456 577.555 240.568C577.699 240.68 577.874 240.747 578.056 240.76C578.183 240.753 578.306 240.72 578.42 240.665C578.534 240.61 578.636 240.532 578.719 240.437C578.802 240.342 578.866 240.231 578.906 240.111C578.946 239.991 578.962 239.864 578.952 239.738C578.939 239.545 578.871 239.361 578.756 239.206C578.336 238.8 577.86 238.8 577.874 238.632Z" fill="#263238"/>
<path d="M579.443 242.706C579.541 242.888 579.233 243.224 578.897 243.602C578.561 243.98 578.281 244.33 578.085 244.26C577.889 244.19 577.917 243.63 578.351 243.126C578.785 242.622 579.359 242.524 579.443 242.706Z" fill="#263238"/>
<path d="M580.226 245.239C580.408 245.309 580.38 245.869 579.946 246.373C579.512 246.877 578.952 246.975 578.854 246.807C578.756 246.639 579.064 246.275 579.4 245.897C579.736 245.519 580.03 245.169 580.226 245.239Z" fill="#263238"/>
<path d="M580.65 249.341C580.454 249.341 580.244 248.893 580.202 248.291C580.16 247.689 580.202 247.213 580.468 247.185C580.734 247.157 580.874 247.633 580.916 248.235C580.958 248.837 580.86 249.327 580.65 249.341Z" fill="#263238"/>
<path d="M587.454 249.999C587.356 250.167 586.964 250.139 586.586 249.999C586.208 249.859 585.984 249.467 586.082 249.285C586.18 249.103 586.572 249.145 586.95 249.285C587.328 249.425 587.552 249.747 587.454 249.999Z" fill="#263238"/>
<path d="M589.818 247.199C589.958 247.339 589.72 247.801 589.3 248.235C588.88 248.669 588.404 248.907 588.264 248.767C588.124 248.627 588.348 248.165 588.782 247.731C589.216 247.297 589.664 247.073 589.818 247.199Z" fill="#263238"/>
<path d="M591.75 245.632C591.75 245.52 592.114 245.464 592.646 245.478H592.716L592.814 245.562C592.939 245.687 593.03 245.84 593.081 246.008C593.133 246.177 593.142 246.355 593.108 246.528C593.07 246.748 592.959 246.95 592.795 247.101C592.631 247.253 592.421 247.347 592.198 247.368C591.961 247.389 591.723 247.334 591.519 247.211C591.315 247.087 591.156 246.902 591.064 246.682C590.991 246.507 590.973 246.314 591.013 246.129C591.053 245.943 591.149 245.775 591.288 245.646C591.75 245.226 592.184 245.436 592.128 245.52C592.072 245.604 591.848 245.66 591.694 245.968C591.654 246.035 591.632 246.113 591.632 246.192C591.632 246.271 591.654 246.348 591.694 246.416C591.744 246.491 591.813 246.552 591.895 246.591C591.976 246.63 592.066 246.647 592.156 246.64C592.45 246.64 592.59 246.122 592.436 245.94L592.604 246.024C592.058 245.884 591.736 245.8 591.75 245.632Z" fill="#263238"/>
<path d="M593.753 245.254C593.557 245.254 593.473 244.736 593.585 244.204C593.697 243.672 593.949 243.266 594.145 243.294C594.341 243.322 594.411 243.812 594.299 244.344C594.187 244.876 593.949 245.296 593.753 245.254Z" fill="#263238"/>
<path d="M596.818 243.098C596.748 243.28 596.286 243.252 595.796 243.098C595.306 242.944 594.984 242.552 595.068 242.37C595.152 242.188 595.614 242.216 596.09 242.37C596.566 242.524 596.902 242.916 596.818 243.098Z" fill="#263238"/>
<path d="M597.168 240.438C597.252 240.438 597.238 240.69 597.406 240.872C597.574 241.054 597.784 241.096 597.938 240.872C598.092 240.648 597.938 240.48 597.714 240.396C597.548 240.352 597.375 240.352 597.21 240.396C597.126 240.396 597.21 240.004 597.686 239.906C597.834 239.878 597.986 239.889 598.129 239.938C598.271 239.987 598.398 240.072 598.498 240.186C598.626 240.335 598.702 240.523 598.715 240.72C598.728 240.917 598.676 241.113 598.568 241.278C598.468 241.449 598.317 241.585 598.136 241.665C597.955 241.746 597.753 241.767 597.56 241.726C597.414 241.691 597.28 241.619 597.172 241.515C597.063 241.412 596.985 241.282 596.944 241.138C596.804 240.606 597.098 240.368 597.168 240.438Z" fill="#263238"/>
<path d="M599.311 238.226C599.186 238.206 599.07 238.153 598.973 238.072C598.876 237.991 598.803 237.885 598.762 237.766C598.72 237.647 598.712 237.519 598.737 237.396C598.762 237.272 598.82 237.158 598.905 237.064C599.045 237.064 599.339 237.204 599.451 237.526C599.563 237.848 599.493 238.17 599.311 238.226Z" fill="#263238"/>
<path d="M601.313 236.266C601.215 236.434 600.823 236.406 600.445 236.182C600.067 235.958 599.843 235.65 599.955 235.482C600.067 235.314 600.431 235.342 600.809 235.552C601.187 235.762 601.411 236.084 601.313 236.266Z" fill="#263238"/>
<path d="M602.683 233.325C602.767 233.521 602.431 233.843 601.955 234.053C601.479 234.263 601.003 234.291 600.919 234.053C600.835 233.815 601.171 233.549 601.647 233.339C601.804 233.249 601.982 233.2 602.163 233.197C602.345 233.195 602.524 233.239 602.683 233.325Z" fill="#263238"/>
<path d="M603.317 229.811C603.317 229.741 603.583 229.475 604.059 229.727C604.198 229.804 604.314 229.915 604.398 230.05C604.481 230.185 604.528 230.339 604.535 230.497C604.535 230.703 604.472 230.905 604.355 231.075C604.238 231.244 604.073 231.375 603.881 231.449C603.689 231.523 603.478 231.538 603.278 231.49C603.077 231.443 602.896 231.336 602.757 231.183C602.655 231.061 602.587 230.913 602.56 230.756C602.533 230.599 602.548 230.437 602.603 230.287C602.785 229.797 603.177 229.769 603.191 229.867C603.205 229.965 603.079 230.119 603.107 230.385C603.135 230.651 603.303 230.889 603.611 230.777C603.919 230.665 603.919 230.385 603.737 230.147C603.555 229.909 603.401 229.909 603.317 229.811Z" fill="#263238"/>
<path d="M605.234 226.747C605.234 226.943 604.926 227.195 604.436 227.307C603.946 227.419 603.526 227.307 603.484 227.153C603.442 226.999 603.792 226.705 604.282 226.593C604.772 226.481 605.192 226.551 605.234 226.747Z" fill="#263238"/>
<path d="M603.273 225.725L604.043 225.137Z" fill="#263238"/>
<path d="M539.686 245.687C539.504 245.687 539.434 245.281 539.56 244.917C539.686 244.553 539.924 244.315 540.106 244.371C540.288 244.427 540.358 244.777 540.246 245.141C540.134 245.505 539.882 245.799 539.686 245.687Z" fill="#263238"/>
<path d="M541.365 247.718C541.365 247.634 541.617 247.368 542.121 247.592C542.295 247.668 542.442 247.794 542.545 247.953C542.649 248.112 542.704 248.298 542.704 248.488C542.704 248.677 542.649 248.863 542.545 249.022C542.442 249.181 542.295 249.307 542.121 249.384C541.935 249.485 541.721 249.526 541.511 249.501C541.3 249.476 541.102 249.386 540.945 249.244C540.829 249.131 540.743 248.992 540.694 248.838C540.646 248.684 540.635 248.52 540.665 248.362C540.763 247.816 541.169 247.732 541.197 247.816C541.225 247.9 541.113 248.096 541.197 248.376C541.281 248.656 541.477 248.908 541.827 248.74C542.177 248.572 542.107 248.264 541.827 248.026C541.547 247.788 541.407 247.816 541.365 247.718Z" fill="#263238"/>
<path d="M543.45 252.295C543.366 252.477 542.932 252.477 542.47 252.295C542.008 252.113 541.714 251.805 541.784 251.623C541.854 251.441 542.302 251.441 542.764 251.623C543.226 251.805 543.52 252.113 543.45 252.295Z" fill="#263238"/>
<path d="M543.969 255.096C543.899 255.292 543.563 255.348 543.199 255.236C542.835 255.124 542.597 254.872 542.653 254.676C542.709 254.48 543.059 254.424 543.423 254.55C543.787 254.676 544.025 254.914 543.969 255.096Z" fill="#263238"/>
<path d="M544.825 257C544.993 257.098 544.951 257.504 544.713 257.896C544.475 258.288 544.153 258.54 543.985 258.428C543.817 258.316 543.859 257.924 544.083 257.532C544.149 257.386 544.253 257.26 544.383 257.166C544.513 257.073 544.666 257.015 544.825 257Z" fill="#263238"/>
<path d="M545.326 258.946C545.228 258.946 545.564 258.428 546.278 258.624C546.483 258.681 546.671 258.787 546.825 258.934C546.979 259.08 547.094 259.262 547.16 259.464C547.241 259.747 547.21 260.049 547.075 260.309C546.94 260.57 546.71 260.768 546.432 260.864C546.181 260.966 545.906 260.992 545.64 260.94C545.374 260.887 545.129 260.759 544.934 260.57C544.778 260.39 544.691 260.159 544.691 259.919C544.691 259.68 544.778 259.449 544.934 259.268C545.05 259.154 545.206 259.09 545.368 259.09C545.531 259.09 545.687 259.154 545.802 259.268C545.956 259.45 545.886 259.59 545.802 259.59C545.763 259.595 545.723 259.59 545.687 259.575C545.65 259.56 545.618 259.537 545.592 259.506C545.565 259.49 545.535 259.48 545.504 259.477C545.473 259.474 545.441 259.478 545.411 259.488C545.382 259.499 545.355 259.516 545.333 259.539C545.311 259.561 545.294 259.589 545.284 259.618C545.25 259.705 545.244 259.8 545.267 259.89C545.289 259.981 545.339 260.062 545.41 260.122C545.517 260.198 545.641 260.246 545.77 260.26C545.9 260.275 546.032 260.256 546.152 260.206C546.726 259.996 546.488 259.352 546.068 259.142C545.648 258.932 545.396 259.03 545.326 258.946Z" fill="#263238"/>
<path d="M547.401 262.6C547.541 262.74 547.401 263.062 547.149 263.314C546.897 263.566 546.547 263.622 546.407 263.482C546.267 263.342 546.407 263.006 546.659 262.768C546.911 262.53 547.219 262.418 547.401 262.6Z" fill="#263238"/>
<path d="M548.154 265.008C548.308 265.148 548.154 265.498 547.916 265.792C547.678 266.086 547.286 266.226 547.132 266.086C546.978 265.946 547.132 265.596 547.384 265.302C547.636 265.008 548.014 264.868 548.154 265.008Z" fill="#263238"/>
<path d="M562.45 327.349C562.282 327.447 561.904 327.125 561.638 326.621C561.372 326.117 561.274 325.641 561.442 325.543C561.61 325.445 561.988 325.767 562.268 326.271C562.548 326.775 562.632 327.251 562.45 327.349Z" fill="#263238"/>
<path d="M563.667 327.35C563.485 327.434 563.149 327.098 562.925 326.594C562.701 326.09 562.673 325.628 562.925 325.544C563.177 325.46 563.443 325.796 563.667 326.3C563.891 326.804 563.849 327.266 563.667 327.35Z" fill="#263238"/>
<path d="M565.389 328.259V328.707C565.389 328.917 565.599 329.001 565.795 328.889C565.991 328.777 565.977 328.623 565.795 328.441C565.613 328.259 565.473 328.287 565.417 328.189C565.361 328.091 565.585 327.839 566.033 327.979C566.241 328.047 566.415 328.193 566.517 328.386C566.619 328.58 566.641 328.805 566.579 329.015C566.509 329.227 566.358 329.403 566.159 329.505C566.009 329.614 565.827 329.673 565.641 329.673C565.455 329.673 565.274 329.614 565.123 329.505C565.02 329.41 564.942 329.292 564.896 329.16C564.85 329.028 564.836 328.887 564.857 328.749C565.011 328.231 565.361 328.161 565.389 328.259Z" fill="#263238"/>
<path d="M569.704 329.169C569.83 329.323 569.564 329.729 569.116 330.065C568.668 330.401 568.22 330.541 568.094 330.373C567.968 330.205 568.234 329.813 568.682 329.477C569.13 329.141 569.592 329.001 569.704 329.169Z" fill="#263238"/>
<path d="M571.115 330.569C571.199 330.751 571.003 331.031 570.681 331.199C570.359 331.367 569.995 331.353 569.911 331.199C569.827 331.045 570.009 330.737 570.345 330.569C570.681 330.401 571.031 330.401 571.115 330.569Z" fill="#263238"/>
<path d="M573.104 332.795C572.894 332.795 572.698 332.529 572.628 332.137C572.558 331.745 572.698 331.409 572.894 331.381C573.09 331.353 573.3 331.647 573.356 332.039C573.412 332.431 573.3 332.767 573.104 332.795Z" fill="#263238"/>
<path d="M576.308 332.753C576.263 332.933 576.263 333.12 576.308 333.299C576.392 333.579 576.574 333.775 576.882 333.593C577.19 333.411 577.106 333.145 576.882 332.949C576.658 332.753 576.434 332.809 576.378 332.725C576.322 332.641 576.546 332.333 577.078 332.473C577.233 332.516 577.375 332.598 577.49 332.711C577.605 332.823 577.689 332.963 577.736 333.117C577.794 333.381 577.746 333.657 577.602 333.885C577.458 334.113 577.229 334.275 576.966 334.335C576.816 334.371 576.659 334.372 576.509 334.338C576.358 334.304 576.218 334.236 576.098 334.139C575.98 334.031 575.891 333.895 575.839 333.743C575.788 333.591 575.776 333.429 575.804 333.271C575.874 332.725 576.28 332.599 576.308 332.753Z" fill="#263238"/>
<path d="M580.118 334.224C580.258 334.378 580.048 334.77 579.656 335.106C579.264 335.442 578.844 335.596 578.718 335.442C578.592 335.288 578.788 334.896 579.18 334.56C579.572 334.224 579.992 334.07 580.118 334.224Z" fill="#263238"/>
<path d="M582.636 335.721C582.776 335.861 582.552 336.295 582.034 336.533C581.516 336.771 581.026 336.645 581.012 336.435C580.998 336.225 581.334 336.043 581.726 335.861C582.118 335.679 582.482 335.567 582.636 335.721Z" fill="#263238"/>
<path d="M584.539 338.451C584.343 338.521 584.091 338.297 583.979 337.961C583.867 337.625 583.979 337.303 584.119 337.247C584.259 337.191 584.567 337.401 584.679 337.737C584.791 338.073 584.721 338.395 584.539 338.451Z" fill="#263238"/>
<path d="M586.699 337.163C586.615 337.163 586.783 336.743 587.315 336.771C587.505 336.781 587.687 336.854 587.831 336.978C587.976 337.102 588.076 337.27 588.116 337.456C588.156 337.642 588.133 337.837 588.052 338.009C587.97 338.181 587.834 338.321 587.665 338.409C587.484 338.531 587.264 338.583 587.048 338.554C586.831 338.526 586.633 338.419 586.489 338.255C586.393 338.123 586.335 337.966 586.323 337.803C586.31 337.64 586.344 337.476 586.419 337.331C586.685 336.855 587.133 336.953 587.091 337.051C586.991 337.186 586.928 337.346 586.909 337.513C586.909 337.765 587.021 337.933 587.287 337.779C587.553 337.625 587.455 337.429 587.203 337.275C586.951 337.121 586.783 337.233 586.699 337.163Z" fill="#263238"/>
<path d="M588.713 335.203C588.545 335.315 588.251 335.203 588.055 334.909C587.859 334.615 587.845 334.307 588.055 334.195C588.265 334.083 588.517 334.195 588.713 334.489C588.909 334.783 588.881 335.091 588.713 335.203Z" fill="#263238"/>
<path d="M589.705 333.593C589.565 333.733 589.271 333.677 589.047 333.453C588.823 333.229 588.753 332.935 588.893 332.795C589.033 332.655 589.341 332.711 589.565 332.935C589.789 333.159 589.845 333.453 589.705 333.593Z" fill="#263238"/>
<path d="M590.801 330.514C590.703 330.514 590.913 330.136 591.347 330.29C591.475 330.337 591.588 330.42 591.67 330.529C591.752 330.639 591.8 330.77 591.809 330.906C591.791 331.123 591.688 331.324 591.523 331.466C591.358 331.607 591.144 331.678 590.927 331.662C590.8 331.656 590.677 331.62 590.568 331.556C590.458 331.493 590.365 331.405 590.297 331.298C590.235 331.189 590.203 331.066 590.203 330.941C590.203 330.816 590.235 330.693 590.297 330.584C590.465 330.22 590.773 330.206 590.801 330.29C590.815 330.43 590.815 330.571 590.801 330.71C590.802 330.75 590.811 330.789 590.828 330.825C590.845 330.862 590.869 330.894 590.899 330.92H591.179V330.766C591.179 330.766 590.913 330.584 590.801 330.514Z" fill="#263238"/>
<path d="M593.038 332.795C592.936 332.752 592.853 332.672 592.807 332.571C592.76 332.47 592.753 332.355 592.786 332.249C592.791 332.196 592.807 332.144 592.832 332.097C592.858 332.049 592.892 332.008 592.934 331.974C592.976 331.94 593.024 331.915 593.075 331.899C593.127 331.884 593.181 331.879 593.234 331.885C593.335 331.926 593.417 332.003 593.464 332.102C593.511 332.201 593.519 332.313 593.486 332.417C593.469 332.524 593.415 332.62 593.332 332.69C593.25 332.759 593.146 332.797 593.038 332.795Z" fill="#263238"/>
<path d="M594.061 334.001C593.984 333.923 593.928 333.827 593.899 333.721C593.869 333.616 593.867 333.505 593.893 333.399C593.893 333.287 593.928 333.178 593.993 333.088C594.059 332.997 594.151 332.93 594.257 332.895C594.453 332.895 594.691 333.133 594.621 333.525C594.551 333.917 594.215 334.127 594.061 334.001Z" fill="#263238"/>
<path d="M595.475 335.624C595.4 335.708 595.302 335.769 595.192 335.799C595.083 335.829 594.967 335.826 594.859 335.792C594.746 335.791 594.636 335.753 594.546 335.685C594.455 335.617 594.388 335.522 594.355 335.414C594.355 335.218 594.607 334.994 594.999 335.064C595.391 335.134 595.573 335.4 595.475 335.624Z" fill="#263238"/>
<path d="M596.623 336.996C596.553 336.926 596.735 336.646 597.169 336.716C597.303 336.745 597.428 336.806 597.532 336.894C597.637 336.981 597.719 337.094 597.771 337.22C597.832 337.434 597.805 337.662 597.698 337.857C597.59 338.051 597.41 338.194 597.197 338.256C597.053 338.297 596.901 338.298 596.756 338.262C596.611 338.225 596.478 338.151 596.371 338.046C596.29 337.929 596.246 337.79 596.246 337.647C596.246 337.505 596.29 337.365 596.371 337.248C596.595 336.828 596.987 336.94 596.945 337.038C596.876 337.152 596.842 337.283 596.847 337.416C596.847 337.598 596.847 337.598 596.931 337.598H597.071C597.211 337.598 597.169 337.514 597.183 337.472C597.169 337.389 597.124 337.314 597.057 337.262C596.847 337.08 596.679 337.08 596.623 336.996Z" fill="#263238"/>
<path d="M598.414 339.768C598.309 339.738 598.218 339.67 598.161 339.576C598.104 339.483 598.085 339.371 598.106 339.264C598.104 339.21 598.114 339.156 598.133 339.106C598.153 339.056 598.183 339.01 598.221 338.972C598.259 338.934 598.305 338.904 598.355 338.885C598.405 338.865 598.458 338.856 598.512 338.858C598.565 338.868 598.615 338.888 598.659 338.917C598.704 338.947 598.742 338.985 598.772 339.029C598.802 339.073 598.823 339.123 598.834 339.175C598.844 339.227 598.844 339.281 598.834 339.334C598.831 339.445 598.786 339.552 598.708 339.632C598.631 339.712 598.526 339.761 598.414 339.768Z" fill="#263238"/>
<path d="M601.129 338.326C601.129 338.522 600.737 338.62 600.345 338.522C599.953 338.424 599.673 338.2 599.715 338.004C599.757 337.808 600.121 337.724 600.513 337.808C600.905 337.892 601.171 338.2 601.129 338.326Z" fill="#263238"/>
<path d="M602.152 337.835C602.039 337.821 601.936 337.766 601.861 337.681C601.786 337.596 601.745 337.486 601.746 337.373C601.746 337.093 601.858 336.841 602.068 336.827C602.278 336.813 602.446 337.023 602.474 337.303C602.502 337.583 602.362 337.821 602.152 337.835Z" fill="#263238"/>
<path d="M604.059 336.324C603.863 336.324 603.695 336.1 603.695 335.82C603.695 335.54 603.863 335.316 604.059 335.316C604.255 335.316 604.423 335.54 604.423 335.82C604.423 336.1 604.269 336.324 604.059 336.324Z" fill="#263238"/>
<path d="M605.525 334.265C605.525 334.195 605.777 333.915 606.239 334.195C606.375 334.278 606.483 334.4 606.55 334.544C606.618 334.688 606.641 334.849 606.617 335.007C606.58 335.218 606.464 335.408 606.292 335.538C606.121 335.667 605.907 335.728 605.693 335.707C605.501 335.723 605.31 335.671 605.153 335.559C604.996 335.447 604.884 335.283 604.837 335.096C604.79 334.91 604.811 334.712 604.896 334.539C604.981 334.366 605.125 334.229 605.301 334.153C605.777 333.915 606.071 334.237 605.987 334.307C605.903 334.377 605.735 334.307 605.595 334.573C605.559 334.612 605.532 334.659 605.515 334.709C605.498 334.76 605.492 334.814 605.497 334.867C605.556 334.929 605.636 334.969 605.721 334.979C605.861 334.979 605.931 334.979 605.959 334.881C605.973 334.783 605.973 334.684 605.959 334.587C605.959 334.489 605.567 334.349 605.525 334.265Z" fill="#263238"/>
<path d="M609.322 333.089C609.168 333.243 608.902 333.201 608.636 333.173C608.37 333.145 608.09 333.061 608.006 332.879C607.922 332.697 608.23 332.361 608.748 332.445C609.266 332.529 609.462 332.963 609.322 333.089Z" fill="#263238"/>
<path d="M611.239 332.083C611.141 332.265 610.749 332.251 610.329 332.181C609.909 332.111 609.545 331.985 609.517 331.775C609.489 331.565 609.923 331.355 610.455 331.453C610.987 331.551 611.337 331.915 611.239 332.083Z" fill="#263238"/>
<path d="M612.331 331.2C612.135 331.2 611.995 330.934 612.009 330.654C612.023 330.374 612.219 330.164 612.429 330.192C612.639 330.22 612.765 330.444 612.737 330.724C612.738 330.839 612.698 330.951 612.623 331.038C612.548 331.126 612.445 331.183 612.331 331.2Z" fill="#263238"/>
<path d="M613.983 328.611C613.913 328.611 614.123 328.233 614.627 328.331C614.782 328.371 614.922 328.456 615.03 328.575C615.137 328.695 615.206 328.844 615.229 329.003C615.256 329.207 615.214 329.414 615.11 329.591C615.006 329.769 614.846 329.907 614.655 329.983C614.453 330.045 614.235 330.035 614.041 329.953C613.846 329.871 613.687 329.723 613.591 329.535C613.509 329.385 613.484 329.21 613.52 329.043C613.556 328.876 613.65 328.728 613.787 328.625C614.235 328.303 614.557 328.625 614.487 328.625C614.417 328.625 614.249 328.751 614.151 328.947C614.053 329.143 614.151 329.115 614.151 329.157C614.178 329.189 614.213 329.214 614.251 329.231C614.29 329.248 614.332 329.256 614.375 329.255C614.415 329.228 614.45 329.193 614.477 329.152C614.503 329.111 614.521 329.065 614.529 329.017C614.532 328.971 614.524 328.925 614.504 328.883C614.484 328.841 614.454 328.805 614.417 328.779C614.263 328.667 614.039 328.695 613.983 328.611Z" fill="#263238"/>
<path d="M616.376 328.54C616.269 328.494 616.183 328.41 616.134 328.304C616.085 328.198 616.076 328.078 616.11 327.966C616.11 327.907 616.122 327.848 616.146 327.793C616.169 327.739 616.204 327.69 616.247 327.649C616.29 327.608 616.341 327.577 616.397 327.557C616.453 327.537 616.513 327.528 616.572 327.532C616.768 327.532 616.88 327.826 616.824 328.106C616.768 328.386 616.572 328.582 616.376 328.54Z" fill="#263238"/>
<path d="M618.406 326.831C618.301 326.801 618.211 326.733 618.154 326.64C618.096 326.546 618.077 326.434 618.098 326.327C618.091 326.278 618.093 326.228 618.105 326.18C618.117 326.132 618.139 326.087 618.169 326.048C618.199 326.008 618.237 325.976 618.28 325.951C618.323 325.927 618.371 325.912 618.421 325.907C618.47 325.899 618.521 325.901 618.57 325.913C618.619 325.925 618.665 325.947 618.705 325.977C618.746 326.007 618.78 326.045 618.805 326.088C618.831 326.131 618.848 326.179 618.854 326.229C618.868 326.289 618.868 326.351 618.854 326.411C618.847 326.525 618.797 326.632 618.714 326.71C618.631 326.788 618.521 326.831 618.406 326.831Z" fill="#263238"/>
<path d="M621.264 325.18C621.152 325.348 620.802 325.32 620.438 325.18C620.074 325.04 619.752 324.97 619.724 324.76C619.696 324.55 620.102 324.354 620.606 324.466C621.11 324.578 621.376 325.012 621.264 325.18Z" fill="#263238"/>
<path d="M622.633 324.199C622.451 324.283 622.171 324.017 622.283 323.653C622.395 323.289 622.759 323.219 622.871 323.387C622.919 323.456 622.951 323.534 622.968 323.616C622.985 323.697 622.986 323.782 622.97 323.863C622.941 323.94 622.896 324.01 622.838 324.068C622.78 324.126 622.71 324.171 622.633 324.199Z" fill="#263238"/>
<path d="M624.285 322.59C624.18 322.56 624.09 322.492 624.032 322.398C623.975 322.305 623.956 322.193 623.977 322.086C623.977 322.031 623.988 321.977 624.01 321.927C624.031 321.877 624.062 321.832 624.101 321.794C624.14 321.756 624.187 321.726 624.238 321.707C624.289 321.687 624.343 321.678 624.397 321.68C624.502 321.707 624.592 321.772 624.649 321.863C624.707 321.955 624.727 322.064 624.705 322.17C624.699 322.279 624.652 322.382 624.575 322.46C624.498 322.537 624.395 322.583 624.285 322.59Z" fill="#263238"/>
<path d="M604.098 248.222L594.816 257.56L617.3 279.666C617.3 279.666 621.878 266.338 625.07 254.606C627.324 246.318 604.098 248.222 604.098 248.222Z" fill="#293965"/>
<path d="M600.475 258.399C600.279 258.399 600.069 257.993 600.013 257.461C599.957 256.929 600.083 256.467 600.279 256.453C600.475 256.439 600.685 256.845 600.741 257.391C600.797 257.937 600.671 258.399 600.475 258.399Z" fill="#263238"/>
<path d="M602.617 258.833C602.617 259.029 602.267 259.197 601.833 259.197C601.399 259.197 601.062 259.029 601.062 258.833C601.062 258.637 601.413 258.469 601.833 258.469C602.253 258.469 602.617 258.623 602.617 258.833Z" fill="#263238"/>
<path d="M603.203 261.942C603.021 261.83 603.035 261.508 603.035 261.158C603.035 260.808 603.035 260.5 603.203 260.388C603.371 260.276 603.763 260.584 603.763 261.158C603.763 261.732 603.399 262.068 603.203 261.942Z" fill="#263238"/>
<path d="M605.053 262.249C604.969 262.249 605.291 261.801 605.893 261.997C606.075 262.055 606.239 262.161 606.367 262.304C606.495 262.447 606.582 262.621 606.621 262.809C606.649 263.063 606.587 263.319 606.445 263.531C606.304 263.744 606.093 263.901 605.848 263.974C605.604 264.048 605.341 264.033 605.106 263.932C604.871 263.832 604.679 263.652 604.563 263.425C604.498 263.238 604.49 263.035 604.54 262.844C604.59 262.652 604.695 262.479 604.843 262.347C604.93 262.26 605.036 262.195 605.152 262.156C605.269 262.117 605.393 262.106 605.515 262.123C605.697 262.123 605.753 262.263 605.725 262.291C605.522 262.363 605.35 262.501 605.235 262.683C605.053 262.991 605.151 263.397 605.641 263.271C606.131 263.145 606.005 262.697 605.641 262.473C605.277 262.249 605.109 262.333 605.053 262.249Z" fill="#263238"/>
<path d="M607.472 266.029C607.29 266.029 607.22 265.651 607.318 265.329C607.416 265.007 607.668 264.797 607.864 264.853C608.06 264.909 608.13 265.231 608.018 265.553C607.906 265.875 607.668 266.085 607.472 266.029Z" fill="#263238"/>
<path d="M609.574 265.624C609.77 265.624 609.84 266.212 609.728 266.856C609.616 267.5 609.364 268.004 609.168 267.962C608.972 267.92 608.902 267.374 609.014 266.73C609.126 266.086 609.378 265.596 609.574 265.624Z" fill="#263238"/>
<path d="M611.798 268.201C611.798 268.397 611.448 268.607 610.958 268.663C610.468 268.719 610.076 268.593 610.048 268.397C610.02 268.201 610.398 267.991 610.888 267.935C611.378 267.879 611.798 267.963 611.798 268.201Z" fill="#263238"/>
<path d="M612.708 269.263C612.708 269.179 613.002 268.955 613.534 269.179C613.696 269.247 613.84 269.353 613.954 269.486C614.068 269.62 614.149 269.778 614.192 269.949C614.239 270.183 614.209 270.425 614.105 270.64C614.002 270.855 613.83 271.03 613.618 271.139C613.4 271.268 613.142 271.31 612.895 271.255C612.648 271.201 612.431 271.054 612.288 270.845C612.197 270.669 612.166 270.467 612.202 270.272C612.237 270.077 612.337 269.899 612.484 269.767C612.574 269.673 612.689 269.607 612.816 269.577C612.943 269.547 613.075 269.555 613.198 269.599C613.366 269.669 613.394 269.767 613.366 269.795C613.268 269.806 613.176 269.844 613.097 269.903C613.018 269.962 612.957 270.04 612.918 270.131C612.764 270.467 612.918 270.691 613.324 270.523C613.73 270.355 613.59 269.907 613.324 269.655C613.058 269.403 612.722 269.375 612.708 269.263Z" fill="#263238"/>
<path d="M615.059 274.205C614.863 274.205 614.695 273.673 614.695 273.029C614.695 272.385 614.863 271.867 615.059 271.867C615.255 271.867 615.423 272.385 615.423 273.029C615.423 273.673 615.269 274.205 615.059 274.205Z" fill="#263238"/>
<path d="M611.674 238.646C611.144 239.738 610.465 240.751 609.658 241.656C608.258 243.42 606.326 245.856 604.058 248.334C601.79 250.812 599.718 253.15 598.192 254.774C597.41 255.694 596.542 256.538 595.602 257.294C596.237 256.267 596.973 255.306 597.8 254.424C599.2 252.73 601.272 250.406 603.512 247.858L609.252 241.32C609.995 240.374 610.805 239.48 611.674 238.646Z" fill="#263238"/>
<path d="M627.395 322.422C627.395 322.618 626.975 322.688 626.555 322.59C626.135 322.492 625.841 322.24 625.883 322.044C625.925 321.848 626.317 321.778 626.723 321.876C627.129 321.974 627.437 322.226 627.395 322.422Z" fill="#263238"/>
<path d="M628.459 320.715C628.459 320.645 628.543 320.421 628.949 320.393C629.082 320.394 629.211 320.435 629.321 320.509C629.431 320.584 629.516 320.69 629.565 320.813C629.606 320.889 629.63 320.974 629.637 321.06C629.644 321.147 629.634 321.234 629.606 321.316C629.579 321.399 629.535 321.475 629.478 321.54C629.42 321.605 629.35 321.657 629.271 321.695H629.131C628.431 321.877 627.829 321.191 628.137 320.659C628.182 320.578 628.25 320.514 628.333 320.474C628.416 320.434 628.509 320.42 628.599 320.435C628.62 320.433 628.641 320.437 628.66 320.446C628.679 320.455 628.695 320.468 628.707 320.485C628.72 320.501 628.728 320.521 628.731 320.541C628.734 320.562 628.732 320.583 628.725 320.603C628.682 320.634 628.647 320.677 628.625 320.726C628.603 320.775 628.594 320.829 628.599 320.883C628.599 320.883 628.809 321.037 628.935 320.995C628.94 320.965 628.934 320.935 628.919 320.909C628.904 320.883 628.88 320.864 628.851 320.855C628.697 320.813 628.501 320.813 628.459 320.715Z" fill="#263238"/>
<path d="M509.307 271.085C508.509 268.439 498.471 263.007 499.983 261.537C501.943 259.605 510.203 267.669 510.945 268.299C511.687 268.929 512.597 267.851 511.897 267.319C510.889 266.549 500.445 258.261 502.363 256.357C503.427 255.293 505.163 257.435 505.163 257.435C505.163 257.435 514.375 265.933 515.257 264.995C516.139 264.057 510.889 258.877 508.999 257.267C507.109 255.657 507.123 254.103 508.495 253.851C509.419 253.669 515.327 258.485 517.147 260.137C518.967 261.789 523.937 266.381 523.279 262.083V261.887C522.523 257.687 523.279 254.173 524.259 253.333C524.465 253.126 524.731 252.989 525.018 252.941C525.306 252.893 525.602 252.936 525.864 253.064C526.126 253.192 526.342 253.399 526.481 253.655C526.62 253.912 526.675 254.205 526.639 254.495C526.681 254.703 526.681 254.917 526.639 255.125V255.433C526.596 256.899 526.695 258.367 526.933 259.815C527.126 261.116 527.538 262.375 528.151 263.539C528.865 264.939 529.551 266.003 530.111 266.941C536.817 270.637 556.123 280.395 575.457 281.879C578.957 282.145 596.667 259.241 596.667 259.241L614.041 276.307C611.689 280.325 610.863 281.249 599.061 297.391C579.811 323.725 519.261 280.115 519.261 280.115L518.701 279.835C514.101 277.59 509.632 275.084 505.317 272.331C500.109 268.677 500.417 268.201 500.935 267.641C502.111 266.171 510.119 273.801 509.307 271.085Z" fill="#FFBE9D"/>
</svg>
