<svg width="40" height="40" viewBox="0 0 40 40" fill="none" xmlns="http://www.w3.org/2000/svg">
<path d="M34.2702 11.6795C32.365 11.6795 30.607 11.0483 29.1954 9.98349C27.5763 8.76285 26.4131 6.97233 26.0023 4.9086C25.8993 4.38969 25.8451 3.86227 25.8406 3.33325H20.3979V18.2052L20.3914 26.3512C20.3914 28.529 18.9732 30.3756 17.0073 31.0251C16.4184 31.2198 15.7982 31.302 15.1789 31.2676C14.36 31.2226 13.5925 30.9755 12.9255 30.5765C11.506 29.7275 10.5435 28.1874 10.5175 26.4255C10.4764 23.6719 12.7025 21.4269 15.4541 21.4269C15.9973 21.4269 16.5189 21.5156 17.0073 21.6767V16.1506C16.4922 16.0743 15.9679 16.0345 15.4378 16.0345C12.426 16.0345 9.60915 17.2864 7.59563 19.5419C6.07375 21.2463 5.16088 23.4209 5.02004 25.7011C4.83551 28.6966 5.9316 31.5441 8.05728 33.645C8.36961 33.9534 8.69759 34.2397 9.04056 34.5037C10.863 35.9063 13.0911 36.6666 15.4378 36.6666C15.9679 36.6666 16.4922 36.6275 17.0073 36.5512C19.1995 36.2265 21.2221 35.223 22.8183 33.645C24.7797 31.7065 25.8634 29.1328 25.8751 26.3936L25.8471 14.229C26.785 14.9524 27.8124 15.5516 28.9039 16.0117C30.6116 16.7322 32.4223 17.0973 34.2859 17.0967V11.6782C34.2872 11.6795 34.2716 11.6795 34.2702 11.6795Z" fill="#F0F1F5"/>
</svg>
