<svg width="40" height="40" viewBox="0 0 40 40" fill="none" xmlns="http://www.w3.org/2000/svg">
<path d="M13.0434 35.2421C27.1951 35.2421 34.934 23.5179 34.934 13.3515C34.934 13.0185 34.9272 12.6869 34.9123 12.3571C36.4179 11.2673 37.7174 9.91825 38.75 8.37295C37.3716 8.98593 35.8878 9.39806 34.3318 9.58452C35.9202 8.63168 37.1397 7.12493 37.7149 5.32887C36.2045 6.22479 34.5523 6.85632 32.8295 7.19626C31.4255 5.70079 29.4264 4.76562 27.2132 4.76562C22.9647 4.76562 19.519 8.21104 19.519 12.4582C19.519 13.0623 19.5866 13.6494 19.7185 14.2126C13.3241 13.8909 7.65372 10.8295 3.85947 6.17415C3.199 7.31092 2.81792 8.63186 2.81792 10.0413C2.81792 12.7103 4.17626 15.0671 6.24155 16.4453C4.97933 16.4066 3.79371 16.0601 2.75716 15.4833C2.75598 15.5156 2.75598 15.547 2.75598 15.5815C2.75598 19.3076 5.40796 22.4187 8.92887 23.1236C8.26757 23.3035 7.58528 23.3945 6.89997 23.3943C6.40506 23.3943 5.92259 23.3456 5.45386 23.2555C6.43329 26.3124 9.27378 28.537 12.6412 28.5994C10.0079 30.6633 6.69055 31.8927 3.08528 31.8927C2.4652 31.8927 1.85223 31.8572 1.25 31.7861C4.65508 33.9686 8.69838 35.2423 13.0437 35.2423" fill="#F0F1F5"/>
</svg>
