<svg width="40" height="40" viewBox="0 0 40 40" fill="none" xmlns="http://www.w3.org/2000/svg">
<path d="M35.9796 11.9854C35.5955 10.5574 34.4695 9.43173 33.0417 9.0472C30.4333 8.3335 19.9993 8.3335 19.9993 8.3335C19.9993 8.3335 9.56573 8.3335 6.95729 9.02016C5.55692 9.40428 4.40358 10.5577 4.01947 11.9854C3.33301 14.5937 3.33301 20.0029 3.33301 20.0029C3.33301 20.0029 3.33301 25.4393 4.01947 28.0203C4.40395 29.4481 5.52947 30.5738 6.95749 30.9583C9.59318 31.6722 19.9997 31.6722 19.9997 31.6722C19.9997 31.6722 30.4333 31.6722 33.0417 30.9855C34.4697 30.6012 35.5955 29.4755 35.9799 28.0477C36.6662 25.4393 36.6662 20.0303 36.6662 20.0303C36.6662 20.0303 36.6936 14.5936 35.9796 11.9854ZM16.6773 25V15.0056L25.3537 20.0028L16.6773 25Z" fill="#F0F1F5"/>
</svg>
